<svg version="1.1" xmlns="http://www.w3.org/2000/svg" xmlns:xlink="http://www.w3.org/1999/xlink" width="98.69263" height="98.25808" viewBox="0,0,98.69263,98.25808"><g transform="translate(-191.08635,-86.58459)"><g data-paper-data="{&quot;isPaintingLayer&quot;:true}" fill-rule="nonzero" stroke-linejoin="miter" stroke-miterlimit="10" stroke-dasharray="" stroke-dashoffset="0" style="mix-blend-mode: normal"><path d="M238.63599,127.7367c11.83828,0 20.62538,2.97245 30.33327,8.0836c4.61314,2.43448 8.6344,7.19665 11.57365,13.01774c2.31415,4.59018 4.01962,10.47893 3.75662,15.95617c-0.50169,6.16374 0.47669,14.72147 -5.84354,15.82602c-25.27777,4.41564 -51.02712,4.24109 -76.38412,-0.7815c-6.3395,-1.25572 -4.97206,-10.56368 -5.84366,-16.28189c-0.62939,-4.63968 -0.9667,-10.23284 0.66783,-14.26291c2.57202,-6.21713 6.75357,-10.88286 11.40669,-13.47363c9.65285,-5.34431 18.49499,-8.0836 30.33327,-8.0836z" fill="#660000" stroke="#000000" stroke-width="2.12954" stroke-linecap="round"/><path d="M239.34025,126.08485c10.3833,-0.3168 20.80239,-0.14164 30.9814,1.3741c5.87658,1.18941 13.69845,1.57242 16.66576,6.65549c3.85543,6.59112 0.93849,14.9573 0.42739,22.97223c-0.22307,2.13408 -1.0025,6.47264 -2.99134,5.83965c-4.51512,-2.05249 -6.08602,-11.39592 -10.64048,-12.88164c-2.36144,-0.76685 -0.37428,6.5989 -3.07674,7.98664c-3.67505,1.86698 -10.29348,-3.92286 -12.3498,-0.90172c-2.32986,3.43079 4.55698,9.04035 3.07674,13.31097c-0.72905,2.77219 -6.2963,4.50603 -7.94832,2.23288c-3.14851,-4.33683 0.46147,-11.33155 -2.2221,-15.97318c-1.40931,-2.4433 -5.85612,-2.55491 -7.9483,-0.90172c-3.93234,3.1182 -3.47673,9.99353 -7.47822,12.88154c-2.14099,1.54331 -5.53997,0.46378 -7.52105,-0.90162c-5.00829,-4.25268 -6.2621,-13.90359 -12.3498,-15.07158c-4.59298,-0.88706 -7.02619,11.12462 -10.1704,9.74714c-3.5528,-1.57334 0.43922,-15.37033 -2.64947,-16.40263c-2.89982,-0.94373 -6.31855,13.82804 -8.88847,13.13931c-2.94253,-0.87856 -2.37759,-11.0533 -2.13659,-16.27379c0.19653,-4.28619 -1.01961,-11.10054 2.99123,-12.53819c13.95324,-4.9697 29.44388,-3.84128 44.22856,-4.29387z" fill="#ff99e5" stroke="#000000" stroke-width="1.65257" stroke-linecap="round"/><path d="M239.46813,127.10977c10.14203,-0.3168 20.31903,-0.14164 30.26153,1.3741c5.74003,1.18941 13.38015,1.57242 16.27851,6.65549c3.76584,6.59112 0.91668,14.9573 0.41745,22.97223c-0.2179,2.13408 -0.97921,6.47264 -2.92183,5.83965c-4.41021,-2.05249 -5.94461,-11.39592 -10.39324,-12.88164c-2.30656,-0.76685 -0.36559,6.5989 -3.00525,7.98664c-3.58966,1.86698 -10.05431,-3.92286 -12.06283,-0.90172c-2.27572,3.43079 4.45109,9.04035 3.00525,13.31097c-0.71211,2.77219 -6.15001,4.50603 -7.76362,2.23288c-3.07536,-4.33683 0.45076,-11.33155 -2.17046,-15.97318c-1.37656,-2.4433 -5.72005,-2.55491 -7.76362,-0.90172c-3.84097,3.1182 -3.39595,9.99353 -7.30447,12.88154c-2.09124,1.54331 -5.41125,0.46378 -7.34629,-0.90162c-4.89191,-4.25268 -6.1166,-13.90359 -12.06283,-15.07158c-4.48625,-0.88706 -6.86292,11.12462 -9.93409,9.74714c-3.47026,-1.57334 0.42903,-15.37033 -2.58791,-16.40263c-2.83246,-0.94373 -6.17173,13.82804 -8.68195,13.13931c-2.87418,-0.87856 -2.32236,-11.0533 -2.08694,-16.27379c0.19197,-4.28619 -0.9959,-11.10054 2.92173,-12.53819c13.629,-4.9697 28.75971,-3.84128 43.20086,-4.29387z" fill="#ff99e5" stroke="#ff00bf" stroke-width="1.65257" stroke-linecap="round"/><path d="M217.30692,136.91563l4.29921,-0.83479" fill="none" stroke="#9b4976" stroke-width="1.62504" stroke-linecap="round"/><path d="M236.25687,147.26716h-5.17581" fill="none" stroke="#9b4976" stroke-width="1.62504" stroke-linecap="round"/><path d="M265.1409,142.55051v-3.88187" fill="none" stroke="#9b4976" stroke-width="1.62504" stroke-linecap="round"/><path d="M248.3197,130.90501l4.34092,2.58791" fill="none" stroke="#9b4976" stroke-width="1.62504" stroke-linecap="round"/><path d="M280.2508,145.55577v4.75836" fill="none" stroke="#9b4976" stroke-width="1.62504" stroke-linecap="round"/><path d="M275.9516,135.62167h-3.46442" fill="none" stroke="#9b4976" stroke-width="1.62504" stroke-linecap="round"/><path d="M208.66678,138.20958l-3.88187,3.88177" fill="none" stroke="#9b4976" stroke-width="1.62504" stroke-linecap="round"/><path d="M212.96598,146.43236l-3.4227,0.83479" fill="none" stroke="#ffffff" stroke-width="1.62504" stroke-linecap="round"/><path d="M229.36975,130.90501l3.46442,3.00535" fill="none" stroke="#ffffff" stroke-width="1.62504" stroke-linecap="round"/><path d="M231.54021,160.66567l3.4227,-3.04707" fill="none" stroke="#ffffff" stroke-width="1.62504" stroke-linecap="round"/><path d="M253.07807,155.48984l-3.46442,-2.58781" fill="none" stroke="#ffffff" stroke-width="1.62504" stroke-linecap="round"/><path d="M260.42425,155.90729l0.41745,-2.58791z" fill="none" stroke="#ffffff" stroke-width="1.62504" stroke-linecap="round"/><path d="M265.1409,132.19897h-3.88187" fill="none" stroke="#ffffff" stroke-width="1.62504" stroke-linecap="round"/><path d="M275.49242,144.26181l-3.4227,0.87661" fill="none" stroke="#ffffff" stroke-width="1.62504" stroke-linecap="round"/><path d="M200.02655,136.08084l4.75836,-1.75311" fill="none" stroke="#ffffff" stroke-width="1.62504" stroke-linecap="round"/><path d="M211.67202,132.19897l1.29396,3.00525z" fill="none" stroke="#ffffff" stroke-width="1.62504" stroke-linecap="round"/><path d="M248.3197,142.55051l0.45917,2.12876z" fill="none" stroke="#ffffff" stroke-width="1.62504" stroke-linecap="round"/><path d="M220.72962,148.14367l2.58781,-5.59316" fill="none" stroke="#6148a4" stroke-width="1.62504" stroke-linecap="round"/><path d="M243.60304,130.02851h-5.17571" fill="none" stroke="#6148a4" stroke-width="1.62504" stroke-linecap="round"/><path d="M246.19095,152.02542l-5.17571,1.71141" fill="none" stroke="#6148a4" stroke-width="1.62504" stroke-linecap="round"/><path d="M260.84168,147.26717l-4.75836,-1.71141" fill="none" stroke="#6148a4" stroke-width="1.62504" stroke-linecap="round"/><path d="M214.25984,152.90204l-4.29921,1.71129" fill="none" stroke="#6148a4" stroke-width="1.62504" stroke-linecap="round"/><path d="M199.19176,144.26181v-3.46442" fill="none" stroke="#6148a4" stroke-width="1.62504" stroke-linecap="round"/><path d="M219.89482,129.61117l3.88177,-0.41745" fill="none" stroke="#6148a4" stroke-width="1.62504" stroke-linecap="round"/><path d="M285.42653,152.02542v-4.75827" fill="none" stroke="#6148a4" stroke-width="1.62504" stroke-linecap="round"/><path d="M260.42425,139.08609h-3.88177" fill="none" stroke="#6148a4" stroke-width="1.62504" stroke-linecap="round"/><path d="M255.66597,129.19372h2.58781z" fill="none" stroke="#6148a4" stroke-width="1.62504" stroke-linecap="round"/><path d="M209.50547,136.62465c-0.06447,-11.77986 -0.14225,-22.92253 -0.2386,-32.11221c0.61792,-1.06273 1.40506,-1.20121 2.05946,-1.17332c0.41745,0.01988 0.85057,0.57467 1.27458,0.98227c0.11664,10.23019 0.21063,20.93481 0.28749,31.95284c-0.44881,-0.23787 -1.09716,-0.50303 -1.77393,-0.5015c-0.59979,0.00134 -1.17691,0.42503 -1.60901,0.8519z" fill="#ffffff" stroke="none" stroke-width="1.24326" stroke-linecap="butt"/><path d="M208.95447,118.15168c0.53819,-0.01373 1.25603,-0.02787 2.00002,-0.02952c0.83941,-0.00185 1.64233,0.0042 2.19782,0.01004c0.21472,1.71673 -0.21,3.69687 -0.19043,5.2984c-0.6949,0.0244 -1.37809,0.04131 -2.20326,0.04488c-0.60266,0.00267 -1.20028,-0.0041 -1.77823,-0.01845c-0.02787,-0.00073 -0.05084,-0.00185 -0.07749,-0.00287c-0.17372,-1.09113 0.07841,-2.2092 0.06908,-3.30341c-0.0041,-0.53982 0.02685,-1.30697 -0.01752,-1.9991z" fill="#42b5e8" stroke="none" stroke-width="0.4292" stroke-linecap="butt"/><path d="M209.15946,108.31252c0.53819,-0.01373 1.25603,-0.02787 2.00002,-0.02952c0.83941,-0.00185 1.64233,0.0042 2.19782,0.01004c0.21472,1.71673 -0.21,3.69687 -0.19043,5.2984c-0.6949,0.0244 -1.37809,0.04131 -2.20326,0.04488c-0.60266,0.00267 -1.20028,-0.0041 -1.77823,-0.01845c-0.02787,-0.00073 -0.05084,-0.00185 -0.07749,-0.00287c-0.17372,-1.09113 0.07841,-2.2092 0.06908,-3.30341c-0.0041,-0.53982 0.02685,-1.30697 -0.01752,-1.9991z" fill="#42b5e8" stroke="none" stroke-width="0.4292" stroke-linecap="butt"/><path d="M208.80073,128.81081c0.53819,-0.01373 1.25603,-0.02787 2.00002,-0.02952c0.83941,-0.00185 1.64233,0.0042 2.19782,0.01004c0.21472,1.71673 -0.21,3.69687 -0.19043,5.2984c-0.6949,0.0244 -1.37809,0.04131 -2.20326,0.04488c-0.60266,0.00267 -1.20028,-0.0041 -1.77823,-0.01845c-0.02787,-0.00073 -0.05084,-0.00185 -0.07749,-0.00287c-0.17372,-1.09113 0.07841,-2.2092 0.06908,-3.30341c-0.0041,-0.53982 0.02685,-1.30697 -0.01752,-1.9991z" fill="#42b5e8" stroke="none" stroke-width="0.4292" stroke-linecap="butt"/><path d="M213.86237,103.81784c0.18613,0.08784 0.21318,0.19299 0.14881,0.2839c-0.52405,9.76385 -0.22322,22.18756 -0.63216,31.9059c-0.00051,0.01086 -0.00707,0.01866 -0.01066,0.02829c0,0.00605 0.00102,0.01456 0.00102,0.01774c-0.09501,0.49637 -1.79401,0.51338 -2.41778,0.51697c-0.82279,0.0044 -2.43642,-0.07236 -2.75754,-0.6168c-0.00308,-0.00491 -0.00153,-0.01322 -0.00195,-0.01998c-0.01395,-0.01619 -0.03086,-0.03208 -0.03229,-0.04765c-0.21636,-5.66829 -0.44583,-11.30174 -0.42041,-16.94553c0.01978,-4.12221 -0.01732,-10.85384 0.17588,-14.97431c0.01147,-0.22917 0.2924,-0.35451 0.59886,-0.37952c0.54269,-0.21287 1.57509,-0.26186 2.05239,-0.27406c1.12977,-0.02838 2.43827,0.09963 3.29581,0.50507zM209.29505,104.054c-0.08128,1.53706 -0.13826,3.14546 -0.177,4.80111c-0.20293,8.71403 0.10454,18.75942 0.0615,26.88792c0.55982,0.11725 1.11028,0.19627 1.77556,0.20693c0.48632,0.00758 0.96834,-0.03218 1.43396,-0.11049c0.02255,-0.0044 0.04099,-0.01035 0.06252,-0.01579c0.15897,-5.53916 -0.02481,-11.21103 0.00175,-16.76402c0.0122,-2.7397 0.00051,-6.63273 0.04879,-10.14573c0.02367,-1.77034 0.06303,-3.44443 0.12811,-4.8254c-0.62161,-0.1606 -1.40926,-0.18295 -2.06356,-0.18028c-0.41786,0.00277 -0.84904,0.08527 -1.27161,0.14575z" fill="#231f20" stroke="none" stroke-width="0.38875" stroke-linecap="butt"/><path d="M210.33504,90.08196c0.01681,-0.2673 -0.25459,-0.72073 0.12012,0c1.51913,2.90062 3.25092,5.90556 4.20318,8.99773c0.25459,0.81778 -0.17895,1.76655 -0.72051,2.5835c-0.53921,0.71006 -1.19854,1.80487 -2.40189,1.8263c-1.2633,0.02143 -2.23493,-1.06992 -2.70209,-1.91536c-0.76253,-1.05566 -1.02317,-2.32697 -0.78058,-3.47436c0.31466,-1.49043 1.75702,-2.88288 2.16164,-4.23166c0.37235,-1.23564 0.06129,-2.72515 0.12012,-3.78613z" fill="#ff9400" stroke="#000000" stroke-width="1" stroke-linecap="round"/><path d="M210.98513,99.44966c0.12269,-0.1362 0.13273,-0.2099 0.20867,-0.12391c0.32725,0.62181 0.67121,1.25839 0.75137,1.81143c0.05339,0.3827 -0.19535,0.75485 -0.29384,1.127c-0.11192,0.4484 0.0701,1.48316 -0.24875,1.52036c-0.35738,-0.0372 -0.89834,-1.04039 -1.16707,-1.52036c-0.19792,-0.35042 -0.37738,-0.74615 -0.29384,-1.127c0.12852,-0.54813 0.60686,-1.1723 1.04346,-1.68752z" fill="#ffff99" stroke="none" stroke-width="0.71711" stroke-linecap="round"/><path d="M226.41081,134.8823c-0.4321,-0.42688 -1.00924,-0.85057 -1.60901,-0.8519c-0.67675,-0.00153 -1.32512,0.26361 -1.77393,0.5015c0.07686,-11.01804 0.17085,-21.72266 0.28749,-31.95284c0.42401,-0.40761 0.85713,-0.96239 1.27458,-0.98227c0.65441,-0.02787 1.44154,0.11059 2.05946,1.17332c-0.09635,9.18969 -0.17413,20.33236 -0.2386,32.11221z" fill="#ffffff" stroke="none" stroke-width="1.24326" stroke-linecap="butt"/><path d="M227.01306,116.35809c-0.04437,0.69213 -0.01343,1.45927 -0.01752,1.9991c-0.00933,1.0942 0.2428,2.21228 0.06908,3.30341c-0.02665,0.00102 -0.0496,0.00216 -0.07749,0.00287c-0.57795,0.01434 -1.17558,0.02112 -1.77823,0.01845c-0.82515,-0.00359 -1.50836,-0.02051 -2.20326,-0.04488c0.01958,-1.60153 -0.40515,-3.58167 -0.19043,-5.2984c0.5555,-0.00584 1.35843,-0.01188 2.19782,-0.01004c0.74399,0.00163 1.46183,0.01579 2.00002,0.02952z" fill="#42b5e8" stroke="none" stroke-width="0.4292" stroke-linecap="butt"/><path d="M226.75682,106.67265c-0.04437,0.69213 -0.01343,1.45927 -0.01752,1.9991c-0.00933,1.0942 0.2428,2.21228 0.06908,3.30341c-0.02665,0.00102 -0.0496,0.00216 -0.07749,0.00287c-0.57795,0.01434 -1.17558,0.02112 -1.77823,0.01845c-0.82515,-0.00359 -1.50836,-0.02051 -2.20326,-0.04488c0.01958,-1.60153 -0.40515,-3.58167 -0.19043,-5.2984c0.5555,-0.00584 1.35843,-0.01188 2.19782,-0.01004c0.74399,0.00163 1.46183,0.01579 2.00002,0.02952z" fill="#42b5e8" stroke="none" stroke-width="0.4292" stroke-linecap="butt"/><path d="M227.01306,127.01721c-0.04437,0.69213 -0.01343,1.45927 -0.01752,1.9991c-0.00933,1.0942 0.2428,2.21228 0.06908,3.30341c-0.02665,0.00102 -0.0496,0.00216 -0.07749,0.00287c-0.57795,0.01434 -1.17558,0.02112 -1.77823,0.01845c-0.82515,-0.00359 -1.50836,-0.02051 -2.20326,-0.04488c0.01958,-1.60153 -0.40515,-3.58167 -0.19043,-5.2984c0.5555,-0.00584 1.35843,-0.01188 2.19782,-0.01004c0.74399,0.00163 1.46183,0.01579 2.00002,0.02952z" fill="#42b5e8" stroke="none" stroke-width="0.4292" stroke-linecap="butt"/><path d="M227.95495,102.12676c0.18613,0.08784 0.21318,0.19299 0.14881,0.2839c-0.52405,9.76385 -0.22322,22.18756 -0.63216,31.9059c-0.00051,0.01086 -0.00707,0.01866 -0.01066,0.02829c0,0.00605 0.00102,0.01456 0.00102,0.01774c-0.09501,0.49637 -1.79401,0.51338 -2.41778,0.51697c-0.82279,0.0044 -2.43642,-0.07236 -2.75754,-0.6168c-0.00308,-0.00491 -0.00153,-0.01322 -0.00195,-0.01998c-0.01395,-0.01619 -0.03086,-0.03208 -0.03229,-0.04765c-0.21636,-5.66829 -0.44583,-11.30174 -0.42041,-16.94553c0.01978,-4.12221 -0.01732,-10.85384 0.17588,-14.97431c0.01147,-0.22917 0.2924,-0.35451 0.59886,-0.37952c0.54269,-0.21287 1.57509,-0.26186 2.05239,-0.27406c1.12977,-0.02838 2.43827,0.09963 3.29581,0.50507zM223.38763,102.36288c-0.08128,1.53706 -0.13826,3.14546 -0.177,4.80111c-0.20293,8.71403 0.10454,18.75942 0.0615,26.88792c0.55982,0.11725 1.11028,0.19627 1.77556,0.20693c0.48632,0.00758 0.96834,-0.03218 1.43396,-0.11049c0.02255,-0.0044 0.04099,-0.01035 0.06252,-0.01579c0.15897,-5.53916 -0.02481,-11.21103 0.00175,-16.76402c0.0122,-2.7397 0.00051,-6.63273 0.04879,-10.14573c0.02367,-1.77034 0.06303,-3.44443 0.12811,-4.8254c-0.62161,-0.1606 -1.40926,-0.18295 -2.06356,-0.18028c-0.41786,0.00277 -0.84904,0.08527 -1.27161,0.14575z" fill="#231f20" stroke="none" stroke-width="0.38875" stroke-linecap="butt"/><path d="M225.85561,92.07982c0.41591,1.38599 1.89794,2.81688 2.22129,4.3484c0.24926,1.17905 -0.01854,2.48541 -0.80209,3.5702c-0.48007,0.86872 -1.47845,1.99018 -2.77669,1.96814c-1.23645,-0.02194 -1.91392,-1.14698 -2.4681,-1.87662c-0.55654,-0.83941 -1.00205,-1.81441 -0.74039,-2.65473c0.97858,-3.17754 2.75815,-6.26531 4.31919,-9.24595c0.38506,-0.74061 0.10607,-0.27468 0.1234,0c0.06046,1.09031 -0.2592,2.62091 0.1234,3.89057z" fill="#ff9400" stroke="#000000" stroke-width="1" stroke-linecap="round"/><path d="M226.02586,99.44608c0.08352,0.38085 -0.09593,0.77657 -0.29384,1.127c-0.26873,0.47997 -0.80969,1.48316 -1.16707,1.52036c-0.31886,-0.0372 -0.13683,-1.07196 -0.24875,-1.52036c-0.09849,-0.37215 -0.34724,-0.7443 -0.29384,-1.127c0.08014,-0.55304 0.42411,-1.18962 0.75137,-1.81143c0.07594,-0.08599 0.08599,-0.0123 0.20867,0.12391c0.43662,0.51523 0.91494,1.13939 1.04346,1.68752z" fill="#ffff99" stroke="none" stroke-width="0.71711" stroke-linecap="round"/><path d="M238.45931,134.2161c-0.06447,-11.77986 -0.14225,-22.92253 -0.2386,-32.11221c0.61792,-1.06273 1.40506,-1.20121 2.05946,-1.17332c0.41745,0.01988 0.85057,0.57467 1.27458,0.98227c0.11664,10.23019 0.21063,20.93481 0.28749,31.95284c-0.44881,-0.23787 -1.09716,-0.50303 -1.77393,-0.5015c-0.59979,0.00134 -1.17691,0.42503 -1.60901,0.8519z" fill="#ffffff" stroke="none" stroke-width="1.24326" stroke-linecap="butt"/><path d="M237.90831,115.74315c0.53819,-0.01373 1.25603,-0.02787 2.00002,-0.02952c0.83941,-0.00185 1.64233,0.0042 2.19782,0.01004c0.21472,1.71673 -0.21,3.69687 -0.19043,5.2984c-0.6949,0.0244 -1.37809,0.04131 -2.20326,0.04488c-0.60266,0.00267 -1.20028,-0.0041 -1.77823,-0.01845c-0.02787,-0.00073 -0.05084,-0.00185 -0.07749,-0.00287c-0.17372,-1.09113 0.07841,-2.2092 0.06908,-3.30341c-0.0041,-0.53982 0.02685,-1.30697 -0.01752,-1.9991z" fill="#42b5e8" stroke="none" stroke-width="0.4292" stroke-linecap="butt"/><path d="M238.16453,105.90397c0.53819,-0.01373 1.25603,-0.02787 2.00002,-0.02952c0.83941,-0.00185 1.64233,0.0042 2.19782,0.01004c0.21472,1.71673 -0.21,3.69687 -0.19043,5.2984c-0.6949,0.0244 -1.37809,0.04131 -2.20326,0.04488c-0.60266,0.00267 -1.20028,-0.0041 -1.77823,-0.01845c-0.02787,-0.00073 -0.05084,-0.00185 -0.07749,-0.00287c-0.17372,-1.09113 0.07841,-2.2092 0.06908,-3.30341c-0.0041,-0.53982 0.02685,-1.30697 -0.01752,-1.9991z" fill="#42b5e8" stroke="none" stroke-width="0.4292" stroke-linecap="butt"/><path d="M237.85706,126.40226c0.53819,-0.01373 1.25603,-0.02787 2.00002,-0.02952c0.83941,-0.00185 1.64233,0.0042 2.19782,0.01004c0.21472,1.71673 -0.21,3.69687 -0.19043,5.2984c-0.6949,0.0244 -1.37809,0.04131 -2.20326,0.04488c-0.60266,0.00267 -1.20028,-0.0041 -1.77823,-0.01845c-0.02787,-0.00073 -0.05084,-0.00185 -0.07749,-0.00287c-0.17372,-1.09113 0.07841,-2.2092 0.06908,-3.30341c-0.0041,-0.53982 0.02685,-1.30697 -0.01752,-1.9991z" fill="#42b5e8" stroke="none" stroke-width="0.4292" stroke-linecap="butt"/><path d="M242.91871,101.40931c0.18613,0.08784 0.21318,0.19299 0.14881,0.2839c-0.52405,9.76385 -0.22322,22.18756 -0.63216,31.9059c-0.00051,0.01086 -0.00707,0.01866 -0.01066,0.02829c0,0.00605 0.00102,0.01456 0.00102,0.01774c-0.09501,0.49637 -1.79401,0.51338 -2.41778,0.51697c-0.82279,0.0044 -2.43642,-0.07236 -2.75754,-0.6168c-0.00308,-0.00491 -0.00153,-0.01322 -0.00195,-0.01998c-0.01395,-0.01619 -0.03086,-0.03208 -0.03229,-0.04765c-0.21636,-5.66829 -0.44583,-11.30174 -0.42041,-16.94553c0.01978,-4.12221 -0.01732,-10.85384 0.17588,-14.97431c0.01147,-0.22917 0.2924,-0.35451 0.59886,-0.37952c0.54269,-0.21287 1.57509,-0.26186 2.05239,-0.27406c1.12977,-0.02838 2.43827,0.09963 3.29581,0.50507zM238.35137,101.64545c-0.08128,1.53706 -0.13826,3.14546 -0.177,4.80111c-0.20293,8.71403 0.10454,18.75942 0.0615,26.88792c0.55982,0.11725 1.11028,0.19627 1.77556,0.20693c0.48632,0.00758 0.96834,-0.03218 1.43396,-0.11049c0.02255,-0.0044 0.04099,-0.01035 0.06252,-0.01579c0.15897,-5.53916 -0.02481,-11.21103 0.00175,-16.76402c0.0122,-2.7397 0.00051,-6.63273 0.04879,-10.14573c0.02367,-1.77034 0.06303,-3.44443 0.12811,-4.8254c-0.62161,-0.1606 -1.40926,-0.18295 -2.06356,-0.18028c-0.41786,0.00277 -0.84904,0.08527 -1.27161,0.14575z" fill="#231f20" stroke="none" stroke-width="0.38875" stroke-linecap="butt"/><path d="M239.23731,87.49456c0.01774,-0.28217 -0.26883,-0.7609 0.12678,0c1.60389,3.06234 3.43213,6.23477 4.43746,9.49932c0.26883,0.86339 -0.18889,1.86503 -0.76068,2.72751c-0.56924,0.74962 -1.26526,1.90552 -2.53574,1.92807c-1.33372,0.02255 -2.35946,-1.12955 -2.85265,-2.02216c-0.80507,-1.11449 -1.08027,-2.45661 -0.82413,-3.66796c0.33218,-1.57356 1.8549,-3.04359 2.28218,-4.4675c0.39305,-1.30451 0.06467,-2.87704 0.12678,-3.99727z" fill="#ff9400" stroke="#000000" stroke-width="1" stroke-linecap="round"/><path d="M239.88772,97.14361c0.12269,-0.1362 0.13273,-0.2099 0.20867,-0.12391c0.32725,0.62181 0.67121,1.25839 0.75137,1.81143c0.05339,0.3827 -0.19535,0.75485 -0.29384,1.127c-0.11192,0.4484 0.0701,1.48316 -0.24875,1.52036c-0.35738,-0.0372 -0.89834,-1.04039 -1.16707,-1.52036c-0.19792,-0.35042 -0.37738,-0.74615 -0.29384,-1.127c0.12852,-0.54813 0.60686,-1.1723 1.04346,-1.68752z" fill="#ffff99" stroke="none" stroke-width="0.71711" stroke-linecap="round"/><path d="M253.78178,135.29226c-0.06447,-11.77986 -0.14225,-22.92253 -0.2386,-32.11221c0.61792,-1.06273 1.40506,-1.20121 2.05946,-1.17332c0.41745,0.01988 0.85057,0.57467 1.27458,0.98227c0.11664,10.23019 0.21063,20.93481 0.28749,31.95284c-0.44881,-0.23787 -1.09716,-0.50303 -1.77393,-0.5015c-0.59979,0.00134 -1.17691,0.42503 -1.60901,0.8519z" fill="#ffffff" stroke="none" stroke-width="1.24326" stroke-linecap="butt"/><path d="M253.12829,116.76807c0.53819,-0.01373 1.25603,-0.02787 2.00002,-0.02952c0.83941,-0.00185 1.64233,0.0042 2.19782,0.01004c0.21472,1.71673 -0.21,3.69687 -0.19043,5.2984c-0.6949,0.0244 -1.37809,0.04131 -2.20326,0.04488c-0.60266,0.00267 -1.20028,-0.0041 -1.77823,-0.01845c-0.02787,-0.00073 -0.05084,-0.00185 -0.07749,-0.00287c-0.17372,-1.09113 0.07841,-2.2092 0.06908,-3.30341c-0.0041,-0.53982 0.02685,-1.30697 -0.01752,-1.9991z" fill="#42b5e8" stroke="none" stroke-width="0.4292" stroke-linecap="butt"/><path d="M253.38451,107.03138c0.53819,-0.01373 1.25603,-0.02787 2.00002,-0.02952c0.83941,-0.00185 1.64233,0.0042 2.19782,0.01004c0.21472,1.71673 -0.21,3.69687 -0.19043,5.2984c-0.6949,0.0244 -1.37809,0.04131 -2.20326,0.04488c-0.60266,0.00267 -1.20028,-0.0041 -1.77823,-0.01845c-0.02787,-0.00073 -0.05084,-0.00185 -0.07749,-0.00287c-0.17372,-1.09113 0.07841,-2.2092 0.06908,-3.30341c-0.0041,-0.53982 0.02685,-1.30697 -0.01752,-1.9991z" fill="#42b5e8" stroke="none" stroke-width="0.4292" stroke-linecap="butt"/><path d="M253.12829,127.42717c0.53819,-0.01373 1.25603,-0.02787 2.00002,-0.02952c0.83941,-0.00185 1.64233,0.0042 2.19782,0.01004c0.21472,1.71673 -0.21,3.69687 -0.19043,5.2984c-0.6949,0.0244 -1.37809,0.04131 -2.20326,0.04488c-0.60266,0.00267 -1.20028,-0.0041 -1.77823,-0.01845c-0.02787,-0.00073 -0.05084,-0.00185 -0.07749,-0.00287c-0.17372,-1.09113 0.07841,-2.2092 0.06908,-3.30341c-0.0041,-0.53982 0.02685,-1.30697 -0.01752,-1.9991z" fill="#42b5e8" stroke="none" stroke-width="0.4292" stroke-linecap="butt"/><path d="M258.18994,102.5367c0.18613,0.08784 0.21318,0.19299 0.14881,0.2839c-0.52405,9.76385 -0.22322,22.18756 -0.63216,31.9059c-0.00051,0.01086 -0.00707,0.01866 -0.01066,0.02829c0,0.00605 0.00102,0.01456 0.00102,0.01774c-0.09501,0.49637 -1.79401,0.51338 -2.41778,0.51697c-0.82279,0.0044 -2.43642,-0.07236 -2.75754,-0.6168c-0.00308,-0.00491 -0.00153,-0.01322 -0.00195,-0.01998c-0.01395,-0.01619 -0.03086,-0.03208 -0.03229,-0.04765c-0.21636,-5.66829 -0.44583,-11.30174 -0.42041,-16.94553c0.01978,-4.12221 -0.01732,-10.85384 0.17588,-14.97431c0.01147,-0.22917 0.2924,-0.35451 0.59886,-0.37952c0.54269,-0.21287 1.57509,-0.26186 2.05239,-0.27406c1.12977,-0.02838 2.43827,0.09963 3.29581,0.50507zM253.6226,102.77285c-0.08128,1.53706 -0.13826,3.14546 -0.177,4.80111c-0.20293,8.71403 0.10454,18.75942 0.0615,26.88792c0.55982,0.11725 1.11028,0.19627 1.77556,0.20693c0.48632,0.00758 0.96834,-0.03218 1.43396,-0.11049c0.02255,-0.0044 0.04099,-0.01035 0.06252,-0.01579c0.15897,-5.53916 -0.02481,-11.21103 0.00175,-16.76402c0.0122,-2.7397 0.00051,-6.63273 0.04879,-10.14573c0.02367,-1.77034 0.06303,-3.44443 0.12811,-4.8254c-0.62161,-0.1606 -1.40926,-0.18295 -2.06356,-0.18028c-0.41786,0.00277 -0.84904,0.08527 -1.27161,0.14575z" fill="#231f20" stroke="none" stroke-width="0.38875" stroke-linecap="butt"/><path d="M254.31483,89.36974c0.0167,-0.26669 -0.25398,-0.71898 0.11982,0c1.51543,2.89364 3.24293,5.89122 4.19303,8.97589c0.25398,0.81584 -0.17853,1.76234 -0.71888,2.57726c-0.53788,0.70832 -1.19557,1.80047 -2.39594,1.82178c-1.26033,0.02143 -2.2295,-1.06725 -2.69553,-1.91064c-0.7608,-1.0531 -1.02071,-2.32133 -0.77873,-3.46595c0.31383,-1.48684 1.7527,-2.87591 2.15641,-4.22131c0.37133,-1.23266 0.06109,-2.71859 0.11982,-3.77701z" fill="#ff9400" stroke="#000000" stroke-width="1" stroke-linecap="round"/><path d="M255.1077,98.16852c0.12269,-0.1362 0.13273,-0.2099 0.20867,-0.12391c0.32725,0.62181 0.67121,1.25839 0.75137,1.81143c0.05339,0.3827 -0.19535,0.75485 -0.29384,1.127c-0.11192,0.4484 0.0701,1.48316 -0.24875,1.52036c-0.35738,-0.0372 -0.89834,-1.04039 -1.16707,-1.52036c-0.19792,-0.35042 -0.37738,-0.74615 -0.29384,-1.127c0.12852,-0.54813 0.60686,-1.1723 1.04346,-1.68752z" fill="#ffff99" stroke="none" stroke-width="0.71711" stroke-linecap="round"/><path d="M270.73838,136.41968c-0.4321,-0.42688 -1.00924,-0.85057 -1.60901,-0.8519c-0.67675,-0.00153 -1.32512,0.26361 -1.77393,0.5015c0.07686,-11.01804 0.17085,-21.72266 0.28749,-31.95284c0.42401,-0.40761 0.85713,-0.96239 1.27458,-0.98227c0.65441,-0.02787 1.44154,0.11059 2.05946,1.17332c-0.09635,9.18969 -0.17413,20.33236 -0.2386,32.11221z" fill="#ffffff" stroke="none" stroke-width="1.24326" stroke-linecap="butt"/><path d="M271.28937,117.94671c-0.04437,0.69213 -0.01343,1.45927 -0.01752,1.9991c-0.00933,1.0942 0.2428,2.21228 0.06908,3.30341c-0.02665,0.00102 -0.0496,0.00216 -0.07749,0.00287c-0.57795,0.01434 -1.17558,0.02112 -1.77823,0.01845c-0.82515,-0.00359 -1.50836,-0.02051 -2.20326,-0.04488c0.01958,-1.60153 -0.40515,-3.58167 -0.19043,-5.2984c0.5555,-0.00584 1.35843,-0.01188 2.19782,-0.01004c0.74399,0.00163 1.46183,0.01579 2.00002,0.02952z" fill="#42b5e8" stroke="none" stroke-width="0.4292" stroke-linecap="butt"/><path d="M271.03313,108.15878c-0.04437,0.69213 -0.01343,1.45927 -0.01752,1.9991c-0.00933,1.0942 0.2428,2.21228 0.06908,3.30341c-0.02665,0.00102 -0.0496,0.00216 -0.07749,0.00287c-0.57795,0.01434 -1.17558,0.02112 -1.77823,0.01845c-0.82515,-0.00359 -1.50836,-0.02051 -2.20326,-0.04488c0.01958,-1.60153 -0.40515,-3.58167 -0.19043,-5.2984c0.5555,-0.00584 1.35843,-0.01188 2.19782,-0.01004c0.74399,0.00163 1.46183,0.01579 2.00002,0.02952z" fill="#42b5e8" stroke="none" stroke-width="0.4292" stroke-linecap="butt"/><path d="M271.4431,128.55459c-0.04437,0.69213 -0.01343,1.45927 -0.01752,1.9991c-0.00933,1.0942 0.2428,2.21228 0.06908,3.30341c-0.02665,0.00102 -0.0496,0.00216 -0.07749,0.00287c-0.57795,0.01434 -1.17558,0.02112 -1.77823,0.01845c-0.82515,-0.00359 -1.50836,-0.02051 -2.20326,-0.04488c0.01958,-1.60153 -0.40515,-3.58167 -0.19043,-5.2984c0.5555,-0.00584 1.35843,-0.01188 2.19782,-0.01004c0.74399,0.00163 1.46183,0.01579 2.00002,0.02952z" fill="#42b5e8" stroke="none" stroke-width="0.4292" stroke-linecap="butt"/><path d="M272.28251,103.66412c0.18613,0.08784 0.21318,0.19299 0.14881,0.2839c-0.52405,9.76385 -0.22322,22.18756 -0.63216,31.9059c-0.00051,0.01086 -0.00707,0.01866 -0.01066,0.02829c0,0.00605 0.00102,0.01456 0.00102,0.01774c-0.09501,0.49637 -1.79401,0.51338 -2.41778,0.51697c-0.82279,0.0044 -2.43642,-0.07236 -2.75754,-0.6168c-0.00308,-0.00491 -0.00153,-0.01322 -0.00195,-0.01998c-0.01395,-0.01619 -0.03086,-0.03208 -0.03229,-0.04765c-0.21636,-5.66829 -0.44583,-11.30174 -0.42041,-16.94553c0.01978,-4.12221 -0.01732,-10.85384 0.17588,-14.97431c0.01147,-0.22917 0.2924,-0.35451 0.59886,-0.37952c0.54269,-0.21287 1.57509,-0.26186 2.05239,-0.27406c1.12977,-0.02838 2.43827,0.09963 3.29581,0.50507zM267.71519,103.90026c-0.08128,1.53706 -0.13826,3.14546 -0.177,4.80111c-0.20293,8.71403 0.10454,18.75942 0.0615,26.88792c0.55982,0.11725 1.11028,0.19627 1.77556,0.20693c0.48632,0.00758 0.96834,-0.03218 1.43396,-0.11049c0.02255,-0.0044 0.04099,-0.01035 0.06252,-0.01579c0.15897,-5.53916 -0.02481,-11.21103 0.00175,-16.76402c0.0122,-2.7397 0.00051,-6.63273 0.04879,-10.14573c0.02367,-1.77034 0.06303,-3.44443 0.12811,-4.8254c-0.62161,-0.1606 -1.40926,-0.18295 -2.06356,-0.18028c-0.41786,0.00277 -0.84904,0.08527 -1.27161,0.14575z" fill="#231f20" stroke="none" stroke-width="0.38875" stroke-linecap="butt"/><path d="M268.7492,90.5733c0.0167,-0.26657 -0.25398,-0.71888 0.1197,0c1.51524,2.89303 3.24232,5.88998 4.1922,8.97394c0.25386,0.81572 -0.17843,1.76193 -0.71867,2.57673c-0.53778,0.70812 -1.19536,1.80016 -2.39553,1.82149c-1.26004,0.02131 -2.22899,-1.06715 -2.69492,-1.91033c-0.76059,-1.05289 -1.02051,-2.32082 -0.77852,-3.46524c0.31373,-1.48644 1.7523,-2.8752 2.1559,-4.22039c0.37133,-1.23236 0.06109,-2.71798 0.11982,-3.77619z" fill="#ff9400" stroke="#000000" stroke-width="1" stroke-linecap="round"/><path d="M269.45651,99.19344c0.12269,-0.1362 0.13273,-0.2099 0.20867,-0.12391c0.32725,0.62181 0.67121,1.25839 0.75137,1.81143c0.05339,0.3827 -0.19535,0.75485 -0.29384,1.127c-0.11192,0.4484 0.0701,1.48316 -0.24875,1.52036c-0.35738,-0.0372 -0.89834,-1.04039 -1.16707,-1.52036c-0.19792,-0.35042 -0.37738,-0.74615 -0.29384,-1.127c0.12852,-0.54813 0.60686,-1.1723 1.04346,-1.68752z" fill="#ffff99" stroke="none" stroke-width="0.71711" stroke-linecap="round"/></g></g></svg>