<svg version="1.1" xmlns="http://www.w3.org/2000/svg" xmlns:xlink="http://www.w3.org/1999/xlink" width="110.35" height="63.69158" viewBox="0,0,110.35,63.69158"><g transform="translate(-189.13059,-117.03797)"><g data-paper-data="{&quot;isPaintingLayer&quot;:true}" fill-rule="nonzero" stroke-linejoin="miter" stroke-miterlimit="10" stroke-dasharray="" stroke-dashoffset="0" style="mix-blend-mode: normal"><path d="M241.33718,119.10907c13.78893,0 24.02393,3.46216 35.33142,9.41559c5.37322,2.83567 10.49655,7.91671 13.4807,15.16268c2.36282,5.79415 3.63951,14.24479 1.50715,20.10263c-2.46588,6.77419 -8.16484,9.81465 -13.02952,11.53056c-11.12955,3.90828 -22.75889,4.49082 -34.17822,4.02048c-12.85645,0.01069 -25.91905,-0.40654 -38.44295,-5.395c-4.73341,-1.88442 -8.95246,-7.46456 -11.77908,-13.64551c-1.81344,-4.12677 -3.19224,-11.09514 -1.50715,-16.08213c2.81301,-7.14738 7.86633,-12.67598 13.28623,-15.69369c11.24332,-6.22501 21.54248,-9.41559 35.33142,-9.41559z" data-paper-data="{&quot;origPos&quot;:null}" fill="#a85b00" stroke="#000000" stroke-width="2.5" stroke-linecap="round"/><path d="M241.20232,119.21155c13.79574,0 23.9689,0.6153 35.34805,5.19101c5.29339,2.13092 12.76252,7.35206 12.56698,13.7201c0.19554,6.15306 -7.65408,9.81192 -12.56698,11.32208c-11.63246,3.57388 -23.57421,4.42762 -35.63274,4.23168c-12.08878,0.00273 -24.7109,-1.49781 -36.67161,-5.54999c-3.98412,-1.34438 -10.05171,-4.81412 -9.53558,-10.00376c0.28839,-6.67229 6.34946,-11.81671 11.14385,-13.7201c11.40561,-4.52505 21.5523,-5.19101 35.34805,-5.19101z" data-paper-data="{&quot;origPos&quot;:null}" fill="#a85b00" stroke="#703d00" stroke-width="2.4183" stroke-linecap="round"/><path d="M244.28662,119.50073c20.57043,-0.02557 25.19366,3.82008 37.1925,7.11442c5.64159,1.54993 12.07274,5.26238 14.0505,10.55003c2.75371,7.37044 2.56021,20.29398 -1.02098,23.57956c-2.53882,2.33463 -6.58478,-10.94676 -11.03621,-11.52239c-2.81692,-0.66413 -0.42589,7.47157 -3.50046,9.04288c-4.18112,2.11389 -11.71103,-4.44171 -14.0505,-1.02098c-2.65063,3.88455 5.18459,10.23596 3.50046,15.07148c-0.82942,3.13875 -7.16332,5.10193 -9.04288,2.52811c-3.58216,-4.91039 0.52508,-12.83021 -2.52811,-18.08576c-1.60341,-2.76635 -6.66257,-2.89276 -9.04288,-1.02098c-4.47379,3.53062 -3.95553,11.31528 -8.50808,14.5853c-2.43574,1.74732 -6.3028,0.52508 -8.5567,-1.02098c-5.69799,-4.81509 -7.12444,-15.74241 -14.0505,-17.06481c-5.22542,-1.00443 -7.99371,12.59586 -11.57099,11.03621c-4.04207,-1.78136 0.49201,-15.3165 -3.01429,-18.57194c-2.16737,-2.00305 -6.31058,9.62825 -8.50808,8.02191c-2.5534,-2.17126 -2.85483,-10.71144 -1.02098,-15.55765c1.9136,-4.90067 6.37475,-9.44738 11.43294,-10.8534c12.6474,-3.51118 10.57142,-5.31721 39.27528,-6.81103z" data-paper-data="{&quot;origPos&quot;:null}" fill="#703d00" stroke="#703d00" stroke-width="1.99513" stroke-linecap="round"/><path d="M242.26091,118.35343c12.4675,0.30707 25.23451,1.0303 37.1925,4.65125c6.19389,1.88053 13.89395,5.7256 16.72448,12.10346c3.03569,6.97489 2.84219,20.24867 -1.50715,23.60659c-3.01429,2.21861 -7.76619,-11.66629 -13.224,-12.4535c-3.00165,-0.46215 -0.42589,7.68616 -3.50046,9.3026c-4.18112,2.17457 -11.71103,-4.56928 -14.0505,-1.05034c-2.65063,3.99617 5.18459,10.52999 3.50046,15.50436c-0.82942,3.2289 -7.16332,5.24847 -9.04288,2.60076c-3.58216,-5.05147 0.52508,-13.19872 -2.52811,-18.6052c-1.60341,-2.84578 -6.66257,-2.97589 -9.04288,-1.05034c-4.47379,3.63203 -3.95553,11.64024 -8.50808,15.00418c-2.43574,1.79749 -6.3028,0.54015 -8.5567,-1.05023c-5.69799,-4.95337 -7.12444,-16.19454 -14.0505,-17.55496c-5.22542,-1.03322 -7.99371,12.95768 -11.57099,11.35319c-4.04207,-1.8325 0.49201,-15.75641 -3.01429,-19.10538c-2.16737,-2.06052 -6.31058,9.90477 -8.50808,8.25237c-2.5534,-2.23359 -2.85483,-11.01909 -1.02098,-16.00444c1.9136,-5.04145 6.37475,-9.71877 11.43294,-11.16514c12.6474,-3.61199 26.12907,-4.13619 39.27528,-4.33923z" fill="#ddc6d2" stroke="#000000" stroke-width="2.5" stroke-linecap="round"/><path d="M243.59791,129.33773c3.18543,0 6.07234,0.22364 8.1629,0.58438c2.08959,0.36074 3.38379,0.85858 3.38379,1.40893c0,0.55035 -1.29421,1.0482 -3.38379,1.40893c-2.09056,0.36074 -4.97748,0.58438 -8.1629,0.58438c-3.18543,0 -6.07234,-0.22364 -8.1629,-0.58438c-2.08959,-0.36074 -3.38379,-0.85858 -3.38379,-1.40893c0,-0.55035 1.29421,-1.0482 3.38379,-1.40893c2.09056,-0.36074 4.97748,-0.58438 8.1629,-0.58438z" fill="#a85b00" stroke="#703d00" stroke-width="1.99513" stroke-linecap="butt"/><path d="M223.4945,136.7243l-3.01429,6.51477" data-paper-data="{&quot;origPos&quot;:null}" fill="none" stroke="#6148a4" stroke-width="1.99513" stroke-linecap="round"/><path d="M241.09408,121.80199h6.02859" data-paper-data="{&quot;origPos&quot;:null}" fill="none" stroke="#6148a4" stroke-width="1.99513" stroke-linecap="round"/><path d="M244.10839,149.41683l6.02859,-1.99333" data-paper-data="{&quot;origPos&quot;:null}" fill="none" stroke="#6148a4" stroke-width="1.99513" stroke-linecap="round"/><path d="M261.65935,139.88775l5.54242,1.99333" data-paper-data="{&quot;origPos&quot;:null}" fill="none" stroke="#6148a4" stroke-width="1.99513" stroke-linecap="round"/><path d="M212.94448,148.44447l-5.00762,1.99333" data-paper-data="{&quot;origPos&quot;:null}" fill="none" stroke="#6148a4" stroke-width="1.99513" stroke-linecap="round"/><path d="M195.3935,138.71763v-4.03526" data-paper-data="{&quot;origPos&quot;:null}" fill="none" stroke="#6148a4" stroke-width="1.99513" stroke-linecap="round"/><path d="M219.50786,121.31581l4.52144,-0.48618" data-paper-data="{&quot;origPos&quot;:null}" fill="none" stroke="#6148a4" stroke-width="1.99513" stroke-linecap="round"/><path d="M295.83757,141.88108v5.54242" data-paper-data="{&quot;origPos&quot;:null}" fill="none" stroke="#6148a4" stroke-width="1.99513" stroke-linecap="round"/><path d="M266.71559,132.35202h-4.52144" data-paper-data="{&quot;origPos&quot;:null}" fill="none" stroke="#6148a4" stroke-width="1.99513" stroke-linecap="round"/><path d="M261.17319,120.82963h3.01429z" data-paper-data="{&quot;origPos&quot;:null}" fill="none" stroke="#6148a4" stroke-width="1.99513" stroke-linecap="round"/><path d="M221.50118,128.85156l-5.00762,0.97235" data-paper-data="{&quot;origPos&quot;:null}" fill="none" stroke="#9b4976" stroke-width="1.99513" stroke-linecap="round"/><path d="M232.53738,141.88108h6.02859" data-paper-data="{&quot;origPos&quot;:null}" fill="none" stroke="#9b4976" stroke-width="1.99513" stroke-linecap="round"/><path d="M272.20939,131.86584v4.52144" data-paper-data="{&quot;origPos&quot;:null}" fill="none" stroke="#9b4976" stroke-width="1.99513" stroke-linecap="round"/><path d="M252.61647,122.82296l5.05624,3.01429" data-paper-data="{&quot;origPos&quot;:null}" fill="none" stroke="#9b4976" stroke-width="1.99513" stroke-linecap="round"/><path d="M289.80899,145.43017v-5.54242" data-paper-data="{&quot;origPos&quot;:null}" fill="none" stroke="#9b4976" stroke-width="1.99513" stroke-linecap="round"/><path d="M280.76609,128.31676h4.03526" data-paper-data="{&quot;origPos&quot;:null}" fill="none" stroke="#9b4976" stroke-width="1.99513" stroke-linecap="round"/><path d="M201.90827,135.85248l4.52144,-4.52144" data-paper-data="{&quot;origPos&quot;:null}" fill="none" stroke="#9b4976" stroke-width="1.99513" stroke-linecap="round"/><path d="M211.43733,140.90873l-3.98664,0.97235" data-paper-data="{&quot;origPos&quot;:null}" fill="none" stroke="#ffffff" stroke-width="1.99513" stroke-linecap="round"/><path d="M234.57933,126.32343l-4.03526,-3.50046" data-paper-data="{&quot;origPos&quot;:null}" fill="none" stroke="#ffffff" stroke-width="1.99513" stroke-linecap="round"/><path d="M233.40919,157.48735l3.98664,-3.54909" data-paper-data="{&quot;origPos&quot;:null}" fill="none" stroke="#ffffff" stroke-width="1.99513" stroke-linecap="round"/><path d="M254.46064,148.44447l4.03526,3.01429" data-paper-data="{&quot;origPos&quot;:null}" fill="none" stroke="#ffffff" stroke-width="1.99513" stroke-linecap="round"/><path d="M267.05261,151.94494l0.48618,-3.01429z" data-paper-data="{&quot;origPos&quot;:null}" fill="none" stroke="#ffffff" stroke-width="1.99513" stroke-linecap="round"/><path d="M268.02496,124.33012h4.52144" data-paper-data="{&quot;origPos&quot;:null}" fill="none" stroke="#ffffff" stroke-width="1.99513" stroke-linecap="round"/><path d="M280.61693,139.40159l3.98664,-1.02098" data-paper-data="{&quot;origPos&quot;:null}" fill="none" stroke="#ffffff" stroke-width="1.99513" stroke-linecap="round"/><path d="M196.36585,128.85156l5.54242,-2.04193" data-paper-data="{&quot;origPos&quot;:null}" fill="none" stroke="#ffffff" stroke-width="1.99513" stroke-linecap="round"/><path d="M211.77434,127.83058l-1.50715,-3.50046z" data-paper-data="{&quot;origPos&quot;:null}" fill="none" stroke="#ffffff" stroke-width="1.99513" stroke-linecap="round"/><path d="M252.95349,136.38728l0.5348,2.47951z" data-paper-data="{&quot;origPos&quot;:null}" fill="none" stroke="#ffffff" stroke-width="1.99513" stroke-linecap="round"/></g></g></svg>