<svg version="1.1" xmlns="http://www.w3.org/2000/svg" xmlns:xlink="http://www.w3.org/1999/xlink" width="78.43441" height="79.42059" viewBox="0,0,78.43441,79.42059"><g transform="translate(-201.38739,-101.86609)"><g data-paper-data="{&quot;isPaintingLayer&quot;:true}" stroke-linecap="butt" stroke-linejoin="miter" stroke-miterlimit="10" stroke-dasharray="" stroke-dashoffset="0" style="mix-blend-mode: normal"><path d="M238.7248,179.92401c-20.88017,-1.02415 -36.96537,-19.01292 -35.92718,-40.17913c1.03819,-21.1663 18.80659,-37.49459 39.68676,-36.47046c20.88031,1.02415 36.96537,19.01292 35.92718,40.17924c-1.03818,21.16621 -18.80644,37.49449 -39.68676,36.47035z" fill="#4e9a06" fill-rule="evenodd" stroke="#000000" stroke-width="2.72535"/><path d="M275.86049,150.81542c-0.53819,1.22455 -1.1255,2.4358 -1.73863,3.64301c-0.63626,1.32576 -1.34877,2.64027 -2.25751,3.88787c-1.05595,1.60699 -2.38302,3.13093 -3.66008,4.65643c-1.40439,1.57584 -2.86035,3.13823 -4.47721,4.61644c-1.66588,1.39278 -3.36011,2.76266 -5.26629,4.0104c-1.26202,0.92409 -2.72938,1.7104 -4.17817,2.49682c-1.46754,0.90917 -3.12386,1.64647 -4.75909,2.41423c-1.30289,0.57044 -2.3772,1.43498 -3.90773,1.75358c-0.46452,-0.49592 0.80543,-0.52618 1.20546,-0.72445c1.77687,-1.08384 3.76866,-2.00613 5.60911,-3.04791c1.5821,-0.84528 3.10293,-1.77691 4.46494,-2.77991c2.43391,-1.90285 5.01244,-3.7247 7.10966,-5.81111c0.81335,-0.7518 1.50279,-1.54058 2.18216,-2.35157c2.13568,-2.99295 4.08216,-6.02133 5.90655,-9.11218c0.74392,-1.64885 1.4446,-3.33727 2.11724,-5.00241c0.7914,-2.12085 1.46885,-4.26016 1.79822,-6.44984c0.23471,-1.47566 0.13184,-2.98244 -0.36676,-4.44878c-0.82387,-2.74266 -1.54516,-5.49475 -2.75728,-8.18631c-0.29603,-0.91313 -1.03637,-1.73757 -1.58879,-2.59053c-1.46553,-2.09729 -3.00941,-4.19485 -4.6071,-6.25076c-0.83703,-1.13605 -1.92361,-2.18189 -2.88117,-3.27529c-1.29821,-1.52787 -2.87414,-2.94905 -4.50635,-4.32762c-1.95981,-1.77938 -4.45356,-3.23737 -6.78459,-4.79063c-1.89936,-1.19242 -3.76413,-2.41632 -5.67286,-3.60127c0.20931,0.03652 0.41041,0.07125 0.61841,0.11139c2.20011,1.12869 4.32202,2.33262 6.37592,3.58175c1.30635,0.76441 2.50774,1.58402 3.62242,2.47408c2.58679,2.06004 5.12105,4.15602 7.36923,6.38623c1.84587,1.91846 3.4964,3.92951 5.32838,5.85393c1.16854,1.40755 2.38182,2.82126 3.33805,4.29736c0.8732,1.59114 1.67431,3.17646 2.41672,4.7925c0.81412,3.37901 1.18085,6.93285 1.00169,10.58576c-0.12137,2.47455 -0.48061,4.87362 -1.05456,7.18883zM272.39553,141.16252c0.00738,0.24898 0.00665,0.50586 -0.03702,0.75469c-0.18688,1.22662 -0.39551,2.47964 -0.68824,3.69463c-0.36459,1.38566 -0.79954,2.75062 -1.21637,4.12798c-0.85843,2.81403 -2.18595,5.51388 -3.6388,8.1968c-1.31142,2.49405 -3.03425,4.89323 -4.95426,7.18662c-1.0032,1.28666 -2.30279,2.417 -3.45434,3.64c-1.23487,1.05286 -2.48635,2.13225 -3.85711,3.10689c-1.44791,1.04567 -3.0237,2.00125 -4.55342,2.99168c-1.05041,0.63078 -2.01598,1.34875 -3.13616,1.92646c-0.87806,0.41777 -1.54232,0.9701 -2.40826,1.39482c-1.14587,-0.14925 -0.19268,-1.05222 0.48607,-1.16489c1.60169,-0.80705 2.8584,-1.8532 4.23298,-2.81824c1.13918,-0.90664 2.4641,-1.70497 3.56094,-2.6351c1.80871,-1.42095 3.45988,-2.93652 4.82604,-4.57239c2.12083,-2.33763 3.74742,-4.87985 5.20076,-7.44472c1.03906,-1.97137 1.93157,-3.96062 2.44104,-6.0401c0.61754,-2.0609 1.26311,-4.12191 1.66977,-6.21309c0.20953,-1.16052 0.5175,-2.32502 0.83318,-3.47131c0.39162,-1.2048 0.29879,-2.42899 0.21859,-3.66366c-0.27598,-1.66321 -0.41716,-3.33655 -0.88626,-4.98752c-0.4431,-1.59779 -0.65837,-3.22155 -1.16787,-4.81228c-0.54038,-1.74573 -1.52617,-3.44723 -2.55785,-5.09656c-1.51764,-2.66452 -3.15285,-5.28547 -5.07503,-7.84075c-0.6006,-0.85929 -1.36077,-1.6639 -2.14147,-2.45553c-2.09866,-2.21443 -4.44867,-4.32558 -6.82184,-6.41338c-0.59046,-0.56759 -1.32999,-1.0872 -2.14878,-1.51033c-0.20218,-0.04469 -0.33746,-0.12694 -0.45628,-0.23849c0.01559,0.02633 0.02121,0.05751 0.03485,0.08267c2.6814,2.79056 5.30898,5.62546 7.93141,8.4401c1.11916,1.11085 1.97551,2.31364 2.75123,3.53902c1.65218,2.82016 3.01774,5.69283 4.53355,8.54363c0.95157,1.91503 1.24585,3.92801 1.77779,5.89588c0.53846,1.99771 1.03363,4.00361 1.4209,6.01341c0.0005,0.436 0.00526,0.86072 -0.02464,1.29561c-0.1432,2.09121 -0.65122,4.1442 -0.96816,6.22045c-0.19954,1.47589 -0.58035,2.95618 -0.95721,4.41089c-0.51088,2.16948 -1.23731,4.28955 -2.03032,6.4115c-0.7276,1.82651 -1.59072,3.63659 -2.75827,5.34908c-1.49923,2.17392 -2.75325,4.45974 -4.91446,6.37814c-1.38597,1.29622 -2.78351,2.57771 -4.28189,3.81552c-1.64135,1.47008 -3.57242,2.80804 -5.20175,4.28375c-0.16287,0.41352 -0.67447,0.35802 -0.86387,0.11973c-0.7328,0.47425 -1.25287,-0.46096 -0.58535,-0.78523c0.62457,-0.51869 1.03764,-1.14307 1.37372,-1.76976c1.15407,-1.54272 2.54668,-2.98329 3.80781,-4.48718c0.96178,-1.08954 1.94611,-2.18083 2.77568,-3.32204c0.77766,-1.09133 1.52535,-2.17839 2.11303,-3.32748c0.73607,-1.21168 1.0245,-2.53766 1.39643,-3.82198c0.40099,-1.73404 0.95774,-3.45083 1.07476,-5.21555c0.2534,-2.1395 0.48076,-4.27909 0.51043,-6.43205c0.05918,-0.92088 0.12553,-1.82741 0.05708,-2.75296c-0.08223,-1.20435 -0.0394,-2.42477 -0.17299,-3.62877c-0.12515,-1.69119 -0.36145,-3.3906 -0.56977,-5.0801c-0.37774,-2.87783 -0.47467,-5.73891 -0.98148,-8.61256c-0.25521,-1.1738 -0.39949,-2.37892 -0.72289,-3.54764c-0.46308,-1.9309 -1.24611,-3.80902 -2.17862,-5.67238c-1.014,-1.51105 -2.16654,-3.01739 -3.09127,-4.55537c-1.09951,-1.69517 -1.97523,-3.43923 -2.70822,-5.21205c-0.38575,-0.85987 -0.43867,-1.74312 -0.92615,-2.58498c-0.24831,-0.42814 -0.56371,-1.27592 0.30349,-1.41709c0.47535,0.03323 0.72097,0.25682 0.91122,0.50406c0.4463,0.08322 0.78681,0.4164 1.01736,0.72527c-0.15226,-0.30729 -0.03957,-0.64828 0.5778,-0.64703c0.84997,0.08182 1.22265,0.74465 1.73792,1.13891c2.43597,1.72921 4.77276,3.52075 6.90972,5.41802c1.82699,1.63553 3.58316,3.31249 5.21253,5.03771c1.80189,2.07147 3.37183,4.22966 4.87288,6.39884c1.01284,1.3686 1.74617,2.80237 2.52224,4.23031c0.70471,1.43682 1.33023,2.87263 1.89326,4.3346c0.91008,2.09877 1.41751,4.25994 1.83043,6.41171c0.08974,0.74824 0.29749,1.48412 0.3195,2.23102zM251.61155,157.0287c-0.04898,0.71566 -0.13324,1.41296 -0.22115,2.12355c-0.26172,1.47235 -0.53604,2.96223 -0.99629,4.40888c-0.36861,1.28687 -1.24755,2.42832 -2.0485,3.60085c-1.66274,2.19771 -3.63233,4.30049 -5.04175,6.58801c-0.86226,1.60045 -1.39841,3.27326 -2.03538,4.92538c-0.06512,0.00116 -0.13082,0.01657 -0.19593,0.01734c-0.02919,-1.10207 -0.03456,-2.19971 0.04457,-3.29388c0.32996,-1.44036 0.29609,-2.96339 1.10904,-4.32239c0.73638,-1.34601 1.74331,-2.57196 2.72304,-3.83787c0.63247,-0.93664 1.52863,-1.834 1.70148,-2.88841c0.22982,-0.77556 0.07232,-1.58817 -0.00037,-2.37757c-0.18588,-1.29563 -0.13345,-2.59773 -0.47227,-3.8866c-0.17952,-1.42226 -0.62537,-2.82112 -1.11921,-4.21549c-0.20268,-0.73455 -0.47851,-1.44435 -0.86939,-2.14999c-0.32985,-0.85048 -0.55986,-1.73073 -1.20249,-2.51749c-0.8409,-0.75664 -1.40261,-1.64197 -2.10251,-2.45362c-0.38351,-0.6054 -0.8689,-1.18329 -1.04092,-1.83419c-0.11859,-1.437 -0.29738,-2.87448 -0.33441,-4.31215c0.01302,-2.20756 -0.08089,-4.41317 0.09045,-6.61465c0.24129,-2.0209 0.66251,-4.01584 0.95876,-6.03185c0.11586,-0.66236 0.13961,-1.40006 -0.36903,-2.01734c-0.54024,-0.58832 -1.405,-1.06531 -1.66871,-1.75689c-0.32573,-1.07441 -0.11733,-2.17117 0.00312,-3.24192c0.03207,-0.65982 0.25105,-1.28392 0.44532,-1.9234c0.67433,-1.71399 1.54083,-3.4039 2.12385,-5.13704c0.75933,-2.08536 1.1528,-4.19401 1.597,-6.32476c0.19251,-0.39364 0.0683,-0.94629 0.18414,-1.36885c0.0695,-0.25352 0.21507,-0.44534 0.57516,-0.59315c0.86983,0.12024 0.44845,0.96351 0.47719,1.40128c0.08095,0.97392 0.3051,1.93563 0.40316,2.91059c0.23491,1.9203 0.83089,3.8272 1.82849,5.6552c0.83185,1.33486 1.6702,2.66557 2.25795,4.05523c0.57845,1.04548 0.75551,2.15045 1.01112,3.23756c0.41578,1.40818 0.60563,2.85314 0.72615,4.27727c0.17909,3.57446 0.02972,7.13322 0.17678,10.7074c0.19118,2.82053 0.44395,5.67142 0.71439,8.49138c0.45931,2.8536 0.6211,5.68426 0.63397,8.54153c-0.00476,0.71517 -0.01754,1.44242 -0.06695,2.15806zM242.87402,106.18644c-0.22603,0.57847 -0.58051,1.1543 -0.74857,1.74642c-0.42065,1.49914 -1.08474,2.94035 -1.96748,4.33429c-1.0917,1.86325 -2.48332,3.64809 -3.6233,5.4958c-1.37465,2.44449 -2.58908,4.92388 -3.67968,7.43838c-0.44738,1.24239 -0.74645,2.51374 -0.96575,3.78902c-0.48721,2.28182 -0.80808,4.57486 -1.34988,6.85014c-0.50084,1.62945 -0.62747,3.3305 -0.40155,5.00542c0.10578,1.56707 0.23024,3.12931 0.43262,4.69517c0.31362,1.28943 -0.01938,2.57626 -0.07233,3.85988c-0.04372,0.85038 -0.07847,1.7779 0.69537,2.51965c0.63406,0.69298 1.73242,1.08514 2.69339,1.53704c0.79746,0.36501 1.43239,0.89178 1.60153,1.53747c0.29374,1.17568 0.41544,2.36295 0.84092,3.52648c0.07555,0.74001 0.82161,1.27846 1.58964,1.77995c0.78343,0.60153 1.56199,1.22967 2.4078,1.79324c1.29636,0.79304 2.31678,1.76817 2.90098,2.871c0.07939,0.41084 -0.03869,0.84429 -0.40831,1.16871c-0.81646,1.08933 -2.50483,1.74827 -3.26033,2.86596c-0.45677,0.57349 -0.25,1.23918 -0.28701,1.87716c0.23559,1.76646 0.51978,3.57711 0.86907,5.33794c-0.0037,0.59423 0.86714,1.32688 0.02947,1.78458c-0.12897,0.01974 -0.24944,0.02364 -0.35146,0.00971c0.16489,0.22518 0.3434,0.44915 0.51288,0.67357c-0.0389,0.00006 -0.07781,-0.0058 -0.11671,-0.00572c-0.17752,-0.23552 -0.369,-0.46933 -0.55051,-0.70247c-0.43881,-0.14558 -0.58911,-0.60348 -0.73177,-0.98145c-0.41975,-0.54555 -0.83477,-1.07994 -1.2461,-1.62815c-0.23496,-0.2631 -0.47637,-0.52553 -0.70207,-0.79084c-0.93679,-1.00608 -1.81822,-2.03303 -2.65699,-3.07524c-0.80136,-0.71139 -1.74544,-1.35321 -2.59052,-2.04526c-1.32779,-1.09998 -2.65652,-2.19831 -3.77194,-3.40003c-0.68531,-0.59295 -1.16552,-1.27948 -1.65946,-1.94558c-0.75615,-1.00644 -1.21992,-2.08029 -1.75697,-3.1391c-0.78464,-1.81043 -1.64099,-3.61397 -2.03221,-5.47605c-0.31229,-1.55581 -0.54321,-3.11701 -0.66737,-4.67964c-0.19972,-1.49182 -0.15908,-2.98195 -0.32648,-4.47387c-0.07965,-1.55737 -0.07312,-3.12219 -0.12143,-4.67991c-0.00076,-1.8244 -0.06386,-3.6349 0.11138,-5.45195c0.50211,-2.15693 1.21672,-4.27827 2.02899,-6.38452c0.9492,-2.17434 1.81699,-4.38617 2.89419,-6.53124c1.01958,-1.73135 2.1309,-3.43768 3.67609,-4.97995c2.94679,-3.3841 6.08507,-6.67466 9.22458,-9.97616c0.74693,-0.70106 1.40011,-1.46803 2.02003,-2.22436c-0.08701,-0.61423 1.41165,-0.9653 1.64983,-0.24328c-0.03211,0.10949 -0.09037,0.20968 -0.13257,0.3177zM236.71526,178.47898c-2.40412,-1.07826 -4.78653,-2.1699 -7.0894,-3.34665c-2.04713,-0.95859 -3.90009,-2.08491 -5.69019,-3.25096c-1.36278,-0.82129 -2.59635,-1.72521 -3.80896,-2.64543c-3.47572,-2.70043 -6.32575,-5.77076 -8.56763,-8.98456c-0.92881,-1.53619 -1.95916,-3.04656 -2.73717,-4.61906c-1.17389,-2.48239 -2.38939,-4.94145 -3.22101,-7.47959c-0.55831,-2.15296 -0.83624,-4.33616 -1.31934,-6.49475c-0.01487,-0.09933 -0.01041,-0.19898 -0.02427,-0.29845c0.0065,-0.43269 0.00342,-0.85988 0.0248,-1.2956c0.13628,-2.7785 0.58812,-5.46742 1.29133,-8.04174c1.08039,-2.23063 2.14923,-4.47945 3.59975,-6.60474c1.2725,-1.61033 2.73087,-3.14626 4.24497,-4.65479c1.3161,-1.37059 2.8194,-2.63878 4.36362,-3.89257c1.85765,-1.57878 4.14934,-2.88873 6.33124,-4.25532c2.07547,-1.34573 4.30647,-2.5701 6.65509,-3.69911c2.68881,-1.38472 5.59737,-2.55503 8.56379,-3.65959c0.23361,-0.06811 0.45079,-0.17438 0.676,-0.264c0.00933,-0.0035 0.03006,0.00543 0.03881,0.0019c0.41536,-0.00639 0.829,-0.00076 1.24752,0.00718l-3.33209,1.94391c-4.81873,2.74997 -9.33424,5.77047 -13.65497,8.86718c-2.14259,1.83044 -3.99849,3.79641 -5.78291,5.79524c-1.07964,1.28231 -2.28913,2.50278 -3.38319,3.77855c-0.69048,0.93242 -1.15881,1.95726 -1.66517,2.94419c-0.8545,1.9175 -1.74391,3.81179 -2.389,5.77254c-0.41985,1.40138 -0.95857,2.82625 -0.95075,4.27606c-0.02685,1.86842 0.40766,3.69962 0.58493,5.56716c0.17356,1.79482 0.52335,3.59759 1.02341,5.37256c0.63764,3.0609 2.18155,6.02092 3.53709,8.98108c0.69493,1.6799 1.87172,3.24905 3.00028,4.82112c1.18818,1.67753 2.63351,3.25957 4.25059,4.77434c1.00452,1.03091 2.23685,1.94824 3.44692,2.87073c1.89971,1.26981 3.83354,2.52903 5.7415,3.79389c2.07903,1.35491 4.18653,2.69229 6.27554,4.03609c-0.43044,-0.03032 -0.85549,-0.07158 -1.28118,-0.11684z" fill="#356804" fill-rule="nonzero" stroke="none" stroke-width="1"/><path d="M261.77898,120.96336c-2.57738,-3.47937 -6.70026,-5.23573 -4.57431,-6.34793c2.1261,-1.11238 5.93676,0.80722 8.51413,4.28669c2.57672,3.47843 2.94428,7.19938 0.81832,8.31167c-2.1261,1.11238 -2.18224,-2.77293 -4.75816,-6.25043z" fill="#bfef90" fill-rule="evenodd" stroke="none" stroke-width="1"/></g></g></svg>