<svg version="1.1" xmlns="http://www.w3.org/2000/svg" xmlns:xlink="http://www.w3.org/1999/xlink" width="48.41536" height="72.12695" viewBox="0,0,48.41536,72.12695"><g transform="translate(-217.756,-108.7613)"><g data-paper-data="{&quot;isPaintingLayer&quot;:true}" fill-rule="evenodd" stroke-linecap="butt" stroke-linejoin="miter" stroke-miterlimit="10" stroke-dasharray="" stroke-dashoffset="0" style="mix-blend-mode: normal"><g stroke="none" stroke-width="1"><path d="M235.20928,121.63477c-1.10057,-2.91958 -2.14527,-7.93575 -0.60615,-10.84695c1.41342,-2.67049 3.88551,-0.94895 5.06429,3.28627c0.99442,3.56337 0.81565,9.4361 0.86034,10.67621c0.05028,1.36879 -0.11452,2.70958 -0.17318,4.07c-0.04749,1.1477 0.36314,3.05959 -0.04749,4.09528c-2.05868,-3.59703 -3.63969,-7.40956 -5.0978,-11.28082z" fill="#82783c"/><path d="M240.33222,132.85957c-1.6313,0.08401 -3.65926,-1.57313 -4.91625,-2.47733c-0.67039,-0.48422 -9.01125,-7.22471 -11.28222,-10.57536c-1.02515,-1.5116 -1.98884,-3.01755 -1.74024,-4.91547c0.3324,-2.54443 2.06427,-3.12392 4.30729,-2.01539c3.47768,1.71873 6.38552,5.56765 8.20957,8.90985c0.90783,1.65992 1.77097,3.35911 2.68997,4.9994c0.88827,1.59275 2.77377,4.20164 2.73186,6.07429z" fill="#a0aa1e"/><path d="M240.02496,132.76999c-0.10615,-1.17843 0.67878,-2.75442 0.94694,-3.90206c0.27933,-1.22884 0.55866,-2.43816 0.95531,-3.639c0.7491,-2.46867 1.64171,-4.89131 2.6732,-7.25558c0.92738,-2.04059 1.91901,-4.30513 3.41624,-6.0099c1.27655,-1.45559 3.70394,-2.99234 5.46094,-1.23444c1.51677,1.51998 0.55866,4.66066 0.02235,6.43818c-0.74302,2.38493 -2.0447,4.33321 -3.53076,6.29824c-1.38549,1.83067 -8.06431,8.68038 -9.94422,9.30454z" fill="#a0aa1e"/><path d="M240.26798,132.8512c0.77095,-1.01056 2.03633,-1.85029 2.9721,-2.74046c1.21231,-1.15322 2.44975,-2.27571 3.68159,-3.40381c1.79052,-1.63758 3.70394,-3.31707 6.21234,-3.639c0.90783,-0.1148 2.55868,-0.17074 2.87153,0.95455c0.27933,1.03569 -1.08101,2.21977 -1.75141,2.77677c-0.99477,0.79428 -2.05972,1.4961 -3.18159,2.09666c-0.6229,0.35824 -8.07548,3.16588 -10.80456,3.95527z" fill="#a0aa1e"/><path d="M240.0892,132.90433c-0.18995,-3.46818 0.21229,-6.87205 0.32402,-10.3179c0.01118,-1.79701 0.20964,-3.58795 0.59219,-5.34369c0.19554,-0.80056 1.18996,-3.63892 2.20671,-2.02662c0.58661,0.92654 0.21229,2.96162 0.17598,3.99452c-0.05307,1.49477 -0.06984,3.13228 -0.57822,4.56268c-0.33519,0.93214 -2.53633,9.14504 -2.72069,9.13102z" fill="#a0aa1e"/></g><g stroke="#000000" stroke-width="1.5"><path d="M235.20928,121.63477c-1.10057,-2.91958 -2.14527,-7.93575 -0.60615,-10.84695c1.41342,-2.67049 3.88551,-0.94895 5.06429,3.28627c0.99442,3.56337 0.81565,9.4361 0.86034,10.67621c0.05028,1.36879 -0.11452,2.70958 -0.17318,4.07c-0.04749,1.1477 0.36314,3.05959 -0.04749,4.09528c-2.05868,-3.59703 -3.63969,-7.40956 -5.0978,-11.28082z" fill="#82783c"/><path d="M240.33222,132.85957c-1.6313,0.08401 -3.65926,-1.57313 -4.91625,-2.47733c-0.67039,-0.48422 -9.01125,-7.22471 -11.28222,-10.57536c-1.02515,-1.5116 -1.98884,-3.01755 -1.74024,-4.91547c0.3324,-2.54443 2.06427,-3.12392 4.30729,-2.01539c3.47768,1.71873 6.38552,5.56765 8.20957,8.90985c0.90783,1.65992 1.77097,3.35911 2.68997,4.9994c0.88827,1.59275 2.77377,4.20164 2.73186,6.07429z" fill="#a0aa1e"/><path d="M240.02496,132.76999c-0.10615,-1.17843 0.67878,-2.75442 0.94694,-3.90206c0.27933,-1.22884 0.55866,-2.43816 0.95531,-3.639c0.7491,-2.46867 1.64171,-4.89131 2.6732,-7.25558c0.92738,-2.04059 1.91901,-4.30513 3.41624,-6.0099c1.27655,-1.45559 3.70394,-2.99234 5.46094,-1.23444c1.51677,1.51998 0.55866,4.66066 0.02235,6.43818c-0.74302,2.38493 -2.0447,4.33321 -3.53076,6.29824c-1.38549,1.83067 -8.06431,8.68038 -9.94422,9.30454z" fill="#a0aa1e"/><path d="M240.26798,132.8512c0.77095,-1.01056 2.03633,-1.85029 2.9721,-2.74046c1.21231,-1.15322 2.44975,-2.27571 3.68159,-3.40381c1.79052,-1.63758 3.70394,-3.31707 6.21234,-3.639c0.90783,-0.1148 2.55868,-0.17074 2.87153,0.95455c0.27933,1.03569 -1.08101,2.21977 -1.75141,2.77677c-0.99477,0.79428 -2.05972,1.4961 -3.18159,2.09666c-0.6229,0.35824 -8.07548,3.16588 -10.80456,3.95527z" fill="#a0aa1e"/><path d="M240.0892,132.90433c-0.18995,-3.46818 0.21229,-6.87205 0.32402,-10.3179c0.01118,-1.79701 0.20964,-3.58795 0.59219,-5.34369c0.19554,-0.80056 1.18996,-3.63892 2.20671,-2.02662c0.58661,0.92654 0.21229,2.96162 0.17598,3.99452c-0.05307,1.49477 -0.06984,3.13228 -0.57822,4.56268c-0.33519,0.93214 -2.53633,9.14504 -2.72069,9.13102z" fill="#a0aa1e"/></g><g stroke="none" stroke-width="1"><path d="M242.12473,180.13808c-3.04197,0.01452 -6.016,-0.90087 -8.52547,-2.62395c-1.66741,-1.16041 -2.98282,-2.90873 -4.10989,-4.57962c-1.68286,-2.49712 -3.33485,-5.0469 -4.88801,-7.63063c-2.81216,-4.64964 -4.86958,-9.71738 -6.09536,-15.01376c-0.9634,-4.28876 -1.26601,-12.20091 3.17737,-14.85281c2.27572,-1.36459 5.64762,-2.14433 8.22596,-2.67659c2.23249,-0.46102 4.4341,-1.03967 6.72836,-1.23776c1.30923,-0.10514 2.63082,-0.22587 3.92772,-0.02161c0.99736,0.15779 1.48216,0.70857 2.20162,0.71475c0.13894,0 1.04368,-0.50432 1.29379,-0.56624c0.50887,-0.09988 1.02545,-0.15578 1.54391,-0.16713c1.6489,-0.09588 3.19898,0.16713 4.81701,0.41161c4.17781,0.61881 8.58414,2.21552 11.85415,4.97256c4.07901,3.43783 3.41514,8.69815 2.28499,13.4294c-1.23513,5.21093 -5.64762,17.05604 -9.88102,22.79907c-4.2334,5.74312 -10.04777,7.05514 -12.55507,7.04271z" fill="#f01446"/><path d="M221.73274,139.05154c0,0 0.44156,-1.16657 2.39306,-2.19389c2.46478,-1.20841 5.23147,-1.65847 7.95113,-1.2934c6.32077,0.97466 5.53338,21.84911 -2.0009,21.84911c-4.0821,0 -6.84261,-1.76067 -8.1364,-5.75547c-1.09309,-3.37907 -1.87739,-8.58993 -0.20688,-12.60634z" fill="#f00a78"/><path d="M237.31081,164.97895c0,-0.43749 0.34562,-0.79216 0.77196,-0.79216c0.42633,0 0.77196,0.35465 0.77196,0.79216c0,0.43749 -0.34562,0.79216 -0.77196,0.79216c-0.42633,0 -0.77196,-0.35465 -0.77196,-0.79216z" fill="#f04650"/><path d="M252.03045,143.07724c0,-0.43749 0.34562,-0.79216 0.77196,-0.79216c0.42633,0 0.77196,0.35465 0.77196,0.79216c0,0.43749 -0.34562,0.79216 -0.77196,0.79216c-0.42633,0 -0.77196,-0.35465 -0.77196,-0.79216z" fill="#f04650"/><path d="M249.6065,139.3919c0,-0.43749 0.34562,-0.79216 0.77196,-0.79216c0.42633,0 0.77196,0.35465 0.77196,0.79216c0,0.43749 -0.34562,0.79216 -0.77196,0.79216c-0.42633,0 -0.77196,-0.35465 -0.77196,-0.79216z" fill="#f04650"/><path d="M255.03489,139.76013c0,-0.43749 0.34562,-0.79216 0.77196,-0.79216c0.42633,0 0.77196,0.35465 0.77196,0.79216c0,0.43749 -0.34562,0.79216 -0.77196,0.79216c-0.42633,0 -0.77196,-0.35465 -0.77196,-0.79216z" fill="#f04650"/><path d="M246.22844,135.68797c0,-0.43749 0.34562,-0.79216 0.77196,-0.79216c0.42633,0 0.77196,0.35465 0.77196,0.79216c0,0.43749 -0.34562,0.79216 -0.77196,0.79216c-0.42633,0 -0.77196,-0.35465 -0.77196,-0.79216z" fill="#f04650"/><path d="M239.90767,137.67454c0,-0.43749 0.34562,-0.79216 0.77196,-0.79216c0.42633,0 0.77196,0.35465 0.77196,0.79216c0,0.43749 -0.34562,0.79216 -0.77196,0.79216c-0.42633,0 -0.77196,-0.35465 -0.77196,-0.79216z" fill="#f04650"/><path d="M234.72322,137.12995c0,-0.43749 0.34562,-0.79216 0.77196,-0.79216c0.42633,0 0.77196,0.35465 0.77196,0.79216c0,0.43749 -0.34562,0.79216 -0.77196,0.79216c-0.42633,0 -0.77196,-0.35465 -0.77196,-0.79216z" fill="#f04650"/><path d="M228.15542,136.98141c0,-0.43749 0.34562,-0.79216 0.77196,-0.79216c0.42633,0 0.77196,0.35465 0.77196,0.79216c0,0.43749 -0.34562,0.79216 -0.77196,0.79216c-0.42633,0 -0.77196,-0.35465 -0.77196,-0.79216z" fill="#f04650"/><path d="M232.80877,143.47025c0,-0.43749 0.34562,-0.79216 0.77196,-0.79216c0.42633,0 0.77196,0.35465 0.77196,0.79216c0,0.43749 -0.34562,0.79216 -0.77196,0.79216c-0.42633,0 -0.77196,-0.35465 -0.77196,-0.79216z" fill="#f04650"/><path d="M226.16378,143.08653c0,-0.43749 0.34562,-0.79216 0.77196,-0.79216c0.42633,0 0.77196,0.35465 0.77196,0.79216c0,0.43749 -0.34562,0.79216 -0.77196,0.79216c-0.42633,0 -0.77196,-0.35465 -0.77196,-0.79216z" fill="#f04650"/><path d="M245.24651,166.76747c0,-0.43749 0.34562,-0.79216 0.77196,-0.79216c0.42633,0 0.77196,0.35465 0.77196,0.79216c0,0.43749 -0.34562,0.79216 -0.77196,0.79216c-0.42633,0 -0.77196,-0.35465 -0.77196,-0.79216z" fill="#f04650"/><path d="M242.81021,142.26036c0,-0.43749 0.34562,-0.79216 0.77196,-0.79216c0.42633,0 0.77196,0.35465 0.77196,0.79216c0,0.43749 -0.34562,0.79216 -0.77196,0.79216c-0.42633,0 -0.77196,-0.35465 -0.77196,-0.79216z" fill="#f04650"/><path d="M244.57027,147.33816c0,-0.43749 0.34562,-0.79216 0.77196,-0.79216c0.42633,0 0.77196,0.35465 0.77196,0.79216c0,0.43749 -0.34562,0.79216 -0.77196,0.79216c-0.42633,0 -0.77196,-0.35465 -0.77196,-0.79216z" fill="#f04650"/><path d="M238.58608,143.53213c0,-0.43749 0.34562,-0.79216 0.77196,-0.79216c0.42633,0 0.77196,0.35465 0.77196,0.79216c0,0.43749 -0.34562,0.79216 -0.77196,0.79216c-0.42633,0 -0.77196,-0.35465 -0.77196,-0.79216z" fill="#f04650"/><path d="M231.95961,169.59571c0,-0.43749 0.34562,-0.79216 0.77196,-0.79216c0.42633,0 0.77196,0.35465 0.77196,0.79216c0,0.43749 -0.34562,0.79216 -0.77196,0.79216c-0.42633,0 -0.77196,-0.35465 -0.77196,-0.79216z" fill="#f04650"/><path d="M237.31081,148.44903c0,-0.43749 0.34562,-0.79216 0.77196,-0.79216c0.42633,0 0.77196,0.35465 0.77196,0.79216c0,0.43749 -0.34562,0.79216 -0.77196,0.79216c-0.42633,0 -0.77196,-0.35465 -0.77196,-0.79216z" fill="#f04650"/><path d="M228.18322,161.55353c0,-0.43749 0.34562,-0.79216 0.77196,-0.79216c0.42633,0 0.77196,0.35465 0.77196,0.79216c0,0.43749 -0.34562,0.79216 -0.77196,0.79216c-0.42633,0 -0.77196,-0.35465 -0.77196,-0.79216z" fill="#f04650"/><path d="M233.46646,153.65679c0,-0.43749 0.34562,-0.79216 0.77196,-0.79216c0.42633,0 0.77196,0.35465 0.77196,0.79216c0,0.43749 -0.34562,0.79216 -0.77196,0.79216c-0.42633,0 -0.77196,-0.35465 -0.77196,-0.79216z" fill="#f04650"/><path d="M227.83737,153.44947c0,-0.43749 0.34562,-0.79216 0.77196,-0.79216c0.42633,0 0.77196,0.35465 0.77196,0.79216c0,0.43749 -0.34562,0.79216 -0.77196,0.79216c-0.42633,0 -0.77196,-0.35465 -0.77196,-0.79216z" fill="#f04650"/><path d="M252.92901,152.30147c0,-0.43749 0.34562,-0.79216 0.77196,-0.79216c0.42633,0 0.77196,0.35465 0.77196,0.79216c0,0.43749 -0.34562,0.79216 -0.77196,0.79216c-0.42633,0 -0.77196,-0.35465 -0.77196,-0.79216z" fill="#f04650"/><path d="M257.81084,143.46713c0,-0.43749 0.34562,-0.79216 0.77196,-0.79216c0.42633,0 0.77196,0.35465 0.77196,0.79216c0,0.43749 -0.34562,0.79216 -0.77196,0.79216c-0.42633,0 -0.77196,-0.35465 -0.77196,-0.79216z" fill="#f04650"/><path d="M258.29256,151.26795c0,-0.43749 0.34562,-0.79216 0.77196,-0.79216c0.42633,0 0.77196,0.35465 0.77196,0.79216c0,0.43749 -0.34562,0.79216 -0.77196,0.79216c-0.42633,0 -0.77196,-0.35465 -0.77196,-0.79216z" fill="#f04650"/><path d="M260.90485,147.12155c0,-0.43749 0.34562,-0.79216 0.77196,-0.79216c0.42633,0 0.77196,0.35465 0.77196,0.79216c0,0.43749 -0.34562,0.79216 -0.77196,0.79216c-0.42633,0 -0.77196,-0.35465 -0.77196,-0.79216z" fill="#f04650"/><path d="M261.05614,139.69824c0,-0.43749 0.34562,-0.79216 0.77196,-0.79216c0.42633,0 0.77196,0.35465 0.77196,0.79216c0,0.43749 -0.34562,0.79216 -0.77196,0.79216c-0.42633,0 -0.77196,-0.35465 -0.77196,-0.79216z" fill="#f04650"/><path d="M251.93473,134.79682c0,-0.43749 0.34562,-0.79216 0.77196,-0.79216c0.42633,0 0.77196,0.35465 0.77196,0.79216c0,0.43749 -0.34562,0.79216 -0.77196,0.79216c-0.42633,0 -0.77196,-0.35465 -0.77196,-0.79216z" fill="#f04650"/><path d="M221.55675,140.25831c0,-0.43749 0.34562,-0.79216 0.77196,-0.79216c0.42633,0 0.77196,0.35465 0.77196,0.79216c0,0.43749 -0.34562,0.79216 -0.77196,0.79216c-0.42633,0 -0.77196,-0.35465 -0.77196,-0.79216z" fill="#f04650"/><path d="M220.21972,150.8688c0,-0.43749 0.34562,-0.79216 0.77196,-0.79216c0.42633,0 0.77196,0.35465 0.77196,0.79216c0,0.43749 -0.34562,0.79216 -0.77196,0.79216c-0.42633,0 -0.77196,-0.35465 -0.77196,-0.79216z" fill="#f04650"/><path d="M218.87652,145.98593c0,-0.43749 0.34562,-0.79216 0.77196,-0.79216c0.42633,0 0.77196,0.35465 0.77196,0.79216c0,0.43749 -0.34562,0.79216 -0.77196,0.79216c-0.42633,0 -0.77196,-0.35465 -0.77196,-0.79216z" fill="#f04650"/><path d="M242.09075,151.05136c0,-0.43749 0.34562,-0.79216 0.77196,-0.79216c0.42633,0 0.77196,0.35465 0.77196,0.79216c0,0.43749 -0.34562,0.79216 -0.77196,0.79216c-0.42633,0 -0.77196,-0.35465 -0.77196,-0.79216z" fill="#f04650"/><path d="M255.52894,158.1281c0,-0.43749 0.34562,-0.79216 0.77196,-0.79216c0.42633,0 0.77196,0.35465 0.77196,0.79216c0,0.43749 -0.34562,0.79216 -0.77196,0.79216c-0.42633,0 -0.77196,-0.35465 -0.77196,-0.79216z" fill="#f04650"/><path d="M247.13113,155.37681c-0.39668,-0.15626 -0.58854,-0.61221 -0.42852,-1.0184c0.16,-0.4062 0.61128,-0.60881 1.00795,-0.45255c0.39668,0.15626 0.58854,0.61221 0.42852,1.0184c-0.16,0.4062 -0.61128,0.60881 -1.00795,0.45255z" fill="#f04650"/><path d="M249.11245,145.98593c0,-0.43749 0.34562,-0.79216 0.77196,-0.79216c0.42633,0 0.77196,0.35465 0.77196,0.79216c0,0.43749 -0.34562,0.79216 -0.77196,0.79216c-0.42633,0 -0.77196,-0.35465 -0.77196,-0.79216z" fill="#f04650"/><path d="M239.47846,157.83104c0,-0.43749 0.34562,-0.79216 0.77196,-0.79216c0.42633,0 0.77196,0.35465 0.77196,0.79216c0,0.43749 -0.34562,0.79216 -0.77196,0.79216c-0.42633,0 -0.77196,-0.35465 -0.77196,-0.79216z" fill="#f04650"/><path d="M254.77244,147.56714c0,-0.43749 0.34562,-0.79216 0.77196,-0.79216c0.42633,0 0.77196,0.35465 0.77196,0.79216c0,0.43749 -0.34562,0.79216 -0.77196,0.79216c-0.42633,0 -0.77196,-0.35465 -0.77196,-0.79216z" fill="#f04650"/><path d="M255.73891,164.83042c0,-0.43749 0.34562,-0.79216 0.77196,-0.79216c0.42633,0 0.77196,0.35465 0.77196,0.79216c0,0.43749 -0.34562,0.79216 -0.77196,0.79216c-0.42633,0 -0.77196,-0.35465 -0.77196,-0.79216z" fill="#f04650"/><path d="M249.28847,160.51074c0,-0.43749 0.34562,-0.79216 0.77196,-0.79216c0.42633,0 0.77196,0.35465 0.77196,0.79216c0,0.43749 -0.34562,0.79216 -0.77196,0.79216c-0.42633,0 -0.77196,-0.35465 -0.77196,-0.79216z" fill="#f04650"/><path d="M229.98032,148.49854c0,-0.43749 0.34562,-0.79216 0.77196,-0.79216c0.42633,0 0.77196,0.35465 0.77196,0.79216c0,0.43749 -0.34562,0.79216 -0.77196,0.79216c-0.42633,0 -0.77196,-0.35465 -0.77196,-0.79216z" fill="#f04650"/><path d="M224.58898,147.40622c0,-0.43749 0.34562,-0.79216 0.77196,-0.79216c0.42633,0 0.77196,0.35465 0.77196,0.79216c0,0.43749 -0.34562,0.79216 -0.77196,0.79216c-0.42633,0 -0.77196,-0.35465 -0.77196,-0.79216z" fill="#f04650"/></g><g stroke="none" stroke-width="1"><path d="M242.12473,180.13808c-3.04197,0.01452 -6.016,-0.90087 -8.52547,-2.62395c-1.66741,-1.16041 -2.98282,-2.90873 -4.10989,-4.57962c-1.68286,-2.49712 -3.33485,-5.0469 -4.88801,-7.63063c-2.81216,-4.64964 -4.86958,-9.71738 -6.09536,-15.01376c-0.9634,-4.28876 -1.26601,-12.20091 3.17737,-14.85281c2.27572,-1.36459 5.64762,-2.14433 8.22596,-2.67659c2.23249,-0.46102 4.4341,-1.03967 6.72836,-1.23776c1.30923,-0.10514 2.63082,-0.22587 3.92772,-0.02161c0.99736,0.15779 1.48216,0.70857 2.20162,0.71475c0.13894,0 1.04368,-0.50432 1.29379,-0.56624c0.50887,-0.09988 1.02545,-0.15578 1.54391,-0.16713c1.6489,-0.09588 3.19898,0.16713 4.81701,0.41161c4.17781,0.61881 8.58414,2.21552 11.85415,4.97256c4.07901,3.43783 3.41514,8.69815 2.28499,13.4294c-1.23513,5.21093 -5.64762,17.05604 -9.88102,22.79907c-4.2334,5.74312 -10.04777,7.05514 -12.55507,7.04271z" fill="#f01446"/><path d="M221.73274,139.05154c0,0 0.44156,-1.16657 2.39306,-2.19389c2.46478,-1.20841 5.23147,-1.65847 7.95113,-1.2934c6.32077,0.97466 5.53338,21.84911 -2.0009,21.84911c-4.0821,0 -6.84261,-1.76067 -8.1364,-5.75547c-1.09309,-3.37907 -1.87739,-8.58993 -0.20688,-12.60634z" fill="#f00a78"/><path d="M237.31081,164.97895c0,-0.43749 0.34562,-0.79216 0.77196,-0.79216c0.42633,0 0.77196,0.35465 0.77196,0.79216c0,0.43749 -0.34562,0.79216 -0.77196,0.79216c-0.42633,0 -0.77196,-0.35465 -0.77196,-0.79216z" fill="#f04650"/><path d="M252.03045,143.07724c0,-0.43749 0.34562,-0.79216 0.77196,-0.79216c0.42633,0 0.77196,0.35465 0.77196,0.79216c0,0.43749 -0.34562,0.79216 -0.77196,0.79216c-0.42633,0 -0.77196,-0.35465 -0.77196,-0.79216z" fill="#f04650"/><path d="M249.6065,139.3919c0,-0.43749 0.34562,-0.79216 0.77196,-0.79216c0.42633,0 0.77196,0.35465 0.77196,0.79216c0,0.43749 -0.34562,0.79216 -0.77196,0.79216c-0.42633,0 -0.77196,-0.35465 -0.77196,-0.79216z" fill="#f04650"/><path d="M255.03489,139.76013c0,-0.43749 0.34562,-0.79216 0.77196,-0.79216c0.42633,0 0.77196,0.35465 0.77196,0.79216c0,0.43749 -0.34562,0.79216 -0.77196,0.79216c-0.42633,0 -0.77196,-0.35465 -0.77196,-0.79216z" fill="#f04650"/><path d="M246.22844,135.68797c0,-0.43749 0.34562,-0.79216 0.77196,-0.79216c0.42633,0 0.77196,0.35465 0.77196,0.79216c0,0.43749 -0.34562,0.79216 -0.77196,0.79216c-0.42633,0 -0.77196,-0.35465 -0.77196,-0.79216z" fill="#f04650"/><path d="M239.90767,137.67454c0,-0.43749 0.34562,-0.79216 0.77196,-0.79216c0.42633,0 0.77196,0.35465 0.77196,0.79216c0,0.43749 -0.34562,0.79216 -0.77196,0.79216c-0.42633,0 -0.77196,-0.35465 -0.77196,-0.79216z" fill="#f04650"/><path d="M234.72322,137.12995c0,-0.43749 0.34562,-0.79216 0.77196,-0.79216c0.42633,0 0.77196,0.35465 0.77196,0.79216c0,0.43749 -0.34562,0.79216 -0.77196,0.79216c-0.42633,0 -0.77196,-0.35465 -0.77196,-0.79216z" fill="#f04650"/><path d="M228.15542,136.98141c0,-0.43749 0.34562,-0.79216 0.77196,-0.79216c0.42633,0 0.77196,0.35465 0.77196,0.79216c0,0.43749 -0.34562,0.79216 -0.77196,0.79216c-0.42633,0 -0.77196,-0.35465 -0.77196,-0.79216z" fill="#f04650"/><path d="M232.80877,143.47025c0,-0.43749 0.34562,-0.79216 0.77196,-0.79216c0.42633,0 0.77196,0.35465 0.77196,0.79216c0,0.43749 -0.34562,0.79216 -0.77196,0.79216c-0.42633,0 -0.77196,-0.35465 -0.77196,-0.79216z" fill="#f04650"/><path d="M226.16378,143.08653c0,-0.43749 0.34562,-0.79216 0.77196,-0.79216c0.42633,0 0.77196,0.35465 0.77196,0.79216c0,0.43749 -0.34562,0.79216 -0.77196,0.79216c-0.42633,0 -0.77196,-0.35465 -0.77196,-0.79216z" fill="#f04650"/><path d="M245.24651,166.76747c0,-0.43749 0.34562,-0.79216 0.77196,-0.79216c0.42633,0 0.77196,0.35465 0.77196,0.79216c0,0.43749 -0.34562,0.79216 -0.77196,0.79216c-0.42633,0 -0.77196,-0.35465 -0.77196,-0.79216z" fill="#f04650"/><path d="M242.81021,142.26036c0,-0.43749 0.34562,-0.79216 0.77196,-0.79216c0.42633,0 0.77196,0.35465 0.77196,0.79216c0,0.43749 -0.34562,0.79216 -0.77196,0.79216c-0.42633,0 -0.77196,-0.35465 -0.77196,-0.79216z" fill="#f04650"/><path d="M244.57027,147.33816c0,-0.43749 0.34562,-0.79216 0.77196,-0.79216c0.42633,0 0.77196,0.35465 0.77196,0.79216c0,0.43749 -0.34562,0.79216 -0.77196,0.79216c-0.42633,0 -0.77196,-0.35465 -0.77196,-0.79216z" fill="#f04650"/><path d="M238.58608,143.53213c0,-0.43749 0.34562,-0.79216 0.77196,-0.79216c0.42633,0 0.77196,0.35465 0.77196,0.79216c0,0.43749 -0.34562,0.79216 -0.77196,0.79216c-0.42633,0 -0.77196,-0.35465 -0.77196,-0.79216z" fill="#f04650"/><path d="M231.95961,169.59571c0,-0.43749 0.34562,-0.79216 0.77196,-0.79216c0.42633,0 0.77196,0.35465 0.77196,0.79216c0,0.43749 -0.34562,0.79216 -0.77196,0.79216c-0.42633,0 -0.77196,-0.35465 -0.77196,-0.79216z" fill="#f04650"/><path d="M237.31081,148.44903c0,-0.43749 0.34562,-0.79216 0.77196,-0.79216c0.42633,0 0.77196,0.35465 0.77196,0.79216c0,0.43749 -0.34562,0.79216 -0.77196,0.79216c-0.42633,0 -0.77196,-0.35465 -0.77196,-0.79216z" fill="#f04650"/><path d="M228.18322,161.55353c0,-0.43749 0.34562,-0.79216 0.77196,-0.79216c0.42633,0 0.77196,0.35465 0.77196,0.79216c0,0.43749 -0.34562,0.79216 -0.77196,0.79216c-0.42633,0 -0.77196,-0.35465 -0.77196,-0.79216z" fill="#f04650"/><path d="M233.46646,153.65679c0,-0.43749 0.34562,-0.79216 0.77196,-0.79216c0.42633,0 0.77196,0.35465 0.77196,0.79216c0,0.43749 -0.34562,0.79216 -0.77196,0.79216c-0.42633,0 -0.77196,-0.35465 -0.77196,-0.79216z" fill="#f04650"/><path d="M227.83737,153.44947c0,-0.43749 0.34562,-0.79216 0.77196,-0.79216c0.42633,0 0.77196,0.35465 0.77196,0.79216c0,0.43749 -0.34562,0.79216 -0.77196,0.79216c-0.42633,0 -0.77196,-0.35465 -0.77196,-0.79216z" fill="#f04650"/><path d="M252.92901,152.30147c0,-0.43749 0.34562,-0.79216 0.77196,-0.79216c0.42633,0 0.77196,0.35465 0.77196,0.79216c0,0.43749 -0.34562,0.79216 -0.77196,0.79216c-0.42633,0 -0.77196,-0.35465 -0.77196,-0.79216z" fill="#f04650"/><path d="M257.81084,143.46713c0,-0.43749 0.34562,-0.79216 0.77196,-0.79216c0.42633,0 0.77196,0.35465 0.77196,0.79216c0,0.43749 -0.34562,0.79216 -0.77196,0.79216c-0.42633,0 -0.77196,-0.35465 -0.77196,-0.79216z" fill="#f04650"/><path d="M258.29256,151.26795c0,-0.43749 0.34562,-0.79216 0.77196,-0.79216c0.42633,0 0.77196,0.35465 0.77196,0.79216c0,0.43749 -0.34562,0.79216 -0.77196,0.79216c-0.42633,0 -0.77196,-0.35465 -0.77196,-0.79216z" fill="#f04650"/><path d="M260.90485,147.12155c0,-0.43749 0.34562,-0.79216 0.77196,-0.79216c0.42633,0 0.77196,0.35465 0.77196,0.79216c0,0.43749 -0.34562,0.79216 -0.77196,0.79216c-0.42633,0 -0.77196,-0.35465 -0.77196,-0.79216z" fill="#f04650"/><path d="M261.05614,139.69824c0,-0.43749 0.34562,-0.79216 0.77196,-0.79216c0.42633,0 0.77196,0.35465 0.77196,0.79216c0,0.43749 -0.34562,0.79216 -0.77196,0.79216c-0.42633,0 -0.77196,-0.35465 -0.77196,-0.79216z" fill="#f04650"/><path d="M251.93473,134.79682c0,-0.43749 0.34562,-0.79216 0.77196,-0.79216c0.42633,0 0.77196,0.35465 0.77196,0.79216c0,0.43749 -0.34562,0.79216 -0.77196,0.79216c-0.42633,0 -0.77196,-0.35465 -0.77196,-0.79216z" fill="#f04650"/><path d="M221.55675,140.25831c0,-0.43749 0.34562,-0.79216 0.77196,-0.79216c0.42633,0 0.77196,0.35465 0.77196,0.79216c0,0.43749 -0.34562,0.79216 -0.77196,0.79216c-0.42633,0 -0.77196,-0.35465 -0.77196,-0.79216z" fill="#f04650"/><path d="M220.21972,150.8688c0,-0.43749 0.34562,-0.79216 0.77196,-0.79216c0.42633,0 0.77196,0.35465 0.77196,0.79216c0,0.43749 -0.34562,0.79216 -0.77196,0.79216c-0.42633,0 -0.77196,-0.35465 -0.77196,-0.79216z" fill="#f04650"/><path d="M218.87652,145.98593c0,-0.43749 0.34562,-0.79216 0.77196,-0.79216c0.42633,0 0.77196,0.35465 0.77196,0.79216c0,0.43749 -0.34562,0.79216 -0.77196,0.79216c-0.42633,0 -0.77196,-0.35465 -0.77196,-0.79216z" fill="#f04650"/><path d="M242.09075,151.05136c0,-0.43749 0.34562,-0.79216 0.77196,-0.79216c0.42633,0 0.77196,0.35465 0.77196,0.79216c0,0.43749 -0.34562,0.79216 -0.77196,0.79216c-0.42633,0 -0.77196,-0.35465 -0.77196,-0.79216z" fill="#f04650"/><path d="M255.52894,158.1281c0,-0.43749 0.34562,-0.79216 0.77196,-0.79216c0.42633,0 0.77196,0.35465 0.77196,0.79216c0,0.43749 -0.34562,0.79216 -0.77196,0.79216c-0.42633,0 -0.77196,-0.35465 -0.77196,-0.79216z" fill="#f04650"/><path d="M247.13113,155.37681c-0.39668,-0.15626 -0.58854,-0.61221 -0.42852,-1.0184c0.16,-0.4062 0.61128,-0.60881 1.00795,-0.45255c0.39668,0.15626 0.58854,0.61221 0.42852,1.0184c-0.16,0.4062 -0.61128,0.60881 -1.00795,0.45255z" fill="#f04650"/><path d="M249.11245,145.98593c0,-0.43749 0.34562,-0.79216 0.77196,-0.79216c0.42633,0 0.77196,0.35465 0.77196,0.79216c0,0.43749 -0.34562,0.79216 -0.77196,0.79216c-0.42633,0 -0.77196,-0.35465 -0.77196,-0.79216z" fill="#f04650"/><path d="M239.47846,157.83104c0,-0.43749 0.34562,-0.79216 0.77196,-0.79216c0.42633,0 0.77196,0.35465 0.77196,0.79216c0,0.43749 -0.34562,0.79216 -0.77196,0.79216c-0.42633,0 -0.77196,-0.35465 -0.77196,-0.79216z" fill="#f04650"/><path d="M254.77244,147.56714c0,-0.43749 0.34562,-0.79216 0.77196,-0.79216c0.42633,0 0.77196,0.35465 0.77196,0.79216c0,0.43749 -0.34562,0.79216 -0.77196,0.79216c-0.42633,0 -0.77196,-0.35465 -0.77196,-0.79216z" fill="#f04650"/><path d="M255.73891,164.83042c0,-0.43749 0.34562,-0.79216 0.77196,-0.79216c0.42633,0 0.77196,0.35465 0.77196,0.79216c0,0.43749 -0.34562,0.79216 -0.77196,0.79216c-0.42633,0 -0.77196,-0.35465 -0.77196,-0.79216z" fill="#f04650"/><path d="M249.28847,160.51074c0,-0.43749 0.34562,-0.79216 0.77196,-0.79216c0.42633,0 0.77196,0.35465 0.77196,0.79216c0,0.43749 -0.34562,0.79216 -0.77196,0.79216c-0.42633,0 -0.77196,-0.35465 -0.77196,-0.79216z" fill="#f04650"/><path d="M229.98032,148.49854c0,-0.43749 0.34562,-0.79216 0.77196,-0.79216c0.42633,0 0.77196,0.35465 0.77196,0.79216c0,0.43749 -0.34562,0.79216 -0.77196,0.79216c-0.42633,0 -0.77196,-0.35465 -0.77196,-0.79216z" fill="#f04650"/><path d="M224.58898,147.40622c0,-0.43749 0.34562,-0.79216 0.77196,-0.79216c0.42633,0 0.77196,0.35465 0.77196,0.79216c0,0.43749 -0.34562,0.79216 -0.77196,0.79216c-0.42633,0 -0.77196,-0.35465 -0.77196,-0.79216z" fill="#f04650"/></g><path d="M242.12473,180.13808c-3.04197,0.01452 -6.016,-0.90087 -8.52547,-2.62395c-1.66741,-1.16041 -2.98282,-2.90873 -4.10989,-4.57962c-1.68286,-2.49712 -3.33485,-5.0469 -4.88801,-7.63063c-2.81216,-4.64964 -4.86958,-9.71738 -6.09536,-15.01376c-0.9634,-4.28876 -1.26601,-12.20091 3.17737,-14.85281c2.27572,-1.36459 5.64762,-2.14433 8.22596,-2.67659c2.23249,-0.46102 4.4341,-1.03967 6.72836,-1.23776c1.30923,-0.10514 2.63082,-0.22587 3.92772,-0.02161c0.99736,0.15779 1.48216,0.70857 2.20162,0.71475c0.13894,0 1.04368,-0.50432 1.29379,-0.56624c0.50887,-0.09988 1.02545,-0.15578 1.54391,-0.16713c1.6489,-0.09588 3.19898,0.16713 4.81701,0.41161c4.17781,0.61881 8.58414,2.21552 11.85415,4.97256c4.07901,3.43783 3.41514,8.69815 2.28499,13.4294c-1.23513,5.21093 -5.64762,17.05604 -9.88102,22.79907c-4.2334,5.74312 -10.04777,7.05514 -12.55507,7.04271z" fill="#f01446" stroke="#000000" stroke-width="1.5"/><path d="M221.73274,139.05154c0,0 0.44156,-1.16657 2.39306,-2.19389c2.46478,-1.20841 5.23147,-1.65847 7.95113,-1.2934c6.32077,0.97466 5.53338,21.84911 -2.0009,21.84911c-4.0821,0 -6.84261,-1.76067 -8.1364,-5.75547c-1.09309,-3.37907 -1.87739,-8.58993 -0.20688,-12.60634z" fill="#f00a78" stroke="none" stroke-width="1"/><path d="M237.31081,164.97895c0,-0.43749 0.34562,-0.79216 0.77196,-0.79216c0.42633,0 0.77196,0.35465 0.77196,0.79216c0,0.43749 -0.34562,0.79216 -0.77196,0.79216c-0.42633,0 -0.77196,-0.35465 -0.77196,-0.79216z" fill="#f04650" stroke="none" stroke-width="1"/><path d="M252.03045,143.07724c0,-0.43749 0.34562,-0.79216 0.77196,-0.79216c0.42633,0 0.77196,0.35465 0.77196,0.79216c0,0.43749 -0.34562,0.79216 -0.77196,0.79216c-0.42633,0 -0.77196,-0.35465 -0.77196,-0.79216z" fill="#f04650" stroke="none" stroke-width="1"/><path d="M249.6065,139.3919c0,-0.43749 0.34562,-0.79216 0.77196,-0.79216c0.42633,0 0.77196,0.35465 0.77196,0.79216c0,0.43749 -0.34562,0.79216 -0.77196,0.79216c-0.42633,0 -0.77196,-0.35465 -0.77196,-0.79216z" fill="#f04650" stroke="none" stroke-width="1"/><path d="M255.03489,139.76013c0,-0.43749 0.34562,-0.79216 0.77196,-0.79216c0.42633,0 0.77196,0.35465 0.77196,0.79216c0,0.43749 -0.34562,0.79216 -0.77196,0.79216c-0.42633,0 -0.77196,-0.35465 -0.77196,-0.79216z" fill="#f04650" stroke="none" stroke-width="1"/><path d="M246.22844,135.68797c0,-0.43749 0.34562,-0.79216 0.77196,-0.79216c0.42633,0 0.77196,0.35465 0.77196,0.79216c0,0.43749 -0.34562,0.79216 -0.77196,0.79216c-0.42633,0 -0.77196,-0.35465 -0.77196,-0.79216z" fill="#f04650" stroke="none" stroke-width="1"/><path d="M239.90767,137.67454c0,-0.43749 0.34562,-0.79216 0.77196,-0.79216c0.42633,0 0.77196,0.35465 0.77196,0.79216c0,0.43749 -0.34562,0.79216 -0.77196,0.79216c-0.42633,0 -0.77196,-0.35465 -0.77196,-0.79216z" fill="#f04650" stroke="none" stroke-width="1"/><path d="M234.72322,137.12995c0,-0.43749 0.34562,-0.79216 0.77196,-0.79216c0.42633,0 0.77196,0.35465 0.77196,0.79216c0,0.43749 -0.34562,0.79216 -0.77196,0.79216c-0.42633,0 -0.77196,-0.35465 -0.77196,-0.79216z" fill="#f04650" stroke="none" stroke-width="1"/><path d="M228.15542,136.98141c0,-0.43749 0.34562,-0.79216 0.77196,-0.79216c0.42633,0 0.77196,0.35465 0.77196,0.79216c0,0.43749 -0.34562,0.79216 -0.77196,0.79216c-0.42633,0 -0.77196,-0.35465 -0.77196,-0.79216z" fill="#f04650" stroke="none" stroke-width="1"/><path d="M232.80877,143.47025c0,-0.43749 0.34562,-0.79216 0.77196,-0.79216c0.42633,0 0.77196,0.35465 0.77196,0.79216c0,0.43749 -0.34562,0.79216 -0.77196,0.79216c-0.42633,0 -0.77196,-0.35465 -0.77196,-0.79216z" fill="#f04650" stroke="none" stroke-width="1"/><path d="M226.16378,143.08653c0,-0.43749 0.34562,-0.79216 0.77196,-0.79216c0.42633,0 0.77196,0.35465 0.77196,0.79216c0,0.43749 -0.34562,0.79216 -0.77196,0.79216c-0.42633,0 -0.77196,-0.35465 -0.77196,-0.79216z" fill="#f04650" stroke="none" stroke-width="1"/><path d="M245.24651,166.76747c0,-0.43749 0.34562,-0.79216 0.77196,-0.79216c0.42633,0 0.77196,0.35465 0.77196,0.79216c0,0.43749 -0.34562,0.79216 -0.77196,0.79216c-0.42633,0 -0.77196,-0.35465 -0.77196,-0.79216z" fill="#f04650" stroke="none" stroke-width="1"/><path d="M242.81021,142.26036c0,-0.43749 0.34562,-0.79216 0.77196,-0.79216c0.42633,0 0.77196,0.35465 0.77196,0.79216c0,0.43749 -0.34562,0.79216 -0.77196,0.79216c-0.42633,0 -0.77196,-0.35465 -0.77196,-0.79216z" fill="#f04650" stroke="none" stroke-width="1"/><path d="M244.57027,147.33816c0,-0.43749 0.34562,-0.79216 0.77196,-0.79216c0.42633,0 0.77196,0.35465 0.77196,0.79216c0,0.43749 -0.34562,0.79216 -0.77196,0.79216c-0.42633,0 -0.77196,-0.35465 -0.77196,-0.79216z" fill="#f04650" stroke="none" stroke-width="1"/><path d="M238.58608,143.53213c0,-0.43749 0.34562,-0.79216 0.77196,-0.79216c0.42633,0 0.77196,0.35465 0.77196,0.79216c0,0.43749 -0.34562,0.79216 -0.77196,0.79216c-0.42633,0 -0.77196,-0.35465 -0.77196,-0.79216z" fill="#f04650" stroke="none" stroke-width="1"/><path d="M231.95961,169.59571c0,-0.43749 0.34562,-0.79216 0.77196,-0.79216c0.42633,0 0.77196,0.35465 0.77196,0.79216c0,0.43749 -0.34562,0.79216 -0.77196,0.79216c-0.42633,0 -0.77196,-0.35465 -0.77196,-0.79216z" fill="#f04650" stroke="none" stroke-width="1"/><path d="M237.31081,148.44903c0,-0.43749 0.34562,-0.79216 0.77196,-0.79216c0.42633,0 0.77196,0.35465 0.77196,0.79216c0,0.43749 -0.34562,0.79216 -0.77196,0.79216c-0.42633,0 -0.77196,-0.35465 -0.77196,-0.79216z" fill="#f04650" stroke="none" stroke-width="1"/><path d="M228.18322,161.55353c0,-0.43749 0.34562,-0.79216 0.77196,-0.79216c0.42633,0 0.77196,0.35465 0.77196,0.79216c0,0.43749 -0.34562,0.79216 -0.77196,0.79216c-0.42633,0 -0.77196,-0.35465 -0.77196,-0.79216z" fill="#f04650" stroke="none" stroke-width="1"/><path d="M233.46646,153.65679c0,-0.43749 0.34562,-0.79216 0.77196,-0.79216c0.42633,0 0.77196,0.35465 0.77196,0.79216c0,0.43749 -0.34562,0.79216 -0.77196,0.79216c-0.42633,0 -0.77196,-0.35465 -0.77196,-0.79216z" fill="#f04650" stroke="none" stroke-width="1"/><path d="M227.83737,153.44947c0,-0.43749 0.34562,-0.79216 0.77196,-0.79216c0.42633,0 0.77196,0.35465 0.77196,0.79216c0,0.43749 -0.34562,0.79216 -0.77196,0.79216c-0.42633,0 -0.77196,-0.35465 -0.77196,-0.79216z" fill="#f04650" stroke="none" stroke-width="1"/><path d="M252.92901,152.30147c0,-0.43749 0.34562,-0.79216 0.77196,-0.79216c0.42633,0 0.77196,0.35465 0.77196,0.79216c0,0.43749 -0.34562,0.79216 -0.77196,0.79216c-0.42633,0 -0.77196,-0.35465 -0.77196,-0.79216z" fill="#f04650" stroke="none" stroke-width="1"/><path d="M257.81084,143.46713c0,-0.43749 0.34562,-0.79216 0.77196,-0.79216c0.42633,0 0.77196,0.35465 0.77196,0.79216c0,0.43749 -0.34562,0.79216 -0.77196,0.79216c-0.42633,0 -0.77196,-0.35465 -0.77196,-0.79216z" fill="#f04650" stroke="none" stroke-width="1"/><path d="M258.29256,151.26795c0,-0.43749 0.34562,-0.79216 0.77196,-0.79216c0.42633,0 0.77196,0.35465 0.77196,0.79216c0,0.43749 -0.34562,0.79216 -0.77196,0.79216c-0.42633,0 -0.77196,-0.35465 -0.77196,-0.79216z" fill="#f04650" stroke="none" stroke-width="1"/><path d="M260.90485,147.12155c0,-0.43749 0.34562,-0.79216 0.77196,-0.79216c0.42633,0 0.77196,0.35465 0.77196,0.79216c0,0.43749 -0.34562,0.79216 -0.77196,0.79216c-0.42633,0 -0.77196,-0.35465 -0.77196,-0.79216z" fill="#f04650" stroke="none" stroke-width="1"/><path d="M261.05614,139.69824c0,-0.43749 0.34562,-0.79216 0.77196,-0.79216c0.42633,0 0.77196,0.35465 0.77196,0.79216c0,0.43749 -0.34562,0.79216 -0.77196,0.79216c-0.42633,0 -0.77196,-0.35465 -0.77196,-0.79216z" fill="#f04650" stroke="none" stroke-width="1"/><path d="M251.93473,134.79682c0,-0.43749 0.34562,-0.79216 0.77196,-0.79216c0.42633,0 0.77196,0.35465 0.77196,0.79216c0,0.43749 -0.34562,0.79216 -0.77196,0.79216c-0.42633,0 -0.77196,-0.35465 -0.77196,-0.79216z" fill="#f04650" stroke="none" stroke-width="1"/><path d="M221.55675,140.25831c0,-0.43749 0.34562,-0.79216 0.77196,-0.79216c0.42633,0 0.77196,0.35465 0.77196,0.79216c0,0.43749 -0.34562,0.79216 -0.77196,0.79216c-0.42633,0 -0.77196,-0.35465 -0.77196,-0.79216z" fill="#f04650" stroke="none" stroke-width="1"/><path d="M220.21972,150.8688c0,-0.43749 0.34562,-0.79216 0.77196,-0.79216c0.42633,0 0.77196,0.35465 0.77196,0.79216c0,0.43749 -0.34562,0.79216 -0.77196,0.79216c-0.42633,0 -0.77196,-0.35465 -0.77196,-0.79216z" fill="#f04650" stroke="none" stroke-width="1"/><path d="M218.87652,145.98593c0,-0.43749 0.34562,-0.79216 0.77196,-0.79216c0.42633,0 0.77196,0.35465 0.77196,0.79216c0,0.43749 -0.34562,0.79216 -0.77196,0.79216c-0.42633,0 -0.77196,-0.35465 -0.77196,-0.79216z" fill="#f04650" stroke="none" stroke-width="1"/><path d="M242.09075,151.05136c0,-0.43749 0.34562,-0.79216 0.77196,-0.79216c0.42633,0 0.77196,0.35465 0.77196,0.79216c0,0.43749 -0.34562,0.79216 -0.77196,0.79216c-0.42633,0 -0.77196,-0.35465 -0.77196,-0.79216z" fill="#f04650" stroke="none" stroke-width="1"/><path d="M255.52894,158.1281c0,-0.43749 0.34562,-0.79216 0.77196,-0.79216c0.42633,0 0.77196,0.35465 0.77196,0.79216c0,0.43749 -0.34562,0.79216 -0.77196,0.79216c-0.42633,0 -0.77196,-0.35465 -0.77196,-0.79216z" fill="#f04650" stroke="none" stroke-width="1"/><path d="M247.13113,155.37681c-0.39668,-0.15626 -0.58854,-0.61221 -0.42852,-1.0184c0.16,-0.4062 0.61128,-0.60881 1.00795,-0.45255c0.39668,0.15626 0.58854,0.61221 0.42852,1.0184c-0.16,0.4062 -0.61128,0.60881 -1.00795,0.45255z" fill="#f04650" stroke="none" stroke-width="1"/><path d="M249.11245,145.98593c0,-0.43749 0.34562,-0.79216 0.77196,-0.79216c0.42633,0 0.77196,0.35465 0.77196,0.79216c0,0.43749 -0.34562,0.79216 -0.77196,0.79216c-0.42633,0 -0.77196,-0.35465 -0.77196,-0.79216z" fill="#f04650" stroke="none" stroke-width="1"/><path d="M239.47846,157.83104c0,-0.43749 0.34562,-0.79216 0.77196,-0.79216c0.42633,0 0.77196,0.35465 0.77196,0.79216c0,0.43749 -0.34562,0.79216 -0.77196,0.79216c-0.42633,0 -0.77196,-0.35465 -0.77196,-0.79216z" fill="#f04650" stroke="none" stroke-width="1"/><path d="M254.77244,147.56714c0,-0.43749 0.34562,-0.79216 0.77196,-0.79216c0.42633,0 0.77196,0.35465 0.77196,0.79216c0,0.43749 -0.34562,0.79216 -0.77196,0.79216c-0.42633,0 -0.77196,-0.35465 -0.77196,-0.79216z" fill="#f04650" stroke="none" stroke-width="1"/><path d="M255.73891,164.83042c0,-0.43749 0.34562,-0.79216 0.77196,-0.79216c0.42633,0 0.77196,0.35465 0.77196,0.79216c0,0.43749 -0.34562,0.79216 -0.77196,0.79216c-0.42633,0 -0.77196,-0.35465 -0.77196,-0.79216z" fill="#f04650" stroke="none" stroke-width="1"/><path d="M249.28847,160.51074c0,-0.43749 0.34562,-0.79216 0.77196,-0.79216c0.42633,0 0.77196,0.35465 0.77196,0.79216c0,0.43749 -0.34562,0.79216 -0.77196,0.79216c-0.42633,0 -0.77196,-0.35465 -0.77196,-0.79216z" fill="#f04650" stroke="none" stroke-width="1"/><path d="M229.98032,148.49854c0,-0.43749 0.34562,-0.79216 0.77196,-0.79216c0.42633,0 0.77196,0.35465 0.77196,0.79216c0,0.43749 -0.34562,0.79216 -0.77196,0.79216c-0.42633,0 -0.77196,-0.35465 -0.77196,-0.79216z" fill="#f04650" stroke="none" stroke-width="1"/><path d="M224.58898,147.40622c0,-0.43749 0.34562,-0.79216 0.77196,-0.79216c0.42633,0 0.77196,0.35465 0.77196,0.79216c0,0.43749 -0.34562,0.79216 -0.77196,0.79216c-0.42633,0 -0.77196,-0.35465 -0.77196,-0.79216z" fill="#f04650" stroke="none" stroke-width="1"/></g></g></svg>