<svg version="1.1" xmlns="http://www.w3.org/2000/svg" xmlns:xlink="http://www.w3.org/1999/xlink" width="35.5017" height="48.75744" viewBox="0,0,35.5017,48.75744"><g transform="translate(-223.1074,-130.85623)"><g data-paper-data="{&quot;isPaintingLayer&quot;:true}" fill="#f0e6d2" fill-rule="nonzero" stroke="#000000" stroke-linecap="butt" stroke-linejoin="miter" stroke-miterlimit="10" stroke-dasharray="" stroke-dashoffset="0" style="mix-blend-mode: normal"><path d="M257.31638,165.54579c-0.30952,2.16281 -1.98133,10.0561 -8.41139,12.81788c-0.17438,0.07624 -3.95612,1.0629 -6.82023,1.03022c-3.4548,-0.03921 -6.16414,-1.16308 -6.97498,-1.40703c-5.28137,-1.58127 -9.64727,-6.26845 -10.75237,-11.81815c-0.45119,-2.27172 -0.09373,-5.08576 0.28772,-7.35748c0.53838,-3.21046 0.71494,-6.72367 1.86798,-9.77296c1.5236,-4.04248 3.10169,-8.31148 5.93527,-12.26901c0.51004,-0.71004 3.87983,-3.54806 4.51412,-3.85081c1.03179,-0.46592 2.13952,-0.74117 3.26953,-0.81241c1.8767,-0.03267 3.93868,1.06071 5.53203,1.96025c6.38646,3.60469 9.65599,11.80726 11.11637,18.64636c0.8689,4.22249 1.01629,8.56148 0.43594,12.83312z" stroke-width="1.5"/><path d="M257.31638,165.54579c-0.30952,2.16281 -1.98133,10.0561 -8.41139,12.81788c-0.17438,0.07624 -3.95612,1.0629 -6.82023,1.03022c-3.4548,-0.03921 -6.16414,-1.16308 -6.97498,-1.40703c-5.28137,-1.58127 -9.64727,-6.26845 -10.75237,-11.81815c-0.45119,-2.27172 -0.09373,-5.08576 0.28772,-7.35748c0.53838,-3.21046 0.71494,-6.72367 1.86798,-9.77296c1.5236,-4.04248 3.10169,-8.31148 5.93527,-12.26901c0.51004,-0.71004 3.87983,-3.54806 4.51412,-3.85081c1.03179,-0.46592 2.13952,-0.74117 3.26953,-0.81241c1.8767,-0.03267 3.93868,1.06071 5.53203,1.96025c6.38646,3.60469 9.65599,11.80726 11.11637,18.64636c0.8689,4.22249 1.01629,8.56148 0.43594,12.83312z" stroke-width="2.5"/></g></g></svg>