<svg version="1.1" xmlns="http://www.w3.org/2000/svg" xmlns:xlink="http://www.w3.org/1999/xlink" width="77.23474" height="78.20529" viewBox="0,0,77.23474,78.20529"><g transform="translate(-201.38737,-101.86609)"><g data-paper-data="{&quot;isPaintingLayer&quot;:true}" stroke-linecap="butt" stroke-linejoin="miter" stroke-miterlimit="10" stroke-dasharray="" stroke-dashoffset="0" style="mix-blend-mode: normal"><path d="M238.15474,178.70871c-20.54931,-1.00792 -36.37962,-18.71164 -35.35789,-39.54246c1.02173,-20.83091 18.50858,-36.90046 39.05789,-35.89254c20.54944,1.00792 36.37962,18.71164 35.35789,39.54256c-1.02173,20.83081 -18.50845,36.90037 -39.05789,35.89245z" fill="#4e9a06" fill-rule="evenodd" stroke="#000000" stroke-width="2.72535"/><path d="M274.70201,150.06137c-0.52966,1.20515 -1.10766,2.3972 -1.71109,3.58528c-0.62618,1.30475 -1.32739,2.59843 -2.22175,3.82625c-1.03921,1.58154 -2.34525,3.08133 -3.60209,4.58266c-1.38215,1.55085 -2.81502,3.08851 -4.40626,4.54331c-1.63949,1.37071 -3.30686,2.71889 -5.18285,3.94685c-1.24201,0.90945 -2.68614,1.6833 -4.11196,2.45725c-1.44428,0.89476 -3.07435,1.62037 -4.68367,2.37598c-1.28223,0.5614 -2.33953,1.41224 -3.8458,1.72578c-0.45717,-0.48807 0.79267,-0.51784 1.18636,-0.71296c1.74871,-1.06666 3.70894,-1.97434 5.52022,-2.99961c1.55703,-0.83188 3.05377,-1.74874 4.3942,-2.73587c2.39534,-1.87269 4.93301,-3.66567 6.997,-5.71903c0.80045,-0.73988 1.47898,-1.51617 2.14759,-2.31431c2.10185,-2.94552 4.01747,-5.92592 5.81297,-8.9678c0.73214,-1.62272 1.42172,-3.2844 2.08369,-4.92314c0.77886,-2.08724 1.44558,-4.19266 1.76972,-6.34763c0.23098,-1.45228 0.12975,-2.93518 -0.36094,-4.37828c-0.81082,-2.6992 -1.52068,-5.40768 -2.71359,-8.0566c-0.29134,-0.89865 -1.01994,-1.71002 -1.56361,-2.54948c-1.4423,-2.06405 -2.96172,-4.12837 -4.53411,-6.1517c-0.82376,-1.11805 -1.89314,-2.14731 -2.83551,-3.22339c-1.27766,-1.50365 -2.8286,-2.90231 -4.43495,-4.25905c-1.92875,-1.75118 -4.383,-3.18608 -6.67709,-4.71471c-1.86925,-1.17352 -3.70448,-2.37804 -5.58296,-3.54421c0.20599,0.03595 0.40391,0.07012 0.6086,0.10962c2.16524,1.1108 4.25352,2.29566 6.27489,3.525c1.28565,0.7523 2.46799,1.55891 3.56502,2.43487c2.54581,2.02739 5.03989,4.09018 7.25246,6.28505c1.81661,1.88806 3.44099,3.86723 5.24396,5.76117c1.15001,1.38525 2.34409,2.77656 3.28515,4.22926c0.85936,1.56593 1.64779,3.12612 2.37843,4.71655c0.80121,3.32546 1.16214,6.82299 0.98581,10.41802c-0.11945,2.43533 -0.473,4.79638 -1.03785,7.07492zM271.29195,140.56142c0.00726,0.24502 0.00655,0.49783 -0.03642,0.74273c-0.18391,1.2072 -0.38925,2.44033 -0.67732,3.63607c-0.35881,1.36369 -0.78687,2.70705 -1.1971,4.06258c-0.84483,2.76943 -2.15133,5.42651 -3.58113,8.06691c-1.29064,2.45454 -2.98617,4.8157 -4.87575,7.07274c-0.98731,1.26627 -2.26631,2.37869 -3.3996,3.58232c-1.2153,1.03618 -2.44695,2.09846 -3.796,3.05766c-1.42497,1.0291 -2.97579,1.96953 -4.48127,2.94427c-1.03377,0.62079 -1.98404,1.32738 -3.08647,1.89595c-0.86415,0.41116 -1.51787,0.95473 -2.3701,1.37271c-1.12772,-0.14688 -0.18962,-1.03555 0.47837,-1.14643c1.5763,-0.79427 2.8131,-1.82383 4.1659,-2.77358c1.12111,-0.89227 2.42506,-1.67796 3.50452,-2.59335c1.78005,-1.39843 3.40506,-2.88998 4.74956,-4.49994c2.08723,-2.30059 3.68804,-4.80253 5.11834,-7.32676c1.0226,-1.94013 1.90095,-3.89786 2.40236,-5.94439c0.60775,-2.02824 1.2431,-4.05659 1.6433,-6.11464c0.2062,-1.14212 0.50931,-2.28817 0.81998,-3.4163c0.38542,-1.1857 0.29404,-2.3905 0.21513,-3.6056c-0.2716,-1.63685 -0.41055,-3.28368 -0.87221,-4.90849c-0.43607,-1.57246 -0.64794,-3.17051 -1.14937,-4.73602c-0.53183,-1.71808 -1.50199,-3.39259 -2.51731,-5.01581c-1.49359,-2.62231 -3.10288,-5.20172 -4.99461,-7.7165c-0.59107,-0.84567 -1.33922,-1.63753 -2.10752,-2.41664c-2.06541,-2.17935 -4.37818,-4.25703 -6.71375,-6.31176c-0.58109,-0.5586 -1.30892,-1.06997 -2.11474,-1.48639c-0.19899,-0.04399 -0.33211,-0.12493 -0.44904,-0.2347c0.01533,0.02591 0.02087,0.0566 0.0343,0.08135c2.63891,2.74635 5.22485,5.53633 7.80574,8.30636c1.10143,1.09324 1.94421,2.27697 2.70764,3.48293c1.626,2.77546 2.96992,5.60261 4.46171,8.40825c0.93648,1.88469 1.22612,3.86577 1.74961,5.80245c0.52994,1.96605 1.01724,3.94017 1.39839,5.91814c0.00049,0.42908 0.00519,0.84708 -0.02426,1.27509c-0.14093,2.05807 -0.6409,4.07853 -0.95281,6.12188c-0.19638,1.45251 -0.57116,2.90934 -0.94204,4.34101c-0.50279,2.13511 -1.21769,4.22159 -1.99816,6.3099c-0.71608,1.79758 -1.56552,3.57896 -2.71455,5.26431c-1.47548,2.13947 -2.70962,4.38907 -4.83658,6.27707c-1.36401,1.27569 -2.73941,2.53687 -4.21405,3.75506c-1.61535,1.44678 -3.51581,2.76354 -5.11933,4.21588c-0.16029,0.40696 -0.66377,0.35234 -0.85017,0.11783c-0.72119,0.46672 -1.23303,-0.45366 -0.57607,-0.77279c0.61468,-0.51047 1.02119,-1.12497 1.35196,-1.74173c1.13578,-1.51828 2.50632,-2.93601 3.74748,-4.41607c0.94654,-1.07226 1.91526,-2.14628 2.7317,-3.26939c0.76533,-1.07403 1.50118,-2.14386 2.07955,-3.27476c0.72441,-1.19247 1.00827,-2.49744 1.37431,-3.76142c0.39463,-1.70656 0.94257,-3.39615 1.05774,-5.13291c0.24938,-2.1056 0.47315,-4.21129 0.50234,-6.33013c0.05824,-0.90627 0.12354,-1.79845 0.05618,-2.70933c-0.08093,-1.18527 -0.03877,-2.38634 -0.17026,-3.57127c-0.12316,-1.66439 -0.35573,-3.33687 -0.56076,-4.99961c-0.37175,-2.83223 -0.46715,-5.64797 -0.96593,-8.4761c-0.25117,-1.1552 -0.39315,-2.34122 -0.71144,-3.49141c-0.45574,-1.90031 -1.22638,-3.74867 -2.14411,-5.5825c-0.99793,-1.48711 -2.13221,-2.96958 -3.04228,-4.48319c-1.08209,-1.66831 -1.94393,-3.38473 -2.6653,-5.12947c-0.37963,-0.84624 -0.43172,-1.7155 -0.91148,-2.54402c-0.24438,-0.42135 -0.55477,-1.2557 0.29868,-1.39465c0.46782,0.0327 0.70955,0.25275 0.89678,0.49606c0.43923,0.0819 0.77433,0.4098 1.00124,0.71377c-0.14984,-0.30243 -0.03894,-0.638 0.56864,-0.63677c0.8365,0.08051 1.20328,0.73286 1.71039,1.12087c2.39737,1.70181 4.69713,3.46496 6.80023,5.33218c1.79804,1.60963 3.52637,3.26001 5.12992,4.9579c1.77334,2.03865 3.3184,4.16263 4.79566,6.29745c0.9968,1.34692 1.71849,2.75796 2.48227,4.16327c0.69354,1.41406 1.30916,2.82711 1.86327,4.26591c0.89566,2.06552 1.39505,4.19245 1.80143,6.31011c0.08831,0.73638 0.29277,1.46061 0.31442,2.19566zM250.83732,156.17619c-0.0482,0.70433 -0.13112,1.39058 -0.21765,2.0899c-0.25758,1.44903 -0.52754,2.91528 -0.9805,4.33901c-0.36278,1.26647 -1.22779,2.38984 -2.01604,3.54379c-1.63639,2.16288 -3.57477,4.23234 -4.96186,6.48362c-0.8486,1.57508 -1.37625,3.22139 -2.00313,4.84733c-0.0641,0.00114 -0.12876,0.01631 -0.19282,0.01706c-0.02873,-1.0846 -0.03401,-2.16484 0.04387,-3.2417c0.32472,-1.41754 0.2914,-2.91642 1.09147,-4.2539c0.7247,-1.32469 1.71568,-2.5312 2.67989,-3.77706c0.62246,-0.92181 1.5044,-1.80494 1.67452,-2.84264c0.22619,-0.76327 0.07118,-1.563 -0.00037,-2.33989c-0.18294,-1.27511 -0.13134,-2.55656 -0.46479,-3.825c-0.17668,-1.39971 -0.61545,-2.77641 -1.10146,-4.14869c-0.19946,-0.72291 -0.47094,-1.42147 -0.85562,-2.11591c-0.32463,-0.83701 -0.55098,-1.70331 -1.18344,-2.47759c-0.82758,-0.74465 -1.38038,-1.61596 -2.06921,-2.41474c-0.37742,-0.5958 -0.85513,-1.16454 -1.02443,-1.80512c-0.11672,-1.41422 -0.29267,-2.82894 -0.32912,-4.24382c0.01282,-2.17259 -0.0796,-4.34324 0.08903,-6.50985c0.23747,-1.98888 0.65201,-3.9522 0.94358,-5.93628c0.11403,-0.65186 0.13739,-1.37788 -0.36317,-1.98537c-0.53168,-0.57899 -1.38273,-1.04843 -1.64228,-1.72905c-0.32057,-1.05738 -0.11547,-2.13675 0.00307,-3.19055c0.03157,-0.64936 0.24706,-1.26357 0.43827,-1.89293c0.66364,-1.68684 1.51642,-3.34996 2.09019,-5.05563c0.74729,-2.05232 1.13454,-4.12756 1.5717,-6.22454c0.18945,-0.3874 0.06721,-0.9313 0.18121,-1.34717c0.0684,-0.2495 0.21165,-0.43828 0.56603,-0.58375c0.85605,0.11834 0.44135,0.94823 0.46962,1.37907c0.07967,0.95849 0.30027,1.90496 0.39677,2.86447c0.23118,1.88987 0.81772,3.76655 1.79952,5.56558c0.81867,1.31371 1.64374,2.62333 2.22217,3.99097c0.56928,1.02891 0.74354,2.11637 0.9951,3.18627c0.40919,1.38586 0.59603,2.80793 0.71464,4.20949c0.17625,3.51783 0.02923,7.02019 0.17397,10.53773c0.18815,2.77584 0.43691,5.58156 0.70306,8.35682c0.45203,2.80837 0.61126,5.59419 0.62394,8.40618c-0.00468,0.70382 -0.01727,1.41956 -0.0659,2.12386zM242.23822,106.13958c-0.22245,0.5693 -0.57131,1.13601 -0.7367,1.71875c-0.41398,1.47539 -1.06755,2.89377 -1.9363,4.26561c-1.0744,1.83373 -2.44398,3.59028 -3.56589,5.40872c-1.35286,2.40576 -2.54806,4.84586 -3.62138,7.32051c-0.4403,1.2227 -0.73461,2.47391 -0.95045,3.72897c-0.47949,2.24566 -0.79526,4.50237 -1.32849,6.74159c-0.49291,1.60365 -0.61753,3.27772 -0.39518,4.9261c0.1041,1.54223 0.2266,3.07972 0.42577,4.62077c0.30866,1.26899 -0.01907,2.53543 -0.07119,3.79871c-0.04303,0.83691 -0.07723,1.74972 0.68434,2.47974c0.62401,0.68201 1.70497,1.06794 2.6507,1.51268c0.78484,0.35922 1.40969,0.87764 1.57615,1.51312c0.28908,1.15706 0.40885,2.3255 0.82759,3.47059c0.07435,0.72828 0.80858,1.2582 1.56445,1.75175c0.77102,0.592 1.53725,1.21019 2.36964,1.76482c1.27582,0.78048 2.28005,1.74014 2.85501,2.8255c0.07813,0.40432 -0.03808,0.83092 -0.40183,1.15018c-0.80353,1.07208 -2.46514,1.72056 -3.20868,2.82055c-0.44953,0.5644 -0.24604,1.21956 -0.28246,1.84741c0.23185,1.73848 0.51155,3.52042 0.85528,5.25336c-0.00363,0.58482 0.85341,1.30585 0.02899,1.7563c-0.12693,0.01942 -0.24549,0.02325 -0.34589,0.00955c0.16226,0.22161 0.33795,0.44204 0.50476,0.6629c-0.03828,0.00006 -0.07658,-0.00571 -0.11486,-0.00563c-0.17471,-0.23178 -0.36316,-0.4619 -0.54179,-0.69133c-0.43185,-0.14327 -0.57978,-0.59393 -0.72017,-0.9659c-0.41311,-0.53689 -0.82155,-1.06283 -1.22636,-1.60235c-0.23123,-0.25893 -0.46883,-0.5172 -0.69095,-0.77831c-0.92194,-0.99014 -1.7894,-2.00083 -2.61489,-3.02651c-0.78866,-0.70013 -1.71779,-1.33176 -2.54947,-2.01285c-1.30675,-1.08254 -2.61443,-2.16347 -3.71217,-3.34615c-0.67445,-0.58355 -1.14705,-1.25921 -1.63317,-1.91476c-0.74416,-0.9905 -1.20059,-2.04732 -1.72912,-3.08935c-0.77221,-1.78175 -1.61498,-3.5567 -2.00002,-5.38927c-0.30735,-1.53114 -0.5346,-3.06762 -0.6568,-4.60548c-0.19655,-1.46817 -0.15657,-2.93469 -0.32131,-4.40297c-0.07839,-1.53268 -0.07197,-3.07272 -0.11951,-4.60575c-0.00075,-1.79549 -0.06285,-3.5773 0.10961,-5.36556c0.49416,-2.12275 1.19745,-4.21048 1.99684,-6.28335c0.93415,-2.13988 1.7882,-4.31666 2.84833,-6.42775c1.00342,-1.70392 2.09713,-3.38321 3.61784,-4.90105c2.90008,-3.33046 5.98864,-6.5689 9.07842,-9.81808c0.73509,-0.68996 1.37793,-1.44477 1.98803,-2.18912c-0.08564,-0.6045 1.38928,-0.95002 1.62368,-0.23943c-0.0316,0.10776 -0.08895,0.20637 -0.13048,0.31267zM236.17705,177.28657c-2.36601,-1.06117 -4.71068,-2.13552 -6.97706,-3.29362c-2.0147,-0.9434 -3.83829,-2.05188 -5.60002,-3.19945c-1.34119,-0.80826 -2.5552,-1.69786 -3.74859,-2.60351c-3.42065,-2.65763 -6.22551,-5.67933 -8.43186,-8.8422c-0.9141,-1.51186 -1.92811,-2.99828 -2.69379,-4.54585c-1.15529,-2.44306 -2.35153,-4.86315 -3.16997,-7.36108c-0.54947,-2.11884 -0.823,-4.26745 -1.29844,-6.39183c-0.01463,-0.09775 -0.01025,-0.19583 -0.02388,-0.29372c0.00639,-0.42582 0.00336,-0.84627 0.0244,-1.27508c0.13413,-2.73446 0.57881,-5.38077 1.27087,-7.91431c1.06327,-2.19528 2.11518,-4.40848 3.54271,-6.50007c1.25234,-1.58482 2.68761,-3.09642 4.17771,-4.58104c1.29525,-1.34888 2.77473,-2.59696 4.29447,-3.83088c1.8282,-1.55375 4.08359,-2.84296 6.23091,-4.18788c2.04259,-1.3244 4.23823,-2.52937 6.54963,-3.64049c2.64621,-1.36278 5.50867,-2.51454 8.42809,-3.6016c0.22991,-0.06703 0.44364,-0.17162 0.66528,-0.25982c0.00917,-0.00345 0.02958,0.00534 0.03819,0.00188c0.40878,-0.00629 0.81586,-0.00075 1.22775,0.00706l-3.27929,1.9131c-4.74238,2.70641 -9.18633,5.67902 -13.43859,8.72667c-2.10864,1.80144 -3.93513,3.73627 -5.69127,5.7034c-1.06254,1.262 -2.25286,2.46313 -3.32958,3.71867c-0.67953,0.91764 -1.14045,1.92625 -1.63878,2.89753c-0.84096,1.88711 -1.71628,3.75139 -2.35115,5.68107c-0.4132,1.37918 -0.94338,2.78147 -0.93568,4.2083c-0.02644,1.83882 0.40119,3.641 0.57566,5.47894c0.17081,1.76638 0.51506,3.54059 1.00719,5.28743c0.62754,3.01241 2.14698,5.92551 3.48104,8.83877c0.68391,1.65328 1.84206,3.19757 2.95274,4.74472c1.16936,1.65094 2.59178,3.20792 4.18323,4.69867c0.9886,1.01457 2.20142,1.91737 3.3923,2.82523c1.8696,1.24969 3.77279,2.48896 5.65052,3.73378c2.0461,1.33344 4.12019,2.64963 6.17609,3.97213c-0.42362,-0.02984 -0.84193,-0.07044 -1.26089,-0.115z" fill="#356804" fill-rule="nonzero" stroke="none" stroke-width="1"/><path d="M260.84363,120.68234c-2.53654,-3.42424 -6.59409,-5.15278 -4.50182,-6.24735c2.09242,-1.09475 5.84269,0.79444 8.37922,4.21877c2.53589,3.42332 2.89763,7.0853 0.80535,8.17997c-2.09242,1.09475 -2.14766,-2.72899 -4.68276,-6.15139z" fill="#bfef90" fill-rule="evenodd" stroke="none" stroke-width="1"/></g></g></svg>