<svg version="1.1" xmlns="http://www.w3.org/2000/svg" xmlns:xlink="http://www.w3.org/1999/xlink" width="48.31836" height="71.98099" viewBox="0,0,48.31836,71.98099"><g transform="translate(-217.75476,-108.7613)"><g data-paper-data="{&quot;isPaintingLayer&quot;:true}" fill-rule="evenodd" stroke-linecap="butt" stroke-linejoin="miter" stroke-miterlimit="10" stroke-dasharray="" stroke-dashoffset="0" style="mix-blend-mode: normal"><g stroke="none" stroke-width="1"><path d="M235.17354,121.60971c-1.09829,-2.91355 -2.14084,-7.91934 -0.6049,-10.82453c1.4105,-2.66497 3.87747,-0.947 5.05382,3.27948c0.99237,3.556 0.81397,9.41661 0.85856,10.65414c0.05018,1.36596 -0.11428,2.70399 -0.17282,4.06159c-0.04739,1.14533 0.36239,3.05326 -0.04739,4.08682c-2.05441,-3.58959 -3.63217,-7.39424 -5.08727,-11.2575z" fill="#82783c"/><path d="M240.2859,132.81131c-1.62793,0.08384 -3.65169,-1.56988 -4.90609,-2.4722c-0.66901,-0.48321 -8.99262,-7.20978 -11.2589,-10.55351c-1.02303,-1.50848 -1.98473,-3.01131 -1.73663,-4.90532c0.33171,-2.53917 2.06,-3.11746 4.2984,-2.01122c3.47049,1.71518 6.37232,5.55614 8.1926,8.89145c0.90596,1.6565 1.76731,3.35216 2.68441,4.98907c0.88645,1.58945 2.76804,4.19296 2.72621,6.06173z" fill="#a0aa1e"/><path d="M239.97927,132.72191c-0.10592,-1.176 0.67738,-2.74872 0.94498,-3.894c0.27876,-1.22631 0.55751,-2.43311 0.95334,-3.63148c0.74755,-2.46357 1.63831,-4.88121 2.66767,-7.24058c0.92546,-2.03637 1.91505,-4.29624 3.40917,-5.99747c1.2739,-1.45259 3.69629,-2.98616 5.44966,-1.23188c1.51364,1.51684 0.55751,4.65103 0.0223,6.42488c-0.74149,2.38001 -2.04048,4.32426 -3.52347,6.28522c-1.38262,1.82689 -8.04764,8.66244 -9.92366,9.28532z" fill="#a0aa1e"/><path d="M240.22179,132.80296c0.76937,-1.00846 2.03212,-1.84648 2.96595,-2.73479c1.2098,-1.15083 2.44469,-2.27101 3.67399,-3.39677c1.78681,-1.63419 3.69629,-3.31021 6.1995,-3.63148c0.90596,-0.11456 2.55339,-0.17038 2.86559,0.95258c0.27876,1.03355 -1.07878,2.21519 -1.7478,2.77102c-0.99272,0.79265 -2.05547,1.49301 -3.17502,2.09234c-0.62162,0.3575 -8.05879,3.15933 -10.78224,3.9471z" fill="#a0aa1e"/><path d="M240.04338,132.85599c-0.18955,-3.46102 0.21186,-6.85785 0.32335,-10.29657c0.01115,-1.7933 0.2092,-3.58054 0.59096,-5.33264c0.19512,-0.79891 1.18749,-3.63141 2.20215,-2.02244c0.58539,0.92462 0.21186,2.95549 0.17561,3.98626c-0.05296,1.49168 -0.06969,3.12582 -0.57701,4.55325c-0.3345,0.9302 -2.53109,9.12614 -2.71507,9.11215z" fill="#a0aa1e"/></g><g stroke="#000000" stroke-width="1.5"><path d="M235.17354,121.60971c-1.09829,-2.91355 -2.14084,-7.91934 -0.6049,-10.82453c1.4105,-2.66497 3.87747,-0.947 5.05382,3.27948c0.99237,3.556 0.81397,9.41661 0.85856,10.65414c0.05018,1.36596 -0.11428,2.70399 -0.17282,4.06159c-0.04739,1.14533 0.36239,3.05326 -0.04739,4.08682c-2.05441,-3.58959 -3.63217,-7.39424 -5.08727,-11.2575z" fill="#82783c"/><path d="M240.2859,132.81131c-1.62793,0.08384 -3.65169,-1.56988 -4.90609,-2.4722c-0.66901,-0.48321 -8.99262,-7.20978 -11.2589,-10.55351c-1.02303,-1.50848 -1.98473,-3.01131 -1.73663,-4.90532c0.33171,-2.53917 2.06,-3.11746 4.2984,-2.01122c3.47049,1.71518 6.37232,5.55614 8.1926,8.89145c0.90596,1.6565 1.76731,3.35216 2.68441,4.98907c0.88645,1.58945 2.76804,4.19296 2.72621,6.06173z" fill="#a0aa1e"/><path d="M239.97927,132.72191c-0.10592,-1.176 0.67738,-2.74872 0.94498,-3.894c0.27876,-1.22631 0.55751,-2.43311 0.95334,-3.63148c0.74755,-2.46357 1.63831,-4.88121 2.66767,-7.24058c0.92546,-2.03637 1.91505,-4.29624 3.40917,-5.99747c1.2739,-1.45259 3.69629,-2.98616 5.44966,-1.23188c1.51364,1.51684 0.55751,4.65103 0.0223,6.42488c-0.74149,2.38001 -2.04048,4.32426 -3.52347,6.28522c-1.38262,1.82689 -8.04764,8.66244 -9.92366,9.28532z" fill="#a0aa1e"/><path d="M240.22179,132.80296c0.76937,-1.00846 2.03212,-1.84648 2.96595,-2.73479c1.2098,-1.15083 2.44469,-2.27101 3.67399,-3.39677c1.78681,-1.63419 3.69629,-3.31021 6.1995,-3.63148c0.90596,-0.11456 2.55339,-0.17038 2.86559,0.95258c0.27876,1.03355 -1.07878,2.21519 -1.7478,2.77102c-0.99272,0.79265 -2.05547,1.49301 -3.17502,2.09234c-0.62162,0.3575 -8.05879,3.15933 -10.78224,3.9471z" fill="#a0aa1e"/><path d="M240.04338,132.85599c-0.18955,-3.46102 0.21186,-6.85785 0.32335,-10.29657c0.01115,-1.7933 0.2092,-3.58054 0.59096,-5.33264c0.19512,-0.79891 1.18749,-3.63141 2.20215,-2.02244c0.58539,0.92462 0.21186,2.95549 0.17561,3.98626c-0.05296,1.49168 -0.06969,3.12582 -0.57701,4.55325c-0.3345,0.9302 -2.53109,9.12614 -2.71507,9.11215z" fill="#a0aa1e"/></g><g stroke="none" stroke-width="1"><path d="M242.0747,179.99213c-3.03568,0.01449 -6.00356,-0.89901 -8.50786,-2.61853c-1.66397,-1.15801 -2.97667,-2.90272 -4.1014,-4.57015c-1.67938,-2.49196 -3.32795,-5.03646 -4.87792,-7.61486c-2.80634,-4.64003 -4.85951,-9.69729 -6.08276,-14.98273c-0.96141,-4.27989 -1.2634,-12.17569 3.1708,-14.82211c2.27102,-1.36177 5.63595,-2.1399 8.20896,-2.67107c2.22788,-0.46006 4.42494,-1.03752 6.71445,-1.23519c1.30652,-0.10492 2.6254,-0.22541 3.91959,-0.02156c0.99531,0.15746 1.4791,0.70711 2.19707,0.71327c0.13866,0 1.04153,-0.50327 1.29111,-0.56506c0.50782,-0.09969 1.02334,-0.15546 1.54072,-0.16678c1.64549,-0.09568 3.19236,0.16678 4.80706,0.41076c4.16919,0.61752 8.56641,2.21094 11.82965,4.96228c4.07058,3.43072 3.40808,8.68018 2.28026,13.40164c-1.23257,5.20017 -5.63595,17.02079 -9.8606,22.75195c-4.22465,5.73125 -10.027,7.04055 -12.52914,7.02815z" fill="#f01446"/><path d="M221.72487,138.9905c0,0 0.44066,-1.16416 2.38812,-2.18935c2.45967,-1.20593 5.22065,-1.65504 7.9347,-1.29073c6.30771,0.97265 5.52194,21.80396 -1.99676,21.80396c-4.07366,0 -6.82848,-1.75703 -8.1196,-5.74357c-1.09083,-3.37209 -1.87351,-8.57217 -0.20646,-12.58028z" fill="#f00a78"/><path d="M237.27073,164.86431c0,-0.43659 0.34489,-0.79052 0.77037,-0.79052c0.42545,0 0.77037,0.35392 0.77037,0.79052c0,0.43659 -0.34489,0.79052 -0.77037,0.79052c-0.42545,0 -0.77037,-0.35392 -0.77037,-0.79052z" fill="#f04650"/><path d="M251.95995,143.00788c0,-0.43659 0.34489,-0.79052 0.77037,-0.79052c0.42545,0 0.77037,0.35392 0.77037,0.79052c0,0.43659 -0.34489,0.79052 -0.77037,0.79052c-0.42545,0 -0.77037,-0.35392 -0.77037,-0.79052z" fill="#f04650"/><path d="M249.54102,139.33015c0,-0.43659 0.34489,-0.79052 0.77037,-0.79052c0.42545,0 0.77037,0.35392 0.77037,0.79052c0,0.43659 -0.34489,0.79052 -0.77037,0.79052c-0.42545,0 -0.77037,-0.35392 -0.77037,-0.79052z" fill="#f04650"/><path d="M254.95819,139.69762c0,-0.43659 0.34489,-0.79052 0.77037,-0.79052c0.42545,0 0.77037,0.35392 0.77037,0.79052c0,0.43659 -0.34489,0.79052 -0.77037,0.79052c-0.42545,0 -0.77037,-0.35392 -0.77037,-0.79052z" fill="#f04650"/><path d="M246.16993,135.63387c0,-0.43659 0.34489,-0.79052 0.77037,-0.79052c0.42545,0 0.77037,0.35392 0.77037,0.79052c0,0.43659 -0.34489,0.79052 -0.77037,0.79052c-0.42545,0 -0.77037,-0.35392 -0.77037,-0.79052z" fill="#f04650"/><path d="M239.86222,137.61633c0,-0.43659 0.34489,-0.79052 0.77037,-0.79052c0.42545,0 0.77037,0.35392 0.77037,0.79052c0,0.43659 -0.34489,0.79052 -0.77037,0.79052c-0.42545,0 -0.77037,-0.35392 -0.77037,-0.79052z" fill="#f04650"/><path d="M234.68848,137.07286c0,-0.43659 0.34489,-0.79052 0.77037,-0.79052c0.42545,0 0.77037,0.35392 0.77037,0.79052c0,0.43659 -0.34489,0.79052 -0.77037,0.79052c-0.42545,0 -0.77037,-0.35392 -0.77037,-0.79052z" fill="#f04650"/><path d="M228.13426,136.92464c0,-0.43659 0.34489,-0.79052 0.77037,-0.79052c0.42545,0 0.77037,0.35392 0.77037,0.79052c0,0.43659 -0.34489,0.79052 -0.77037,0.79052c-0.42545,0 -0.77037,-0.35392 -0.77037,-0.79052z" fill="#f04650"/><path d="M232.778,143.40006c0,-0.43659 0.34489,-0.79052 0.77037,-0.79052c0.42545,0 0.77037,0.35392 0.77037,0.79052c0,0.43659 -0.34489,0.79052 -0.77037,0.79052c-0.42545,0 -0.77037,-0.35392 -0.77037,-0.79052z" fill="#f04650"/><path d="M226.14673,143.01714c0,-0.43659 0.34489,-0.79052 0.77037,-0.79052c0.42545,0 0.77037,0.35392 0.77037,0.79052c0,0.43659 -0.34489,0.79052 -0.77037,0.79052c-0.42545,0 -0.77037,-0.35392 -0.77037,-0.79052z" fill="#f04650"/><path d="M245.19003,166.64915c0,-0.43659 0.34489,-0.79052 0.77037,-0.79052c0.42545,0 0.77037,0.35392 0.77037,0.79052c0,0.43659 -0.34489,0.79052 -0.77037,0.79052c-0.42545,0 -0.77037,-0.35392 -0.77037,-0.79052z" fill="#f04650"/><path d="M242.75877,142.19268c0,-0.43659 0.34489,-0.79052 0.77037,-0.79052c0.42545,0 0.77037,0.35392 0.77037,0.79052c0,0.43659 -0.34489,0.79052 -0.77037,0.79052c-0.42545,0 -0.77037,-0.35392 -0.77037,-0.79052z" fill="#f04650"/><path d="M244.51518,147.25998c0,-0.43659 0.34489,-0.79052 0.77037,-0.79052c0.42545,0 0.77037,0.35392 0.77037,0.79052c0,0.43659 -0.34489,0.79052 -0.77037,0.79052c-0.42545,0 -0.77037,-0.35392 -0.77037,-0.79052z" fill="#f04650"/><path d="M238.54336,143.46181c0,-0.43659 0.34489,-0.79052 0.77037,-0.79052c0.42545,0 0.77037,0.35392 0.77037,0.79052c0,0.43659 -0.34489,0.79052 -0.77037,0.79052c-0.42545,0 -0.77037,-0.35392 -0.77037,-0.79052z" fill="#f04650"/><path d="M231.93059,169.47154c0,-0.43659 0.34489,-0.79052 0.77037,-0.79052c0.42545,0 0.77037,0.35392 0.77037,0.79052c0,0.43659 -0.34489,0.79052 -0.77037,0.79052c-0.42545,0 -0.77037,-0.35392 -0.77037,-0.79052z" fill="#f04650"/><path d="M237.27073,148.36855c0,-0.43659 0.34489,-0.79052 0.77037,-0.79052c0.42545,0 0.77037,0.35392 0.77037,0.79052c0,0.43659 -0.34489,0.79052 -0.77037,0.79052c-0.42545,0 -0.77037,-0.35392 -0.77037,-0.79052z" fill="#f04650"/><path d="M228.162,161.44597c0,-0.43659 0.34489,-0.79052 0.77037,-0.79052c0.42545,0 0.77037,0.35392 0.77037,0.79052c0,0.43659 -0.34489,0.79052 -0.77037,0.79052c-0.42545,0 -0.77037,-0.35392 -0.77037,-0.79052z" fill="#f04650"/><path d="M233.43433,153.56555c0,-0.43659 0.34489,-0.79052 0.77037,-0.79052c0.42545,0 0.77037,0.35392 0.77037,0.79052c0,0.43659 -0.34489,0.79052 -0.77037,0.79052c-0.42545,0 -0.77037,-0.35392 -0.77037,-0.79052z" fill="#f04650"/><path d="M227.81687,153.35866c0,-0.43659 0.34489,-0.79052 0.77037,-0.79052c0.42545,0 0.77037,0.35392 0.77037,0.79052c0,0.43659 -0.34489,0.79052 -0.77037,0.79052c-0.42545,0 -0.77037,-0.35392 -0.77037,-0.79052z" fill="#f04650"/><path d="M252.85665,152.21303c0,-0.43659 0.34489,-0.79052 0.77037,-0.79052c0.42545,0 0.77037,0.35392 0.77037,0.79052c0,0.43659 -0.34489,0.79052 -0.77037,0.79052c-0.42545,0 -0.77037,-0.35392 -0.77037,-0.79052z" fill="#f04650"/><path d="M257.72839,143.39697c0,-0.43659 0.34489,-0.79052 0.77037,-0.79052c0.42545,0 0.77037,0.35392 0.77037,0.79052c0,0.43659 -0.34489,0.79052 -0.77037,0.79052c-0.42545,0 -0.77037,-0.35392 -0.77037,-0.79052z" fill="#f04650"/><path d="M258.20912,151.18165c0,-0.43659 0.34489,-0.79052 0.77037,-0.79052c0.42545,0 0.77037,0.35392 0.77037,0.79052c0,0.43659 -0.34489,0.79052 -0.77037,0.79052c-0.42545,0 -0.77037,-0.35392 -0.77037,-0.79052z" fill="#f04650"/><path d="M260.81601,147.04383c0,-0.43659 0.34489,-0.79052 0.77037,-0.79052c0.42545,0 0.77037,0.35392 0.77037,0.79052c0,0.43659 -0.34489,0.79052 -0.77037,0.79052c-0.42545,0 -0.77037,-0.35392 -0.77037,-0.79052z" fill="#f04650"/><path d="M260.967,139.63585c0,-0.43659 0.34489,-0.79052 0.77037,-0.79052c0.42545,0 0.77037,0.35392 0.77037,0.79052c0,0.43659 -0.34489,0.79052 -0.77037,0.79052c-0.42545,0 -0.77037,-0.35392 -0.77037,-0.79052z" fill="#f04650"/><path d="M251.86442,134.74456c0,-0.43659 0.34489,-0.79052 0.77037,-0.79052c0.42545,0 0.77037,0.35392 0.77037,0.79052c0,0.43659 -0.34489,0.79052 -0.77037,0.79052c-0.42545,0 -0.77037,-0.35392 -0.77037,-0.79052z" fill="#f04650"/><path d="M221.54923,140.19477c0,-0.43659 0.34489,-0.79052 0.77037,-0.79052c0.42545,0 0.77037,0.35392 0.77037,0.79052c0,0.43659 -0.34489,0.79052 -0.77037,0.79052c-0.42545,0 -0.77037,-0.35392 -0.77037,-0.79052z" fill="#f04650"/><path d="M220.21496,150.78332c0,-0.43659 0.34489,-0.79052 0.77037,-0.79052c0.42545,0 0.77037,0.35392 0.77037,0.79052c0,0.43659 -0.34489,0.79052 -0.77037,0.79052c-0.42545,0 -0.77037,-0.35392 -0.77037,-0.79052z" fill="#f04650"/><path d="M218.87453,145.91054c0,-0.43659 0.34489,-0.79052 0.77037,-0.79052c0.42545,0 0.77037,0.35392 0.77037,0.79052c0,0.43659 -0.34489,0.79052 -0.77037,0.79052c-0.42545,0 -0.77037,-0.35392 -0.77037,-0.79052z" fill="#f04650"/><path d="M242.0408,150.96552c0,-0.43659 0.34489,-0.79052 0.77037,-0.79052c0.42545,0 0.77037,0.35392 0.77037,0.79052c0,0.43659 -0.34489,0.79052 -0.77037,0.79052c-0.42545,0 -0.77037,-0.35392 -0.77037,-0.79052z" fill="#f04650"/><path d="M255.45122,158.02763c0,-0.43659 0.34489,-0.79052 0.77037,-0.79052c0.42545,0 0.77037,0.35392 0.77037,0.79052c0,0.43659 -0.34489,0.79052 -0.77037,0.79052c-0.42545,0 -0.77037,-0.35392 -0.77037,-0.79052z" fill="#f04650"/><path d="M247.07075,155.28202c-0.39586,-0.15594 -0.58733,-0.61094 -0.42764,-1.0163c0.15968,-0.40536 0.61002,-0.60754 1.00587,-0.45163c0.39586,0.15594 0.58733,0.61094 0.42764,1.0163c-0.15968,0.40536 -0.61002,0.60754 -1.00587,0.45163z" fill="#f04650"/><path d="M249.04798,145.91054c0,-0.43659 0.34489,-0.79052 0.77037,-0.79052c0.42545,0 0.77037,0.35392 0.77037,0.79052c0,0.43659 -0.34489,0.79052 -0.77037,0.79052c-0.42545,0 -0.77037,-0.35392 -0.77037,-0.79052z" fill="#f04650"/><path d="M239.43391,157.73119c0,-0.43659 0.34489,-0.79052 0.77037,-0.79052c0.42545,0 0.77037,0.35392 0.77037,0.79052c0,0.43659 -0.34489,0.79052 -0.77037,0.79052c-0.42545,0 -0.77037,-0.35392 -0.77037,-0.79052z" fill="#f04650"/><path d="M254.69627,147.48849c0,-0.43659 0.34489,-0.79052 0.77037,-0.79052c0.42545,0 0.77037,0.35392 0.77037,0.79052c0,0.43659 -0.34489,0.79052 -0.77037,0.79052c-0.42545,0 -0.77037,-0.35392 -0.77037,-0.79052z" fill="#f04650"/><path d="M255.66075,164.7161c0,-0.43659 0.34489,-0.79052 0.77037,-0.79052c0.42545,0 0.77037,0.35392 0.77037,0.79052c0,0.43659 -0.34489,0.79052 -0.77037,0.79052c-0.42545,0 -0.77037,-0.35392 -0.77037,-0.79052z" fill="#f04650"/><path d="M249.22363,160.40534c0,-0.43659 0.34489,-0.79052 0.77037,-0.79052c0.42545,0 0.77037,0.35392 0.77037,0.79052c0,0.43659 -0.34489,0.79052 -0.77037,0.79052c-0.42545,0 -0.77037,-0.35392 -0.77037,-0.79052z" fill="#f04650"/><path d="M229.95539,148.41797c0,-0.43659 0.34489,-0.79052 0.77037,-0.79052c0.42545,0 0.77037,0.35392 0.77037,0.79052c0,0.43659 -0.34489,0.79052 -0.77037,0.79052c-0.42545,0 -0.77037,-0.35392 -0.77037,-0.79052z" fill="#f04650"/><path d="M224.57519,147.3279c0,-0.43659 0.34489,-0.79052 0.77037,-0.79052c0.42545,0 0.77037,0.35392 0.77037,0.79052c0,0.43659 -0.34489,0.79052 -0.77037,0.79052c-0.42545,0 -0.77037,-0.35392 -0.77037,-0.79052z" fill="#f04650"/></g><g stroke="none" stroke-width="1"><path d="M242.0747,179.99213c-3.03568,0.01449 -6.00356,-0.89901 -8.50786,-2.61853c-1.66397,-1.15801 -2.97667,-2.90272 -4.1014,-4.57015c-1.67938,-2.49196 -3.32795,-5.03646 -4.87792,-7.61486c-2.80634,-4.64003 -4.85951,-9.69729 -6.08276,-14.98273c-0.96141,-4.27989 -1.2634,-12.17569 3.1708,-14.82211c2.27102,-1.36177 5.63595,-2.1399 8.20896,-2.67107c2.22788,-0.46006 4.42494,-1.03752 6.71445,-1.23519c1.30652,-0.10492 2.6254,-0.22541 3.91959,-0.02156c0.99531,0.15746 1.4791,0.70711 2.19707,0.71327c0.13866,0 1.04153,-0.50327 1.29111,-0.56506c0.50782,-0.09969 1.02334,-0.15546 1.54072,-0.16678c1.64549,-0.09568 3.19236,0.16678 4.80706,0.41076c4.16919,0.61752 8.56641,2.21094 11.82965,4.96228c4.07058,3.43072 3.40808,8.68018 2.28026,13.40164c-1.23257,5.20017 -5.63595,17.02079 -9.8606,22.75195c-4.22465,5.73125 -10.027,7.04055 -12.52914,7.02815z" fill="#f01446"/><path d="M221.72487,138.9905c0,0 0.44066,-1.16416 2.38812,-2.18935c2.45967,-1.20593 5.22065,-1.65504 7.9347,-1.29073c6.30771,0.97265 5.52194,21.80396 -1.99676,21.80396c-4.07366,0 -6.82848,-1.75703 -8.1196,-5.74357c-1.09083,-3.37209 -1.87351,-8.57217 -0.20646,-12.58028z" fill="#f00a78"/><path d="M237.27073,164.86431c0,-0.43659 0.34489,-0.79052 0.77037,-0.79052c0.42545,0 0.77037,0.35392 0.77037,0.79052c0,0.43659 -0.34489,0.79052 -0.77037,0.79052c-0.42545,0 -0.77037,-0.35392 -0.77037,-0.79052z" fill="#f04650"/><path d="M251.95995,143.00788c0,-0.43659 0.34489,-0.79052 0.77037,-0.79052c0.42545,0 0.77037,0.35392 0.77037,0.79052c0,0.43659 -0.34489,0.79052 -0.77037,0.79052c-0.42545,0 -0.77037,-0.35392 -0.77037,-0.79052z" fill="#f04650"/><path d="M249.54102,139.33015c0,-0.43659 0.34489,-0.79052 0.77037,-0.79052c0.42545,0 0.77037,0.35392 0.77037,0.79052c0,0.43659 -0.34489,0.79052 -0.77037,0.79052c-0.42545,0 -0.77037,-0.35392 -0.77037,-0.79052z" fill="#f04650"/><path d="M254.95819,139.69762c0,-0.43659 0.34489,-0.79052 0.77037,-0.79052c0.42545,0 0.77037,0.35392 0.77037,0.79052c0,0.43659 -0.34489,0.79052 -0.77037,0.79052c-0.42545,0 -0.77037,-0.35392 -0.77037,-0.79052z" fill="#f04650"/><path d="M246.16993,135.63387c0,-0.43659 0.34489,-0.79052 0.77037,-0.79052c0.42545,0 0.77037,0.35392 0.77037,0.79052c0,0.43659 -0.34489,0.79052 -0.77037,0.79052c-0.42545,0 -0.77037,-0.35392 -0.77037,-0.79052z" fill="#f04650"/><path d="M239.86222,137.61633c0,-0.43659 0.34489,-0.79052 0.77037,-0.79052c0.42545,0 0.77037,0.35392 0.77037,0.79052c0,0.43659 -0.34489,0.79052 -0.77037,0.79052c-0.42545,0 -0.77037,-0.35392 -0.77037,-0.79052z" fill="#f04650"/><path d="M234.68848,137.07286c0,-0.43659 0.34489,-0.79052 0.77037,-0.79052c0.42545,0 0.77037,0.35392 0.77037,0.79052c0,0.43659 -0.34489,0.79052 -0.77037,0.79052c-0.42545,0 -0.77037,-0.35392 -0.77037,-0.79052z" fill="#f04650"/><path d="M228.13426,136.92464c0,-0.43659 0.34489,-0.79052 0.77037,-0.79052c0.42545,0 0.77037,0.35392 0.77037,0.79052c0,0.43659 -0.34489,0.79052 -0.77037,0.79052c-0.42545,0 -0.77037,-0.35392 -0.77037,-0.79052z" fill="#f04650"/><path d="M232.778,143.40006c0,-0.43659 0.34489,-0.79052 0.77037,-0.79052c0.42545,0 0.77037,0.35392 0.77037,0.79052c0,0.43659 -0.34489,0.79052 -0.77037,0.79052c-0.42545,0 -0.77037,-0.35392 -0.77037,-0.79052z" fill="#f04650"/><path d="M226.14673,143.01714c0,-0.43659 0.34489,-0.79052 0.77037,-0.79052c0.42545,0 0.77037,0.35392 0.77037,0.79052c0,0.43659 -0.34489,0.79052 -0.77037,0.79052c-0.42545,0 -0.77037,-0.35392 -0.77037,-0.79052z" fill="#f04650"/><path d="M245.19003,166.64915c0,-0.43659 0.34489,-0.79052 0.77037,-0.79052c0.42545,0 0.77037,0.35392 0.77037,0.79052c0,0.43659 -0.34489,0.79052 -0.77037,0.79052c-0.42545,0 -0.77037,-0.35392 -0.77037,-0.79052z" fill="#f04650"/><path d="M242.75877,142.19268c0,-0.43659 0.34489,-0.79052 0.77037,-0.79052c0.42545,0 0.77037,0.35392 0.77037,0.79052c0,0.43659 -0.34489,0.79052 -0.77037,0.79052c-0.42545,0 -0.77037,-0.35392 -0.77037,-0.79052z" fill="#f04650"/><path d="M244.51518,147.25998c0,-0.43659 0.34489,-0.79052 0.77037,-0.79052c0.42545,0 0.77037,0.35392 0.77037,0.79052c0,0.43659 -0.34489,0.79052 -0.77037,0.79052c-0.42545,0 -0.77037,-0.35392 -0.77037,-0.79052z" fill="#f04650"/><path d="M238.54336,143.46181c0,-0.43659 0.34489,-0.79052 0.77037,-0.79052c0.42545,0 0.77037,0.35392 0.77037,0.79052c0,0.43659 -0.34489,0.79052 -0.77037,0.79052c-0.42545,0 -0.77037,-0.35392 -0.77037,-0.79052z" fill="#f04650"/><path d="M231.93059,169.47154c0,-0.43659 0.34489,-0.79052 0.77037,-0.79052c0.42545,0 0.77037,0.35392 0.77037,0.79052c0,0.43659 -0.34489,0.79052 -0.77037,0.79052c-0.42545,0 -0.77037,-0.35392 -0.77037,-0.79052z" fill="#f04650"/><path d="M237.27073,148.36855c0,-0.43659 0.34489,-0.79052 0.77037,-0.79052c0.42545,0 0.77037,0.35392 0.77037,0.79052c0,0.43659 -0.34489,0.79052 -0.77037,0.79052c-0.42545,0 -0.77037,-0.35392 -0.77037,-0.79052z" fill="#f04650"/><path d="M228.162,161.44597c0,-0.43659 0.34489,-0.79052 0.77037,-0.79052c0.42545,0 0.77037,0.35392 0.77037,0.79052c0,0.43659 -0.34489,0.79052 -0.77037,0.79052c-0.42545,0 -0.77037,-0.35392 -0.77037,-0.79052z" fill="#f04650"/><path d="M233.43433,153.56555c0,-0.43659 0.34489,-0.79052 0.77037,-0.79052c0.42545,0 0.77037,0.35392 0.77037,0.79052c0,0.43659 -0.34489,0.79052 -0.77037,0.79052c-0.42545,0 -0.77037,-0.35392 -0.77037,-0.79052z" fill="#f04650"/><path d="M227.81687,153.35866c0,-0.43659 0.34489,-0.79052 0.77037,-0.79052c0.42545,0 0.77037,0.35392 0.77037,0.79052c0,0.43659 -0.34489,0.79052 -0.77037,0.79052c-0.42545,0 -0.77037,-0.35392 -0.77037,-0.79052z" fill="#f04650"/><path d="M252.85665,152.21303c0,-0.43659 0.34489,-0.79052 0.77037,-0.79052c0.42545,0 0.77037,0.35392 0.77037,0.79052c0,0.43659 -0.34489,0.79052 -0.77037,0.79052c-0.42545,0 -0.77037,-0.35392 -0.77037,-0.79052z" fill="#f04650"/><path d="M257.72839,143.39697c0,-0.43659 0.34489,-0.79052 0.77037,-0.79052c0.42545,0 0.77037,0.35392 0.77037,0.79052c0,0.43659 -0.34489,0.79052 -0.77037,0.79052c-0.42545,0 -0.77037,-0.35392 -0.77037,-0.79052z" fill="#f04650"/><path d="M258.20912,151.18165c0,-0.43659 0.34489,-0.79052 0.77037,-0.79052c0.42545,0 0.77037,0.35392 0.77037,0.79052c0,0.43659 -0.34489,0.79052 -0.77037,0.79052c-0.42545,0 -0.77037,-0.35392 -0.77037,-0.79052z" fill="#f04650"/><path d="M260.81601,147.04383c0,-0.43659 0.34489,-0.79052 0.77037,-0.79052c0.42545,0 0.77037,0.35392 0.77037,0.79052c0,0.43659 -0.34489,0.79052 -0.77037,0.79052c-0.42545,0 -0.77037,-0.35392 -0.77037,-0.79052z" fill="#f04650"/><path d="M260.967,139.63585c0,-0.43659 0.34489,-0.79052 0.77037,-0.79052c0.42545,0 0.77037,0.35392 0.77037,0.79052c0,0.43659 -0.34489,0.79052 -0.77037,0.79052c-0.42545,0 -0.77037,-0.35392 -0.77037,-0.79052z" fill="#f04650"/><path d="M251.86442,134.74456c0,-0.43659 0.34489,-0.79052 0.77037,-0.79052c0.42545,0 0.77037,0.35392 0.77037,0.79052c0,0.43659 -0.34489,0.79052 -0.77037,0.79052c-0.42545,0 -0.77037,-0.35392 -0.77037,-0.79052z" fill="#f04650"/><path d="M221.54923,140.19477c0,-0.43659 0.34489,-0.79052 0.77037,-0.79052c0.42545,0 0.77037,0.35392 0.77037,0.79052c0,0.43659 -0.34489,0.79052 -0.77037,0.79052c-0.42545,0 -0.77037,-0.35392 -0.77037,-0.79052z" fill="#f04650"/><path d="M220.21496,150.78332c0,-0.43659 0.34489,-0.79052 0.77037,-0.79052c0.42545,0 0.77037,0.35392 0.77037,0.79052c0,0.43659 -0.34489,0.79052 -0.77037,0.79052c-0.42545,0 -0.77037,-0.35392 -0.77037,-0.79052z" fill="#f04650"/><path d="M218.87453,145.91054c0,-0.43659 0.34489,-0.79052 0.77037,-0.79052c0.42545,0 0.77037,0.35392 0.77037,0.79052c0,0.43659 -0.34489,0.79052 -0.77037,0.79052c-0.42545,0 -0.77037,-0.35392 -0.77037,-0.79052z" fill="#f04650"/><path d="M242.0408,150.96552c0,-0.43659 0.34489,-0.79052 0.77037,-0.79052c0.42545,0 0.77037,0.35392 0.77037,0.79052c0,0.43659 -0.34489,0.79052 -0.77037,0.79052c-0.42545,0 -0.77037,-0.35392 -0.77037,-0.79052z" fill="#f04650"/><path d="M255.45122,158.02763c0,-0.43659 0.34489,-0.79052 0.77037,-0.79052c0.42545,0 0.77037,0.35392 0.77037,0.79052c0,0.43659 -0.34489,0.79052 -0.77037,0.79052c-0.42545,0 -0.77037,-0.35392 -0.77037,-0.79052z" fill="#f04650"/><path d="M247.07075,155.28202c-0.39586,-0.15594 -0.58733,-0.61094 -0.42764,-1.0163c0.15968,-0.40536 0.61002,-0.60754 1.00587,-0.45163c0.39586,0.15594 0.58733,0.61094 0.42764,1.0163c-0.15968,0.40536 -0.61002,0.60754 -1.00587,0.45163z" fill="#f04650"/><path d="M249.04798,145.91054c0,-0.43659 0.34489,-0.79052 0.77037,-0.79052c0.42545,0 0.77037,0.35392 0.77037,0.79052c0,0.43659 -0.34489,0.79052 -0.77037,0.79052c-0.42545,0 -0.77037,-0.35392 -0.77037,-0.79052z" fill="#f04650"/><path d="M239.43391,157.73119c0,-0.43659 0.34489,-0.79052 0.77037,-0.79052c0.42545,0 0.77037,0.35392 0.77037,0.79052c0,0.43659 -0.34489,0.79052 -0.77037,0.79052c-0.42545,0 -0.77037,-0.35392 -0.77037,-0.79052z" fill="#f04650"/><path d="M254.69627,147.48849c0,-0.43659 0.34489,-0.79052 0.77037,-0.79052c0.42545,0 0.77037,0.35392 0.77037,0.79052c0,0.43659 -0.34489,0.79052 -0.77037,0.79052c-0.42545,0 -0.77037,-0.35392 -0.77037,-0.79052z" fill="#f04650"/><path d="M255.66075,164.7161c0,-0.43659 0.34489,-0.79052 0.77037,-0.79052c0.42545,0 0.77037,0.35392 0.77037,0.79052c0,0.43659 -0.34489,0.79052 -0.77037,0.79052c-0.42545,0 -0.77037,-0.35392 -0.77037,-0.79052z" fill="#f04650"/><path d="M249.22363,160.40534c0,-0.43659 0.34489,-0.79052 0.77037,-0.79052c0.42545,0 0.77037,0.35392 0.77037,0.79052c0,0.43659 -0.34489,0.79052 -0.77037,0.79052c-0.42545,0 -0.77037,-0.35392 -0.77037,-0.79052z" fill="#f04650"/><path d="M229.95539,148.41797c0,-0.43659 0.34489,-0.79052 0.77037,-0.79052c0.42545,0 0.77037,0.35392 0.77037,0.79052c0,0.43659 -0.34489,0.79052 -0.77037,0.79052c-0.42545,0 -0.77037,-0.35392 -0.77037,-0.79052z" fill="#f04650"/><path d="M224.57519,147.3279c0,-0.43659 0.34489,-0.79052 0.77037,-0.79052c0.42545,0 0.77037,0.35392 0.77037,0.79052c0,0.43659 -0.34489,0.79052 -0.77037,0.79052c-0.42545,0 -0.77037,-0.35392 -0.77037,-0.79052z" fill="#f04650"/></g><path d="M242.0747,179.99213c-3.03568,0.01449 -6.00356,-0.89901 -8.50786,-2.61853c-1.66397,-1.15801 -2.97667,-2.90272 -4.1014,-4.57015c-1.67938,-2.49196 -3.32795,-5.03646 -4.87792,-7.61486c-2.80634,-4.64003 -4.85951,-9.69729 -6.08276,-14.98273c-0.96141,-4.27989 -1.2634,-12.17569 3.1708,-14.82211c2.27102,-1.36177 5.63595,-2.1399 8.20896,-2.67107c2.22788,-0.46006 4.42494,-1.03752 6.71445,-1.23519c1.30652,-0.10492 2.6254,-0.22541 3.91959,-0.02156c0.99531,0.15746 1.4791,0.70711 2.19707,0.71327c0.13866,0 1.04153,-0.50327 1.29111,-0.56506c0.50782,-0.09969 1.02334,-0.15546 1.54072,-0.16678c1.64549,-0.09568 3.19236,0.16678 4.80706,0.41076c4.16919,0.61752 8.56641,2.21094 11.82965,4.96228c4.07058,3.43072 3.40808,8.68018 2.28026,13.40164c-1.23257,5.20017 -5.63595,17.02079 -9.8606,22.75195c-4.22465,5.73125 -10.027,7.04055 -12.52914,7.02815z" fill="#f01446" stroke="#000000" stroke-width="1.5"/><path d="M221.72487,138.9905c0,0 0.44066,-1.16416 2.38812,-2.18935c2.45967,-1.20593 5.22065,-1.65504 7.9347,-1.29073c6.30771,0.97265 5.52194,21.80396 -1.99676,21.80396c-4.07366,0 -6.82848,-1.75703 -8.1196,-5.74357c-1.09083,-3.37209 -1.87351,-8.57217 -0.20646,-12.58028z" fill="#f00a78" stroke="none" stroke-width="1"/><path d="M237.27073,164.86431c0,-0.43659 0.34489,-0.79052 0.77037,-0.79052c0.42545,0 0.77037,0.35392 0.77037,0.79052c0,0.43659 -0.34489,0.79052 -0.77037,0.79052c-0.42545,0 -0.77037,-0.35392 -0.77037,-0.79052z" fill="#f04650" stroke="none" stroke-width="1"/><path d="M251.95995,143.00788c0,-0.43659 0.34489,-0.79052 0.77037,-0.79052c0.42545,0 0.77037,0.35392 0.77037,0.79052c0,0.43659 -0.34489,0.79052 -0.77037,0.79052c-0.42545,0 -0.77037,-0.35392 -0.77037,-0.79052z" fill="#f04650" stroke="none" stroke-width="1"/><path d="M249.54102,139.33015c0,-0.43659 0.34489,-0.79052 0.77037,-0.79052c0.42545,0 0.77037,0.35392 0.77037,0.79052c0,0.43659 -0.34489,0.79052 -0.77037,0.79052c-0.42545,0 -0.77037,-0.35392 -0.77037,-0.79052z" fill="#f04650" stroke="none" stroke-width="1"/><path d="M254.95819,139.69762c0,-0.43659 0.34489,-0.79052 0.77037,-0.79052c0.42545,0 0.77037,0.35392 0.77037,0.79052c0,0.43659 -0.34489,0.79052 -0.77037,0.79052c-0.42545,0 -0.77037,-0.35392 -0.77037,-0.79052z" fill="#f04650" stroke="none" stroke-width="1"/><path d="M246.16993,135.63387c0,-0.43659 0.34489,-0.79052 0.77037,-0.79052c0.42545,0 0.77037,0.35392 0.77037,0.79052c0,0.43659 -0.34489,0.79052 -0.77037,0.79052c-0.42545,0 -0.77037,-0.35392 -0.77037,-0.79052z" fill="#f04650" stroke="none" stroke-width="1"/><path d="M239.86222,137.61633c0,-0.43659 0.34489,-0.79052 0.77037,-0.79052c0.42545,0 0.77037,0.35392 0.77037,0.79052c0,0.43659 -0.34489,0.79052 -0.77037,0.79052c-0.42545,0 -0.77037,-0.35392 -0.77037,-0.79052z" fill="#f04650" stroke="none" stroke-width="1"/><path d="M234.68848,137.07286c0,-0.43659 0.34489,-0.79052 0.77037,-0.79052c0.42545,0 0.77037,0.35392 0.77037,0.79052c0,0.43659 -0.34489,0.79052 -0.77037,0.79052c-0.42545,0 -0.77037,-0.35392 -0.77037,-0.79052z" fill="#f04650" stroke="none" stroke-width="1"/><path d="M228.13426,136.92464c0,-0.43659 0.34489,-0.79052 0.77037,-0.79052c0.42545,0 0.77037,0.35392 0.77037,0.79052c0,0.43659 -0.34489,0.79052 -0.77037,0.79052c-0.42545,0 -0.77037,-0.35392 -0.77037,-0.79052z" fill="#f04650" stroke="none" stroke-width="1"/><path d="M232.778,143.40006c0,-0.43659 0.34489,-0.79052 0.77037,-0.79052c0.42545,0 0.77037,0.35392 0.77037,0.79052c0,0.43659 -0.34489,0.79052 -0.77037,0.79052c-0.42545,0 -0.77037,-0.35392 -0.77037,-0.79052z" fill="#f04650" stroke="none" stroke-width="1"/><path d="M226.14673,143.01714c0,-0.43659 0.34489,-0.79052 0.77037,-0.79052c0.42545,0 0.77037,0.35392 0.77037,0.79052c0,0.43659 -0.34489,0.79052 -0.77037,0.79052c-0.42545,0 -0.77037,-0.35392 -0.77037,-0.79052z" fill="#f04650" stroke="none" stroke-width="1"/><path d="M245.19003,166.64915c0,-0.43659 0.34489,-0.79052 0.77037,-0.79052c0.42545,0 0.77037,0.35392 0.77037,0.79052c0,0.43659 -0.34489,0.79052 -0.77037,0.79052c-0.42545,0 -0.77037,-0.35392 -0.77037,-0.79052z" fill="#f04650" stroke="none" stroke-width="1"/><path d="M242.75877,142.19268c0,-0.43659 0.34489,-0.79052 0.77037,-0.79052c0.42545,0 0.77037,0.35392 0.77037,0.79052c0,0.43659 -0.34489,0.79052 -0.77037,0.79052c-0.42545,0 -0.77037,-0.35392 -0.77037,-0.79052z" fill="#f04650" stroke="none" stroke-width="1"/><path d="M244.51518,147.25998c0,-0.43659 0.34489,-0.79052 0.77037,-0.79052c0.42545,0 0.77037,0.35392 0.77037,0.79052c0,0.43659 -0.34489,0.79052 -0.77037,0.79052c-0.42545,0 -0.77037,-0.35392 -0.77037,-0.79052z" fill="#f04650" stroke="none" stroke-width="1"/><path d="M238.54336,143.46181c0,-0.43659 0.34489,-0.79052 0.77037,-0.79052c0.42545,0 0.77037,0.35392 0.77037,0.79052c0,0.43659 -0.34489,0.79052 -0.77037,0.79052c-0.42545,0 -0.77037,-0.35392 -0.77037,-0.79052z" fill="#f04650" stroke="none" stroke-width="1"/><path d="M231.93059,169.47154c0,-0.43659 0.34489,-0.79052 0.77037,-0.79052c0.42545,0 0.77037,0.35392 0.77037,0.79052c0,0.43659 -0.34489,0.79052 -0.77037,0.79052c-0.42545,0 -0.77037,-0.35392 -0.77037,-0.79052z" fill="#f04650" stroke="none" stroke-width="1"/><path d="M237.27073,148.36855c0,-0.43659 0.34489,-0.79052 0.77037,-0.79052c0.42545,0 0.77037,0.35392 0.77037,0.79052c0,0.43659 -0.34489,0.79052 -0.77037,0.79052c-0.42545,0 -0.77037,-0.35392 -0.77037,-0.79052z" fill="#f04650" stroke="none" stroke-width="1"/><path d="M228.162,161.44597c0,-0.43659 0.34489,-0.79052 0.77037,-0.79052c0.42545,0 0.77037,0.35392 0.77037,0.79052c0,0.43659 -0.34489,0.79052 -0.77037,0.79052c-0.42545,0 -0.77037,-0.35392 -0.77037,-0.79052z" fill="#f04650" stroke="none" stroke-width="1"/><path d="M233.43433,153.56555c0,-0.43659 0.34489,-0.79052 0.77037,-0.79052c0.42545,0 0.77037,0.35392 0.77037,0.79052c0,0.43659 -0.34489,0.79052 -0.77037,0.79052c-0.42545,0 -0.77037,-0.35392 -0.77037,-0.79052z" fill="#f04650" stroke="none" stroke-width="1"/><path d="M227.81687,153.35866c0,-0.43659 0.34489,-0.79052 0.77037,-0.79052c0.42545,0 0.77037,0.35392 0.77037,0.79052c0,0.43659 -0.34489,0.79052 -0.77037,0.79052c-0.42545,0 -0.77037,-0.35392 -0.77037,-0.79052z" fill="#f04650" stroke="none" stroke-width="1"/><path d="M252.85665,152.21303c0,-0.43659 0.34489,-0.79052 0.77037,-0.79052c0.42545,0 0.77037,0.35392 0.77037,0.79052c0,0.43659 -0.34489,0.79052 -0.77037,0.79052c-0.42545,0 -0.77037,-0.35392 -0.77037,-0.79052z" fill="#f04650" stroke="none" stroke-width="1"/><path d="M257.72839,143.39697c0,-0.43659 0.34489,-0.79052 0.77037,-0.79052c0.42545,0 0.77037,0.35392 0.77037,0.79052c0,0.43659 -0.34489,0.79052 -0.77037,0.79052c-0.42545,0 -0.77037,-0.35392 -0.77037,-0.79052z" fill="#f04650" stroke="none" stroke-width="1"/><path d="M258.20912,151.18165c0,-0.43659 0.34489,-0.79052 0.77037,-0.79052c0.42545,0 0.77037,0.35392 0.77037,0.79052c0,0.43659 -0.34489,0.79052 -0.77037,0.79052c-0.42545,0 -0.77037,-0.35392 -0.77037,-0.79052z" fill="#f04650" stroke="none" stroke-width="1"/><path d="M260.81601,147.04383c0,-0.43659 0.34489,-0.79052 0.77037,-0.79052c0.42545,0 0.77037,0.35392 0.77037,0.79052c0,0.43659 -0.34489,0.79052 -0.77037,0.79052c-0.42545,0 -0.77037,-0.35392 -0.77037,-0.79052z" fill="#f04650" stroke="none" stroke-width="1"/><path d="M260.967,139.63585c0,-0.43659 0.34489,-0.79052 0.77037,-0.79052c0.42545,0 0.77037,0.35392 0.77037,0.79052c0,0.43659 -0.34489,0.79052 -0.77037,0.79052c-0.42545,0 -0.77037,-0.35392 -0.77037,-0.79052z" fill="#f04650" stroke="none" stroke-width="1"/><path d="M251.86442,134.74456c0,-0.43659 0.34489,-0.79052 0.77037,-0.79052c0.42545,0 0.77037,0.35392 0.77037,0.79052c0,0.43659 -0.34489,0.79052 -0.77037,0.79052c-0.42545,0 -0.77037,-0.35392 -0.77037,-0.79052z" fill="#f04650" stroke="none" stroke-width="1"/><path d="M221.54923,140.19477c0,-0.43659 0.34489,-0.79052 0.77037,-0.79052c0.42545,0 0.77037,0.35392 0.77037,0.79052c0,0.43659 -0.34489,0.79052 -0.77037,0.79052c-0.42545,0 -0.77037,-0.35392 -0.77037,-0.79052z" fill="#f04650" stroke="none" stroke-width="1"/><path d="M220.21496,150.78332c0,-0.43659 0.34489,-0.79052 0.77037,-0.79052c0.42545,0 0.77037,0.35392 0.77037,0.79052c0,0.43659 -0.34489,0.79052 -0.77037,0.79052c-0.42545,0 -0.77037,-0.35392 -0.77037,-0.79052z" fill="#f04650" stroke="none" stroke-width="1"/><path d="M218.87453,145.91054c0,-0.43659 0.34489,-0.79052 0.77037,-0.79052c0.42545,0 0.77037,0.35392 0.77037,0.79052c0,0.43659 -0.34489,0.79052 -0.77037,0.79052c-0.42545,0 -0.77037,-0.35392 -0.77037,-0.79052z" fill="#f04650" stroke="none" stroke-width="1"/><path d="M242.0408,150.96552c0,-0.43659 0.34489,-0.79052 0.77037,-0.79052c0.42545,0 0.77037,0.35392 0.77037,0.79052c0,0.43659 -0.34489,0.79052 -0.77037,0.79052c-0.42545,0 -0.77037,-0.35392 -0.77037,-0.79052z" fill="#f04650" stroke="none" stroke-width="1"/><path d="M255.45122,158.02763c0,-0.43659 0.34489,-0.79052 0.77037,-0.79052c0.42545,0 0.77037,0.35392 0.77037,0.79052c0,0.43659 -0.34489,0.79052 -0.77037,0.79052c-0.42545,0 -0.77037,-0.35392 -0.77037,-0.79052z" fill="#f04650" stroke="none" stroke-width="1"/><path d="M247.07075,155.28202c-0.39586,-0.15594 -0.58733,-0.61094 -0.42764,-1.0163c0.15968,-0.40536 0.61002,-0.60754 1.00587,-0.45163c0.39586,0.15594 0.58733,0.61094 0.42764,1.0163c-0.15968,0.40536 -0.61002,0.60754 -1.00587,0.45163z" fill="#f04650" stroke="none" stroke-width="1"/><path d="M249.04798,145.91054c0,-0.43659 0.34489,-0.79052 0.77037,-0.79052c0.42545,0 0.77037,0.35392 0.77037,0.79052c0,0.43659 -0.34489,0.79052 -0.77037,0.79052c-0.42545,0 -0.77037,-0.35392 -0.77037,-0.79052z" fill="#f04650" stroke="none" stroke-width="1"/><path d="M239.43391,157.73119c0,-0.43659 0.34489,-0.79052 0.77037,-0.79052c0.42545,0 0.77037,0.35392 0.77037,0.79052c0,0.43659 -0.34489,0.79052 -0.77037,0.79052c-0.42545,0 -0.77037,-0.35392 -0.77037,-0.79052z" fill="#f04650" stroke="none" stroke-width="1"/><path d="M254.69627,147.48849c0,-0.43659 0.34489,-0.79052 0.77037,-0.79052c0.42545,0 0.77037,0.35392 0.77037,0.79052c0,0.43659 -0.34489,0.79052 -0.77037,0.79052c-0.42545,0 -0.77037,-0.35392 -0.77037,-0.79052z" fill="#f04650" stroke="none" stroke-width="1"/><path d="M255.66075,164.7161c0,-0.43659 0.34489,-0.79052 0.77037,-0.79052c0.42545,0 0.77037,0.35392 0.77037,0.79052c0,0.43659 -0.34489,0.79052 -0.77037,0.79052c-0.42545,0 -0.77037,-0.35392 -0.77037,-0.79052z" fill="#f04650" stroke="none" stroke-width="1"/><path d="M249.22363,160.40534c0,-0.43659 0.34489,-0.79052 0.77037,-0.79052c0.42545,0 0.77037,0.35392 0.77037,0.79052c0,0.43659 -0.34489,0.79052 -0.77037,0.79052c-0.42545,0 -0.77037,-0.35392 -0.77037,-0.79052z" fill="#f04650" stroke="none" stroke-width="1"/><path d="M229.95539,148.41797c0,-0.43659 0.34489,-0.79052 0.77037,-0.79052c0.42545,0 0.77037,0.35392 0.77037,0.79052c0,0.43659 -0.34489,0.79052 -0.77037,0.79052c-0.42545,0 -0.77037,-0.35392 -0.77037,-0.79052z" fill="#f04650" stroke="none" stroke-width="1"/><path d="M224.57519,147.3279c0,-0.43659 0.34489,-0.79052 0.77037,-0.79052c0.42545,0 0.77037,0.35392 0.77037,0.79052c0,0.43659 -0.34489,0.79052 -0.77037,0.79052c-0.42545,0 -0.77037,-0.35392 -0.77037,-0.79052z" fill="#f04650" stroke="none" stroke-width="1"/></g></g></svg>