<svg version="1.1" xmlns="http://www.w3.org/2000/svg" xmlns:xlink="http://www.w3.org/1999/xlink" width="74.01408" height="51.59278" viewBox="0,0,74.01408,51.59278"><g transform="translate(-202.24978,-124.65045)"><g data-paper-data="{&quot;isPaintingLayer&quot;:true}" fill-rule="nonzero" stroke-linecap="round" stroke-linejoin="miter" stroke-miterlimit="10" stroke-dasharray="" stroke-dashoffset="0" style="mix-blend-mode: normal"><path d="M239.5643,126.89881c9.86516,0.17665 18.77007,2.26012 25.1874,5.48338c6.4173,3.22336 9.78803,7.00444 10.26216,12.32202c0.63962,7.21734 -2.50978,15.46206 -7.89997,20.56366c-5.90881,5.88252 -14.68248,9.58695 -23.25854,9.72536c-9.9729,0.1596 -20.8263,-2.80277 -28.57919,-8.968c-6.80461,-5.22273 -11.64986,-14.23816 -11.77638,-22.60187c-0.07836,-5.33834 4.1682,-8.95521 10.69683,-11.94664c6.52862,-2.99141 15.50246,-4.75465 25.36766,-4.57794z" fill="#a85b00" stroke="none" stroke-width="0.69108"/><path d="M239.5643,126.89881c9.86516,0.17665 18.77007,2.26012 25.1874,5.48338c6.4173,3.22336 9.78803,7.00444 10.26216,12.32202c0.63962,7.21734 -2.50978,15.46206 -7.89997,20.56366c-5.90881,5.88252 -14.68248,9.58695 -23.25854,9.72536c-9.9729,0.1596 -20.8263,-2.80277 -28.57919,-8.968c-6.80461,-5.22273 -11.64986,-14.23816 -11.77638,-22.60187c-0.07836,-5.33834 4.1682,-8.95521 10.69683,-11.94664c6.52862,-2.99141 15.50246,-4.75465 25.36766,-4.57794z" fill="#a85b00" stroke="#000000" stroke-width="0.5"/><path d="M239.5643,126.89881c9.86516,0.17665 18.77007,2.26012 25.1874,5.48338c6.4173,3.22336 9.78803,7.00444 10.26216,12.32202c0.63962,7.21734 -2.50978,15.46206 -7.89997,20.56366c-5.90881,5.88252 -14.68248,9.58695 -23.25854,9.72536c-9.9729,0.1596 -20.8263,-2.80277 -28.57919,-8.968c-6.80461,-5.22273 -11.64986,-14.23816 -11.77638,-22.60187c-0.07836,-5.33834 4.1682,-8.95521 10.69683,-11.94664c6.52862,-2.99141 15.50246,-4.75465 25.36766,-4.57794z" fill="#a85b00" stroke="#000000" stroke-width="2.5"/><path d="M239.69818,126.9146c9.40041,0.1684 17.89078,1.83495 24.01499,4.39064c6.12417,2.55623 9.88159,6.00162 9.8148,9.72872c-0.06677,3.72717 -3.94512,7.03573 -10.15691,9.3711c-6.21178,2.33476 -14.75638,3.69612 -24.15676,3.52779c-9.40038,-0.16832 -17.89085,-1.83491 -24.01499,-4.39064c-6.12424,-2.55621 -9.88159,-6.00162 -9.81487,-9.72867c0.06679,-3.7271 3.94512,-7.03573 10.15695,-9.37101c6.21178,-2.33476 14.75643,-3.69622 24.15681,-3.52789z" fill="#ef9300" stroke="#eac28e" stroke-width="1.9027"/><path d="M239.69818,126.9146c9.40041,0.1684 17.89078,1.83495 24.01499,4.39064c6.12417,2.55623 9.88159,6.00162 9.8148,9.72872c-0.06677,3.72717 -3.94512,7.03573 -10.15691,9.3711c-6.21178,2.33476 -14.75638,3.69612 -24.15676,3.52779c-9.40038,-0.16832 -17.89085,-1.83491 -24.01499,-4.39064c-6.12424,-2.55621 -9.88159,-6.00162 -9.81487,-9.72867c0.06679,-3.7271 3.94512,-7.03573 10.15695,-9.37101c6.21178,-2.33476 14.75643,-3.69622 24.15681,-3.52789z" fill="#ef9300" stroke="#eac28e" stroke-width="1.9027"/><path d="M239.62749,126.73105c9.40041,0.1684 17.89078,1.83495 24.01499,4.39064c6.12417,2.55623 9.88159,6.00162 9.8148,9.72872c-0.06677,3.72717 -3.94512,7.03573 -10.15691,9.3711c-6.21178,2.33476 -14.75638,3.69612 -24.15676,3.52779c-9.40038,-0.16832 -17.89085,-1.83491 -24.01499,-4.39064c-6.12424,-2.55621 -9.88159,-6.00162 -9.81487,-9.72867c0.06679,-3.7271 3.94512,-7.03573 10.15695,-9.37101c6.21178,-2.33476 14.75643,-3.69622 24.15681,-3.52789z" fill="#ef9300" stroke="#000000" stroke-width="1.9027"/><path d="M239.20332,125.62978c9.40041,0.1684 17.89078,1.83495 24.01499,4.39064c6.12417,2.55623 9.88159,6.00162 9.8148,9.72872c-0.06677,3.72717 -3.94512,7.03573 -10.15691,9.3711c-6.21178,2.33476 -14.75638,3.69612 -24.15676,3.52779c-9.40038,-0.16832 -17.89085,-1.83491 -24.01499,-4.39064c-6.12424,-2.55621 -9.88159,-6.00162 -9.81487,-9.72867c0.06679,-3.7271 3.94512,-7.03573 10.15695,-9.37101c6.21178,-2.33476 14.75643,-3.69622 24.15681,-3.52789z" fill="#ef9300" stroke="#000000" stroke-width="1.9027"/><path d="M239.20332,125.62978c9.40041,0.1684 17.89078,1.83495 24.01499,4.39064c6.12417,2.55623 9.88159,6.00162 9.8148,9.72872c-0.06677,3.72717 -3.94512,7.03573 -10.15691,9.3711c-6.21178,2.33476 -14.75638,3.69612 -24.15676,3.52779c-9.40038,-0.16832 -17.89085,-1.83491 -24.01499,-4.39064c-6.12424,-2.55621 -9.88159,-6.00162 -9.81487,-9.72867c0.06679,-3.7271 3.94512,-7.03573 10.15695,-9.37101c6.21178,-2.33476 14.75643,-3.69622 24.15681,-3.52789z" fill="#ef9300" stroke="#000000" stroke-width="1.9027"/><path d="M239.20332,125.62978c9.40041,0.1684 17.89078,1.83495 24.01499,4.39064c6.12417,2.55623 9.88159,6.00162 9.8148,9.72872c-0.06677,3.72717 -3.94512,7.03573 -10.15691,9.3711c-6.21178,2.33476 -14.75638,3.69612 -24.15676,3.52779c-9.40038,-0.16832 -17.89085,-1.83491 -24.01499,-4.39064c-6.12424,-2.55621 -9.88159,-6.00162 -9.81487,-9.72867c0.06679,-3.7271 3.94512,-7.03573 10.15695,-9.37101c6.21178,-2.33476 14.75643,-3.69622 24.15681,-3.52789z" fill="#ef9300" stroke="#000000" stroke-width="1.9027"/><path d="M239.69818,126.9146c9.40041,0.1684 17.89078,1.83495 24.01499,4.39064c6.12417,2.55623 9.88159,6.00162 9.8148,9.72872c-0.06677,3.72717 -3.94512,7.03573 -10.15691,9.3711c-6.21178,2.33476 -14.75638,3.69612 -24.15676,3.52779c-9.40038,-0.16832 -17.89085,-1.83491 -24.01499,-4.39064c-6.12424,-2.55621 -9.88159,-6.00162 -9.81487,-9.72867c0.06679,-3.7271 3.94512,-7.03573 10.15695,-9.37101c6.21178,-2.33476 14.75643,-3.69622 24.15681,-3.52789z" fill="#ef9300" stroke="#eac28e" stroke-width="1.9027"/><path d="M237.77529,127.40069c0,0 0.40461,10.47377 -0.84834,15.48313c-0.92662,3.70467 -5.5363,10.04273 -5.5363,10.04273" fill="none" stroke="#eac28e" stroke-width="1.37879"/><path d="M263.61332,131.53415l-26.3688,8.79947" fill="none" stroke="#eac28e" stroke-width="1.37879"/><path d="M206.61186,136.71255l30.62244,4.1919l21.50911,10.52712" fill="none" stroke="#eac28e" stroke-width="1.37879"/><path d="M236.11987,140.88449l-21.53819,7.79845" fill="none" stroke="#eac28e" stroke-width="1.37879"/><path d="M219.99083,129.03984l16.68965,12.42569" fill="none" stroke="#eac28e" stroke-width="1.37879"/><path d="M237.51825,141.75242l35.48134,0.09164" fill="none" stroke="#eac28e" stroke-width="1.37879"/></g></g></svg>