<svg version="1.1" xmlns="http://www.w3.org/2000/svg" xmlns:xlink="http://www.w3.org/1999/xlink" width="154.80466" height="95.64337" viewBox="0,0,154.80466,95.64337"><g transform="translate(-164.05626,-86.67261)"><g data-paper-data="{&quot;isPaintingLayer&quot;:true}" fill-rule="evenodd" stroke="#000000" stroke-width="2" stroke-linecap="butt" stroke-linejoin="miter" stroke-miterlimit="10" stroke-dasharray="" stroke-dashoffset="0" style="mix-blend-mode: normal"><path d="M176.32945,181.31598c-17.98359,0 -7.09722,-74.85445 38.76846,-73.74383c46.71894,1.13239 63.68102,73.74383 63.68102,73.74383z" fill="#efab00"/><path d="M312.65616,151.27047c0,0 -93.34287,24.85514 -110.09705,27.32382c-22.43594,3.30611 -29.87169,-3.90792 -32.57993,-15.59013c-4.48007,-19.32385 11.13383,-19.96131 15.91878,-30.51905c4.78295,-10.55971 -6.46966,-27.73759 15.91878,-28.62449c18.72598,-0.74239 19.01107,-15.13084 28.21667,-16.18802c14.27759,-1.63919 17.39562,11.91582 27.95931,15.69309c9.97769,3.56742 15.22785,-5.56097 26.39535,-1.073c9.5679,3.84656 9.99947,24.29092 22.60224,28.54133c20.53938,6.92895 5.6659,20.43644 5.6659,20.43644" fill="#59c059"/><path d="M191.37043,145.34878c-2.03711,-0.61766 -3.20117,-2.79336 -2.58154,-4.83047l1.24127,-4.09402c0.61766,-2.03711 2.79138,-3.1992 4.83047,-2.58154l10.90024,3.30411c2.03909,0.61964 3.20117,2.79336 2.58154,4.83244l-1.24127,4.09205c-0.61766,2.03909 -2.79138,3.1992 -4.83047,2.58154l-10.90024,-3.30411" fill="#e8511c"/><path d="M188.28608,142.45841c2.7578,0.57412 6.70097,3.02895 9.91839,3.68223c-8.32179,17.63914 -9.82162,34.54576 -20.12708,35.13967h-0.04838c-7.91053,-0.53452 -16.45002,-6.5924 -11.51502,-12.82847c2.92714,-3.70203 -1.62082,-8.29495 -0.38707,-12.5513c1.76597,-6.13706 9.43456,-7.46347 12.09559,-8.07719c2.90295,-0.65331 5.97522,-6.21625 10.06354,-5.36499" fill="#c18500"/><path d="M201.03214,135.72666c-1.99949,3.62284 -3.64264,7.34469 -5.02844,11.02692l-1.86091,-0.57412l-1.78172,-0.53255c1.44517,-3.68423 3.14773,-7.38626 5.20662,-10.96753z" fill="#c6431a"/><path d="M199.58797,122.70022c-1.9203,0.92057 -4.24645,0.10096 -5.16505,-1.82132l-0.35635,-0.7404c-0.91857,-1.92228 -0.09899,-4.24448 1.82132,-5.16505l5.3155,-2.54392c1.92228,-0.92057 4.24645,-0.10096 5.16505,1.81934l0.35635,0.74239c0.91857,1.9203 0.09899,4.24645 -1.82132,5.16505l-5.3155,2.54392" fill="#e8511c"/><path d="M299.38583,136.25443c-1.06508,-1.84509 -0.42761,-4.22665 1.41945,-5.29173l1.88468,-1.08885c1.84509,-1.06508 4.22665,-0.42564 5.29173,1.41747l4.02473,6.97249c1.06508,1.84509 0.42761,4.22468 -1.41945,5.29173l-1.88468,1.08685c-1.84509,1.06508 -4.22665,0.42761 -5.29173,-1.41747l-4.02473,-6.97052" fill="#e8511c"/><path d="M253.72721,109.53818c-2.00939,0.70873 -4.2326,-0.35238 -4.94133,-2.36179l-0.72457,-2.05296c-0.71072,-2.00939 0.3504,-4.2326 2.35979,-4.9433l7.59018,-2.6825c2.00939,-0.70873 4.2326,0.35437 4.94133,2.36179l0.72655,2.05296c0.71072,2.00939 -0.35238,4.23458 -2.36179,4.9433l-7.59018,2.6825" fill="#e8511c"/><path d="M179.29861,181.31598c17.81731,0 4.40088,-69.71515 69.78444,-74.73369c52.05029,-3.99504 64.93417,40.16416 67.64041,63.35437c0.70675,6.05195 -3.95939,11.37932 -10.04896,11.37932z" fill="#ffbf00"/><path d="M226.78469,104.58992c-0.57412,0 -1.14426,-0.24944 -1.53626,-0.7305c-0.69093,-0.84731 -0.56224,-2.09453 0.28508,-2.78346l10.39343,-8.46521c0.84928,-0.68695 2.0965,-0.56224 2.78543,0.28508c0.69093,0.84731 0.56224,2.09453 -0.28508,2.78543l-10.39343,8.46321c-0.36822,0.29893 -0.80969,0.44544 -1.2492,0.44544" fill="#ffbf00"/><path d="M294.27425,110.7862c-0.12273,0 -0.24549,-0.0099 -0.3702,-0.03564l-13.17094,-2.49245c-1.07497,-0.20192 -1.77975,-1.2393 -1.57783,-2.3123c0.20392,-1.07497 1.24127,-1.79162 2.3123,-1.57783l13.17292,2.49442c1.07497,0.20192 1.77975,1.2393 1.57585,2.3123c-0.17817,0.95026 -1.00966,1.61147 -1.94208,1.61147" fill="#ffbf00"/><path d="M181.76491,151.42705c-0.43949,0 -0.88295,-0.14453 -1.25117,-0.44741l-10.38749,-8.47311c-0.84731,-0.68893 -0.97401,-1.93615 -0.28111,-2.78346c0.69093,-0.84533 1.93615,-0.97599 2.78543,-0.28309l10.38749,8.4751c0.84731,0.68893 0.97401,1.93615 0.28111,2.78346c-0.39,0.47908 -0.96016,0.72852 -1.53426,0.72852" fill="#ffbf00"/><path d="M293.45841,145.77224c-3.22889,0 -3.23482,-5.01854 0,-5.01854c3.23087,0 3.23482,5.01854 0,5.01854" fill="#efab00"/><path d="M267.75716,150.26121c-3.22889,0 -3.23482,-5.01854 0,-5.01854c3.23087,0 3.23482,5.01854 0,5.01854" fill="#efab00"/><path d="M264.65022,170.92432c-3.22889,0 -3.23482,-5.01854 0,-5.01854c3.23087,0 3.23682,5.01854 0,5.01854" fill="#efab00"/><path d="M222.14289,173.43379c-3.22889,0 -3.23482,-5.01854 0,-5.01854c3.22889,0 3.23482,5.01854 0,5.01854" fill="#efab00"/><path d="M227.11629,129.79922c-3.22889,0 -3.23482,-5.01854 0,-5.01854c3.22889,0 3.23482,5.01854 0,5.01854" fill="#efab00"/><path d="M253.72129,118.42762c-3.22889,0 -3.23482,-5.02052 0,-5.02052c3.22889,0 3.23482,5.02052 0,5.02052" fill="#efab00"/><path d="M240.6792,153.30046c-3.22889,0 -3.23482,-5.01854 0,-5.01854c3.22889,0 3.23482,5.01854 0,5.01854" fill="#efab00"/><path d="M212.89867,155.28015c-3.22889,0 -3.23482,-5.01854 0,-5.01854c3.22889,0 3.23482,5.01854 0,5.01854" fill="#efab00"/><path d="M298.35935,166.15504c-3.22889,0 -3.23482,-5.01854 0,-5.01854c3.22889,0 3.23482,5.01854 0,5.01854" fill="#efab00"/><path d="M278.77893,127.28975c-3.23087,0 -3.23682,-5.01854 0,-5.01854c3.22889,0 3.23482,5.01854 0,5.01854" fill="#efab00"/><path d="M192.36126,145.64653l1.78172,0.53452c-0.59392,0.1762 -1.2472,0.13858 -1.9599,-0.03959c0.05939,-0.15838 0.11878,-0.31675 0.17817,-0.49493" fill="#4ba04b"/></g></g></svg>