<svg version="1.1" xmlns="http://www.w3.org/2000/svg" xmlns:xlink="http://www.w3.org/1999/xlink" width="41.15422" height="48.49459" viewBox="0,0,41.15422,48.49459"><g transform="translate(-220.55958,-133.82232)"><g data-paper-data="{&quot;isPaintingLayer&quot;:true}" fill-rule="nonzero" stroke-linecap="butt" stroke-linejoin="miter" stroke-miterlimit="10" stroke-dasharray="" stroke-dashoffset="0" style="mix-blend-mode: normal"><g stroke="#000000" stroke-width="0.5"><path d="M259.41661,163.13491c0,9.49248 -8.18429,17.18996 -18.28185,17.18996c-10.09756,0 -18.28121,-7.69422 -18.28121,-17.18996c0,-9.49248 8.18299,-13.90187 18.28121,-13.90187c10.0969,-0.00066 18.28185,4.41004 18.28185,13.90187z" fill="#ec1c2c"/><g fill="#231f20"><path d="M261.4638,162.95129c0,10.55693 -9.10041,19.11563 -20.32777,19.11563c-11.22539,0 -20.32645,-8.5587 -20.32645,-19.11563c0,-9.30362 7.07083,-13.49217 16.43328,-14.35731c0,0 2.95877,-0.379 5.96979,-0.12349c10.2485,0.47701 18.25114,4.58516 18.25114,14.48081zM258.3626,163.23161c0,-8.23461 -6.53894,-12.40484 -14.99571,-13.01645c0,0 -5.36276,0.07515 -5.52546,0.0941c-7.93598,0.87626 -13.92734,5.038 -13.92734,12.92105c0,8.94294 7.70924,16.19543 17.22263,16.19543c9.51273,0 17.22197,-7.25118 17.2259,-16.19412z"/><path d="M246.98628,154.42002c-2.33146,0.11827 -4.56491,0.17708 -6.90094,0.43911c-1.55975,0.17512 -3.06266,0.18885 -4.21793,-0.9893c-0.25093,-0.25811 0.0771,-0.7031 0.39076,-0.5051c0.77237,0.4842 1.5506,0.68024 2.33343,0.71812c0.05097,0.04182 2.79279,-0.32019 4.04478,-0.71746c1.51074,-0.41166 3.0228,-0.75145 4.52765,-0.2542c0.71944,0.23785 0.58026,1.26898 -0.17774,1.30883z"/></g><path d="M229.0135,163.04278c0,2.24194 1.20886,4.05915 -0.0549,4.05915c-1.26375,0 -2.28704,-1.81721 -2.28704,-4.05915c0,-2.24129 1.02329,-4.05849 2.28704,-4.05849c1.26375,0 0.0549,1.81786 0.0549,4.05849z" fill="#ffffff"/></g><g stroke="#000000" stroke-width="1.5"><path d="M235.07333,138.81388c0.9579,-0.5723 1.91297,-1.14647 2.86993,-1.7197c0.68863,1.05828 1.38101,2.09123 1.93642,3.26679c2.02837,4.28189 1.58178,8.80492 1.52362,13.33356c-0.35182,0.0835 -0.91661,0.14355 -1.26468,0.20547c0.24206,-5.768 -1.13051,-11.05563 -5.06529,-15.0861z" fill="#99661d"/><path d="M243.68686,151.71588c0,0 -0.21578,1.76005 -0.23549,2.09217c0,0 -3.53791,1.05453 -4.92551,0.52726l-0.04317,-1.50955c0.02815,-3.01628 -0.91005,-6.25585 -1.46545,-7.27004c-0.26551,-0.4841 -1.33505,-3.25177 -4.59714,-6.15171c-0.55917,-0.49443 -0.3706,-1.42136 0.22704,-1.78069c1.6953,-1.017 3.38593,-2.03399 5.07936,-3.05099c0.54415,-0.32554 1.18682,-0.08256 1.55552,0.40812c5.18631,6.90321 4.56335,16.02148 4.40479,16.73544zM241.30761,152.38574c0.10507,-4.16744 0.4597,-8.04029 -1.42793,-12.02479c-0.55541,-1.17556 -1.2478,-2.2085 -1.93642,-3.26679c-0.95696,0.57323 -1.91203,1.14741 -2.86993,1.7197c3.71712,3.80717 5.2351,8.41463 5.18819,13.77544v1.0808l1.04045,-0.13228z" fill="#231f20"/></g><path d="" fill="#ff6666" stroke="none" stroke-width="0.5"/><path d="M237.39874,158.6918c4.46001,-3.29646 12.35667,-1.6338 13.18163,4.96587c0.77479,6.19831 -9.21489,11.17615 -11.62113,7.96784c-2.66246,-1.15148 -4.52548,-3.80168 -4.52548,-6.88701c0,-2.09967 0.86281,-3.99782 2.25323,-5.35924c0.20583,-0.25535 0.44029,-0.48682 0.71175,-0.68746z" fill="#ec1c2c" stroke="none" stroke-width="0.5"/></g></g></svg>