<svg version="1.1" xmlns="http://www.w3.org/2000/svg" xmlns:xlink="http://www.w3.org/1999/xlink" width="76.50452" height="53.2839" viewBox="0,0,76.50452,53.2839"><g transform="translate(-202.24983,-124.67893)"><g data-paper-data="{&quot;isPaintingLayer&quot;:true}" fill-rule="nonzero" stroke-linecap="round" stroke-linejoin="miter" stroke-miterlimit="10" stroke-dasharray="" stroke-dashoffset="0" style="mix-blend-mode: normal"><path d="M240.82026,126.9435c10.20872,0.1828 19.42374,2.33882 26.06456,5.67435c6.64077,3.33562 10.12889,7.24836 10.61953,12.75113c0.66189,7.46869 -2.59719,16.00052 -8.17507,21.27979c-6.11459,6.08737 -15.19379,9.92083 -24.06851,10.06406c-10.32022,0.16515 -21.55158,-2.90037 -29.57446,-9.28031c-7.04157,-5.40462 -12.05557,-14.734 -12.18648,-23.38897c-0.08108,-5.52424 4.31336,-9.26708 11.06934,-12.36267c6.75598,-3.09559 16.04235,-4.92023 26.25109,-4.73736z" fill="#a85b00" stroke="none" stroke-width="0.69108"/><path d="M240.82026,126.9435c10.20872,0.1828 19.42374,2.33882 26.06456,5.67435c6.64077,3.33562 10.12889,7.24836 10.61953,12.75113c0.66189,7.46869 -2.59719,16.00052 -8.17507,21.27979c-6.11459,6.08737 -15.19379,9.92083 -24.06851,10.06406c-10.32022,0.16515 -21.55158,-2.90037 -29.57446,-9.28031c-7.04157,-5.40462 -12.05557,-14.734 -12.18648,-23.38897c-0.08108,-5.52424 4.31336,-9.26708 11.06934,-12.36267c6.75598,-3.09559 16.04235,-4.92023 26.25109,-4.73736z" fill="#a85b00" stroke="#000000" stroke-width="0.5"/><path d="M240.82026,126.9435c10.20872,0.1828 19.42374,2.33882 26.06456,5.67435c6.64077,3.33562 10.12889,7.24836 10.61953,12.75113c0.66189,7.46869 -2.59719,16.00052 -8.17507,21.27979c-6.11459,6.08737 -15.19379,9.92083 -24.06851,10.06406c-10.32022,0.16515 -21.55158,-2.90037 -29.57446,-9.28031c-7.04157,-5.40462 -12.05557,-14.734 -12.18648,-23.38897c-0.08108,-5.52424 4.31336,-9.26708 11.06934,-12.36267c6.75598,-3.09559 16.04235,-4.92023 26.25109,-4.73736z" fill="#a85b00" stroke="#000000" stroke-width="2.5"/><path d="M240.95882,126.95985c9.72777,0.17426 18.51383,1.89885 24.85132,4.54355c6.33745,2.64526 10.22572,6.21062 10.1566,10.06752c-0.06908,3.85697 -4.08251,7.28074 -10.51063,9.69743c-6.4281,2.41608 -15.27027,3.82484 -24.99802,3.65065c-9.72775,-0.17419 -18.5139,-1.89881 -24.85132,-4.54355c-6.33752,-2.64522 -10.22572,-6.21062 -10.15665,-10.06748c0.06912,-3.8569 4.08251,-7.28074 10.51066,-9.69736c6.4281,-2.41608 15.27033,-3.82494 24.99807,-3.65075z" fill="#ef9300" stroke="#eac28e" stroke-width="1.9027"/><path d="M240.95882,126.95985c9.72777,0.17426 18.51383,1.89885 24.85132,4.54355c6.33745,2.64526 10.22572,6.21062 10.1566,10.06752c-0.06908,3.85697 -4.08251,7.28074 -10.51063,9.69743c-6.4281,2.41608 -15.27027,3.82484 -24.99802,3.65065c-9.72775,-0.17419 -18.5139,-1.89881 -24.85132,-4.54355c-6.33752,-2.64522 -10.22572,-6.21062 -10.15665,-10.06748c0.06912,-3.8569 4.08251,-7.28074 10.51066,-9.69736c6.4281,-2.41608 15.27033,-3.82494 24.99807,-3.65075z" fill="#ef9300" stroke="#eac28e" stroke-width="1.9027"/><path d="M240.88565,126.7699c9.72777,0.17426 18.51383,1.89885 24.85132,4.54355c6.33745,2.64526 10.22572,6.21062 10.1566,10.06752c-0.06908,3.85697 -4.08251,7.28074 -10.51063,9.69743c-6.4281,2.41608 -15.27027,3.82484 -24.99802,3.65065c-9.72775,-0.17419 -18.5139,-1.89881 -24.85132,-4.54355c-6.33752,-2.64522 -10.22572,-6.21062 -10.15665,-10.06748c0.06912,-3.8569 4.08251,-7.28074 10.51066,-9.69736c6.4281,-2.41608 15.27033,-3.82494 24.99807,-3.65075z" fill="#ef9300" stroke="#000000" stroke-width="1.9027"/><path d="M240.44671,125.63028c9.72777,0.17426 18.51383,1.89885 24.85132,4.54355c6.33745,2.64526 10.22572,6.21062 10.1566,10.06752c-0.06908,3.85697 -4.08251,7.28074 -10.51063,9.69743c-6.4281,2.41608 -15.27027,3.82484 -24.99802,3.65065c-9.72775,-0.17419 -18.5139,-1.89881 -24.85132,-4.54355c-6.33752,-2.64522 -10.22572,-6.21062 -10.15665,-10.06748c0.06912,-3.8569 4.08251,-7.28074 10.51066,-9.69736c6.4281,-2.41608 15.27033,-3.82494 24.99807,-3.65075z" fill="#ef9300" stroke="#000000" stroke-width="1.9027"/><path d="M240.44671,125.63028c9.72777,0.17426 18.51383,1.89885 24.85132,4.54355c6.33745,2.64526 10.22572,6.21062 10.1566,10.06752c-0.06908,3.85697 -4.08251,7.28074 -10.51063,9.69743c-6.4281,2.41608 -15.27027,3.82484 -24.99802,3.65065c-9.72775,-0.17419 -18.5139,-1.89881 -24.85132,-4.54355c-6.33752,-2.64522 -10.22572,-6.21062 -10.15665,-10.06748c0.06912,-3.8569 4.08251,-7.28074 10.51066,-9.69736c6.4281,-2.41608 15.27033,-3.82494 24.99807,-3.65075z" fill="#ef9300" stroke="#000000" stroke-width="1.9027"/><path d="M240.44671,125.63028c9.72777,0.17426 18.51383,1.89885 24.85132,4.54355c6.33745,2.64526 10.22572,6.21062 10.1566,10.06752c-0.06908,3.85697 -4.08251,7.28074 -10.51063,9.69743c-6.4281,2.41608 -15.27027,3.82484 -24.99802,3.65065c-9.72775,-0.17419 -18.5139,-1.89881 -24.85132,-4.54355c-6.33752,-2.64522 -10.22572,-6.21062 -10.15665,-10.06748c0.06912,-3.8569 4.08251,-7.28074 10.51066,-9.69736c6.4281,-2.41608 15.27033,-3.82494 24.99807,-3.65075z" fill="#ef9300" stroke="#000000" stroke-width="1.9027"/><path d="M240.95882,126.95985c9.72777,0.17426 18.51383,1.89885 24.85132,4.54355c6.33745,2.64526 10.22572,6.21062 10.1566,10.06752c-0.06908,3.85697 -4.08251,7.28074 -10.51063,9.69743c-6.4281,2.41608 -15.27027,3.82484 -24.99802,3.65065c-9.72775,-0.17419 -18.5139,-1.89881 -24.85132,-4.54355c-6.33752,-2.64522 -10.22572,-6.21062 -10.15665,-10.06748c0.06912,-3.8569 4.08251,-7.28074 10.51066,-9.69736c6.4281,-2.41608 15.27033,-3.82494 24.99807,-3.65075z" fill="#ef9300" stroke="#eac28e" stroke-width="1.9027"/><path d="M238.96896,127.46288c0,0 0.41871,10.83853 -0.8779,16.02233c-0.95889,3.83369 -5.7291,10.39246 -5.7291,10.39246" fill="none" stroke="#eac28e" stroke-width="1.37879"/><path d="M265.70681,131.74029l-27.28709,9.10591" fill="none" stroke="#eac28e" stroke-width="1.37879"/><path d="M206.72027,137.09903l31.68886,4.33789l22.25816,10.89373" fill="none" stroke="#eac28e" stroke-width="1.37879"/><path d="M214.96765,149.48626l22.28824,-8.07002" fill="none" stroke="#eac28e" stroke-width="1.37879"/><path d="M237.83603,142.01752l-17.27087,-12.85841" fill="none" stroke="#eac28e" stroke-width="1.37879"/><path d="M275.41993,142.40924l-36.71696,-0.09484" fill="none" stroke="#eac28e" stroke-width="1.37879"/></g></g></svg>