<svg version="1.1" xmlns="http://www.w3.org/2000/svg" xmlns:xlink="http://www.w3.org/1999/xlink" width="60.57058" height="45.6154" viewBox="0,0,60.57058,45.6154"><g transform="translate(-208.6496,-135.55)"><g data-paper-data="{&quot;isPaintingLayer&quot;:true}" fill-rule="nonzero" stroke="#000000" stroke-width="1" stroke-linecap="butt" stroke-linejoin="miter" stroke-miterlimit="10" stroke-dasharray="" stroke-dashoffset="0" style="mix-blend-mode: normal"><g><g><path d="M238.64571,179.7206c-0.4166,0 -0.6504,-0.0101 -0.6618,-0.0107c-28.4438,-2.7101 -27.915,-20.7239 -27.8784,-21.4896c0.1216,-2.5513 1.372,-5.1567 2.2934,-6.7531c1.3696,1.8888 3.9744,3.3554 7.7578,4.3651c3.4184,0.9126 8.5852,2.2922 17.4428,2.3703l0.5773,0.0026c0.2527,0 23.5549,-0.0858 27.6314,-7.0298c1.3229,2.1497 1.9052,6.477 1.9638,9.2155c-4.1577,18.3957 -24.9837,19.3297 -29.1263,19.3297c0.0006,0 0,0 0,0z" fill="#65cbeb"/><path d="M265.6178,152.9482c-5.9105,6.0038 -24.9698,6.203 -27.4404,6.203c-0.1998,0 -0.3945,-0.0013 -0.5855,-0.0026c-8.9773,-0.0794 -14.2134,-1.4773 -17.6785,-2.4025c-3.2653,-0.8722 -5.7189,-2.0911 -7.3266,-3.6371c-0.7261,1.4533 -1.4496,3.3302 -1.5366,5.156c-0.0441,0.9233 -0.0599,5.7775 3.9567,10.6569c4.5252,5.4983 12.2836,8.8096 23.0608,9.8445c0.082,0.0032 0.2805,0.0082 0.578,0.0082c4.0052,0 24.1171,-0.8931 28.1784,-18.4789c-0.0605,-2.2185 -0.4613,-5.2941 -1.2063,-7.3475M265.6178,152.9482l-52.9132,-3.5968v0c-0.0952,0.3416 -0.0668,0.7034 0.1487,1.079c1.2448,2.1775 4.1925,3.5931 7.5473,4.4886c3.3548,0.8956 8.4693,2.2607 17.2071,2.3383c0.1859,0.0019 0.375,0.0025 0.5691,0.0025c8.9394,0 26.5297,-1.7716 27.2677,-7.8725c3.1317,2.1366 3.2748,11.0987 3.2748,11.0987c-4.2643,19.239 -25.8862,20.1794 -30.0736,20.1794c-0.4538,0 -0.7034,-0.0114 -0.7034,-0.0114c-26.4705,-2.521 -28.9915,-18.0673 -28.7816,-22.4791c0.2099,-4.4117 3.4664,-8.8235 3.4664,-8.8235h0.0775c0,0.0006 0,0 0,0z" fill="#000000"/></g><g><path d="M237.51561,158.2026c-8.8405,-0.0825 -13.9978,-1.5447 -17.4106,-2.5121c-3.6952,-1.0475 -6.1746,-2.579 -7.171,-4.4294c-0.0933,-0.1733 -0.1147,-0.3189 -0.0699,-0.4872c0.2155,-0.8237 1.8069,-1.8013 3.1947,-2.3622l0.1576,-0.0618c6.685,-2.3665 14.2115,-3.5741 22.3297,-3.5741c12.1537,0 21.9711,2.7145 23.9867,3.6498c1.9909,0.9246 2.4768,1.9059 2.5808,2.1958c-0.8899,5.2298 -16.2648,7.5844 -27.0213,7.5844z" fill="#4c8ac1"/><path d="M238.54611,145.7205c-7.9771,0 -15.368,1.1799 -21.9705,3.5061l-0.1078,0.0397l-0.0164,0.007l-0.0308,0.0132l-0.036,0.0132c-1.3758,0.5603 -2.3073,1.2568 -2.5556,1.6242c0.9182,1.5731 3.1726,2.9042 6.5344,3.8571c3.3636,0.9536 8.4472,2.395 17.1611,2.4763c0.1846,0.0019 0.3737,0.0025 0.5672,0.0025c4.3834,0 11.0791,-0.4595 16.7274,-1.749c5.2853,-1.2063 8.6943,-2.9697 9.2937,-4.7772c-0.1966,-0.2925 -0.7122,-0.8629 -1.9784,-1.4509c-1.6922,-0.7853 -11.485,-3.5622 -23.5883,-3.5622M238.54611,145.7205v-1.8907v0c12.4947,0 22.4829,2.8557 24.3843,3.7374c2.9799,1.384 3.1437,3.005 3.1437,3.005c-0.7575,6.6479 -18.8085,8.5783 -27.983,8.5783c-0.1992,0 -0.3946,-0.0006 -0.5849,-0.0025c-8.9678,-0.0838 -14.2166,-1.5718 -17.6596,-2.5481c-3.4431,-0.9762 -6.4683,-2.5178 -7.7458,-4.8907c-0.2206,-0.4097 -0.2496,-0.8036 -0.1519,-1.1761c0.4078,-1.5586 3.0857,-2.7277 3.7551,-2.9981c0.0031,-0.0012 0.0069,-0.0025 0.0094,-0.0037c0.0448,-0.0177 0.0782,-0.0316 0.1027,-0.0404c0.0038,-0.0019 0.007,-0.0025 0.0101,-0.0038c0.0183,-0.0075 0.0315,-0.0126 0.0315,-0.0126c7.6916,-2.7245 15.5937,-3.6447 22.6884,-3.6447z" fill="#000000"/></g><g><path d="M236.75301,163.382c-5.347,0.0007 -5.596,-4.1609 -5.6041,-4.338c0.0094,-0.138 0.3226,-4.0941 8.2619,-4.6462c-0.0126,0.0025 0.3309,0.0347 0.8723,0.0347c1.4558,0 4.2018,-0.2307 6.2489,-1.7786c1.1464,-0.8672 1.8447,-1.05 2.2273,-1.05c0.4947,0 0.6397,0.3013 0.6542,0.3353c0.0176,0.0391 1.0897,2.3672 -0.0132,4.95c-1.0028,2.3489 -3.4362,4.1842 -7.2334,5.4542c-2.0572,0.6895 -3.8792,1.0386 -5.4139,1.0386z" fill="#f37920"/><path d="M248.75991,151.9197c-0.2741,0 -0.9038,0.1279 -2.0376,0.9857c-2.1201,1.6033 -4.9443,1.8422 -6.4392,1.8422c-0.4513,0 -0.7721,-0.0214 -0.8969,-0.0321c-7.3039,0.5224 -7.8794,3.9623 -7.9203,4.3481c0.0334,0.4159 0.4626,4.0033 5.2871,4.0033c1.5007,0 3.2887,-0.3435 5.3143,-1.021c3.7134,-1.2429 6.0851,-3.022 7.0481,-5.2891c1.0449,-2.4604 0.0315,-4.643 0.0208,-4.6644l-0.024,-0.0517c-0.0227,-0.0271 -0.114,-0.121 -0.3523,-0.121v0M248.75991,151.9197l-0.0006,-0.6303v0c0.7418,0 0.946,0.532 0.946,0.532c0,0 3.4229,7.188 -7.4382,10.822c-2.2519,0.7531 -4.0613,1.0538 -5.5141,1.0538c-5.71,0 -5.9193,-4.6387 -5.9193,-4.6387c0,0 0.1979,-4.3941 8.5576,-4.9745c0,0 0.3409,0.034 0.8918,0.034c1.3783,0 4.0739,-0.2143 6.0585,-1.7149c1.1364,-0.8597 1.9059,-1.1137 2.4177,-1.1137z" fill="#000000"/></g><g><path d="M236.05281,161.0085c-3.288,0 -4.6764,-1.7275 -4.9159,-2.0647c-0.0227,-0.2407 -0.046,-1.1596 0.7386,-2.1523c0.8597,-1.0878 2.8815,-2.4548 7.6336,-2.7926c0.0051,0 0.0095,0 0.0133,0c0.7499,0 4.2617,-0.0996 6.8659,-1.8643c0.6983,-0.4733 1.3191,-0.7134 1.8435,-0.7134c0.9579,0 1.3014,0.8275 1.3159,0.8628c0.0133,0.0334 1.1162,3.1789 -7.1766,7.0701c-2.3389,1.0979 -4.4653,1.6544 -6.3183,1.6544z" fill="#faab18"/><path d="M248.23181,151.7369c-0.4538,0 -1.0305,0.2275 -1.6664,0.658c-2.6968,1.8271 -6.3202,1.9197 -7.0185,1.9197h-0.039c-4.6393,0.3334 -6.5843,1.6456 -7.3985,2.688c-0.6259,0.8017 -0.6725,1.5467 -0.6637,1.8278c0.3214,0.4147 1.6563,1.8624 4.6071,1.8624c1.8063,0 3.8868,-0.5465 6.184,-1.6236c7.9424,-3.7266 7.0261,-6.6447 7.016,-6.6737c-0.0252,-0.0592 -0.2975,-0.6586 -1.021,-0.6586v0M248.23181,151.7369v-0.6302v0c1.1962,0 1.609,1.0632 1.609,1.0632c0,0 1.4086,3.368 -7.3361,7.471c-2.6628,1.2491 -4.7861,1.6834 -6.4519,1.6834c-3.8042,0 -5.2191,-2.2658 -5.2191,-2.2658c0,0 -0.8237,-4.6998 8.6534,-5.3729c0,0 0.0208,0 0.0598,0c0.503,0 4.0847,-0.063 6.6649,-1.8113c0.8395,-0.5691 1.5032,-0.7676 2.02,-0.7676z" fill="#000000"/></g><path d="M215.60061,161.9684c-0.2174,-0.1122 -1.0021,-0.5887 -1.4143,-1.783c-0.4519,-1.3103 -0.5124,-3.7506 1.7672,-7.9342c0.0776,-0.1135 2.2292,-3.38 2.141,-6.7979c-0.0265,-1.021 0.1708,-1.7546 0.5855,-2.18c0.334,-0.3429 0.7456,-0.4147 1.0317,-0.4147c0.1204,0 0.2011,0.0132 0.213,0.0157c0.0353,0.007 3.2792,0.7746 2.0824,9.8565c-1.1471,8.6886 -5.7737,9.2073 -6.4065,9.2376z" fill="#faab18"/><path d="M219.71171,143.1737c-0.2256,0 -0.5489,0.0555 -0.8054,0.3195c-0.3486,0.3574 -0.5206,1.0324 -0.4967,1.9519c0.0876,3.3983 -1.9682,6.6384 -2.192,6.98c-2.2014,4.0507 -2.1624,6.3876 -1.7407,7.6355c0.334,0.9901 0.9466,1.4395 1.1962,1.5876c0.8105,-0.0699 4.9474,-0.8231 6.0214,-8.959c1.1395,-8.6495 -1.7729,-9.4909 -1.8347,-9.5067v0c-0.0019,0 -0.0605,-0.0088 -0.1481,-0.0088v0M219.71171,143.1737v-0.6302v0c0.1664,0 0.2729,0.022 0.2729,0.022c0,0 3.5962,0.6303 2.3338,10.2069c-1.2466,9.4506 -6.6422,9.513 -6.7833,9.513c-0.0019,0 -0.0026,0 -0.0026,0c0,0 -4.4016,-1.8416 0.1444,-10.1848c0,0 2.1894,-3.2811 2.1025,-6.6391c-0.0681,-2.6338 1.3267,-2.918 1.9323,-2.918z" fill="#000000"/><g><path d="M248.81661,156.1001c-1.2554,0 -2.1598,-0.5149 -2.168,-0.5206c-0.1116,-0.0825 -3.2735,-2.4813 0.5458,-9.4657c0.08,-0.0933 2.6483,-3.3794 2.3716,-6.934c-0.126,-1.6191 0.1651,-2.3017 0.4317,-2.5897c0.1803,-0.196 0.3731,-0.225 0.4715,-0.225l0.0668,0.0057c0.0252,0.0031 2.5638,0.3561 4.1438,2.6786c1.437,2.1119 1.669,5.1504 0.6914,9.0333c-1.6701,6.6265 -4.4867,8.0174 -6.5546,8.0174z" fill="#f37920"/><path d="M250.46921,136.6802v0c-0.0574,0 -0.1456,0.0215 -0.2402,0.1242c-0.1481,0.1588 -0.4764,0.7071 -0.3485,2.3508c0.2723,3.4941 -2.1,6.7204 -2.4334,7.1546c-3.5073,6.4456 -0.8823,8.7958 -0.6145,9.0113c0.1525,0.0794 0.9454,0.4639 1.984,0.4639c2.8053,0 4.9664,-2.6899 6.249,-7.7798c0.9573,-3.7966 0.738,-6.7525 -0.6517,-8.7869c-1.5082,-2.2072 -3.8924,-2.5311 -3.9164,-2.5343l-0.0283,-0.0038M250.46921,136.6802v-0.6302v0c0.0674,0 0.1065,0.0082 0.1065,0.0082c0,0 7.8995,0.9952 5.1006,12.1008c-1.7401,6.9025 -4.7597,8.2563 -6.8603,8.2563c-1.3544,0 -2.3262,-0.5629 -2.3262,-0.5629c0,0 -3.5931,-2.5373 0.4279,-9.8892c0,0 2.6042,-3.2861 2.3338,-6.7588c-0.2275,-2.9218 0.8647,-3.1544 1.2177,-3.1544z" fill="#000000"/></g><g><path d="M246.55781,155.5354c-0.2174,-0.1122 -1.0021,-0.5886 -1.4143,-1.7823c-0.4518,-1.3103 -0.5117,-3.7506 1.7679,-7.9342c0.0769,-0.1135 2.2286,-3.3801 2.1403,-6.7979c-0.0264,-1.021 0.1708,-1.7546 0.5855,-2.18c0.3341,-0.3429 0.7456,-0.4147 1.0324,-0.4147c0.1204,0 0.201,0.0132 0.213,0.0157c0.0347,0.0069 3.2786,0.7746 2.0817,9.8565c-1.1464,8.6886 -5.7737,9.2073 -6.4065,9.2369z" fill="#faab18"/><path d="M250.66891,136.7408c-0.2256,0 -0.5489,0.0554 -0.8067,0.3189c-0.3485,0.3573 -0.5199,1.0329 -0.496,1.9518c0.087,3.3983 -1.9689,6.6385 -2.192,6.9801c-2.2204,4.0846 -2.1649,6.4298 -1.7262,7.6777c0.3371,0.9605 0.9409,1.4016 1.1817,1.5453c0.8092,-0.0693 4.9474,-0.8218 6.0214,-8.9583c1.1401,-8.6496 -1.7723,-9.491 -1.8347,-9.5067v0c-0.0019,0 -0.0599,-0.0088 -0.1475,-0.0088v0M250.66891,136.7408v-0.6303v0c0.1671,0 0.2736,0.0214 0.2736,0.0214c0,0 3.5962,0.6303 2.3338,10.2076c-1.2473,9.4505 -6.6422,9.5129 -6.7834,9.5129c-0.0019,0 -0.0031,0 -0.0031,0c0,0 -4.4017,-1.8416 0.1443,-10.1848c0,0 2.1895,-3.2811 2.1025,-6.639c-0.0687,-2.6339 1.3267,-2.9181 1.9323,-2.9181z" fill="#000000"/></g><g fill="#fff4a0"><path d="M225.33001,147.9789c1.2797,0.1726 2.3915,0.6851 3.1534,1.3736c0.7624,0.6886 1.1749,1.5532 1.0567,2.4294c-0.1183,0.8763 -0.7451,1.6007 -1.6628,2.0626c-0.917,0.462 -2.1249,0.6615 -3.4046,0.4888c-1.2798,-0.1726 -2.3916,-0.6851 -3.1534,-1.3736c-0.7625,-0.6886 -1.1749,-1.5531 -1.0567,-2.4294c0.1182,-0.8763 0.745,-1.6007 1.6627,-2.0626c0.917,-0.4619 2.1249,-0.6615 3.4047,-0.4888z"/><path d="M225.34411,147.7966c1.2798,0.1726 2.4033,0.5988 3.1838,1.1485c0.7813,0.5492 1.2197,1.222 1.1301,1.8865c-0.0896,0.6646 -0.6905,1.1972 -1.5893,1.5199c-0.8983,0.3235 -2.0945,0.4369 -3.3743,0.2644c-1.2797,-0.1725 -2.4032,-0.5987 -3.1838,-1.1485c-0.7812,-0.5492 -1.2196,-1.2219 -1.1301,-1.8865c0.0896,-0.6645 0.6905,-1.1972 1.5894,-1.5199c0.8983,-0.3234 2.0945,-0.4369 3.3742,-0.2644z"/></g><path d="M224.75181,150.3623c0.0385,0.0234 0.0561,0.0517 0.0775,0.0914c0.0479,0.0983 0.0114,0.2042 -0.063,0.2767c-0.1645,0.1601 -0.3466,0.2716 -0.5458,0.3807c-0.1563,0.0876 -0.3019,-0.1185 -0.2124,-0.2534c0.1305,-0.1922 0.278,-0.3422 0.4607,-0.4847c0.0883,-0.0686 0.191,-0.0661 0.283,-0.0107z" fill="#000000"/><path d="M225.70731,150.6384c0.2168,0.201 0.5067,0.3246 0.5962,0.622c0.034,0.111 -0.0895,0.2515 -0.2061,0.2282c-0.3227,-0.0656 -0.5508,-0.3725 -0.7084,-0.6479c-0.1185,-0.2042 0.1752,-0.3372 0.3183,-0.2023z" fill="#000000"/><path d="M225.53771,149.4756c0.1601,0.1638 0.0334,0.3025 -0.0296,0.4827c-0.0422,0.1148 -0.2458,0.1141 -0.254,-0.022c-0.0107,-0.1822 -0.0743,-0.3542 0.0984,-0.4777c0.0623,-0.0435 0.1317,-0.0379 0.1852,0.017z" fill="#000000"/><path d="M232.32491,159.0402c-2.8979,0 -4.6878,-2.4119 -5.1769,-6.9743c0.0051,-0.1475 0.0435,-4.5554 -2.8789,-6.6933c-0.6977,-0.5105 -1.0444,-1.055 -1.0292,-1.6191c0.0296,-1.118 1.4073,-2.0306 1.4212,-2.0394c0.0138,-0.0089 1.079,-0.7066 2.7876,-0.7066c1.8428,0 4.7205,0.8244 7.9632,4.7502c5.7548,6.97 -0.1456,12.3031 -0.687,12.7676c-0.191,0.0864 -1.1943,0.5149 -2.4,0.5149z" fill="#fff4c7"/><path d="M227.44931,141.3227c-1.6021,0 -2.601,0.6453 -2.6105,0.6523c-0.3529,0.2332 -1.2643,1.0046 -1.2832,1.7899c-0.0107,0.4538 0.2918,0.9088 0.9,1.3538c2.9338,2.146 3.0113,6.4468 3.0101,6.9491c0.3315,3.046 1.4458,6.6573 4.8592,6.6573c1.0853,0 1.984,-0.3605 2.2273,-0.4676c0.6756,-0.5931 6.0781,-5.6855 0.617,-12.2993c-3.1638,-3.8313 -5.9445,-4.6355 -7.7199,-4.6355v0M227.44931,141.3227l-0.0006,-0.6303v0c2.0388,0 4.9581,0.9315 8.2058,4.8649c6.1739,7.4779 -0.7588,13.2359 -0.7588,13.2359c0,0 -1.1408,0.5622 -2.5708,0.5622c-2.1069,0 -4.8435,-1.2196 -5.4901,-7.2561c0,0 0.0725,-4.4067 -2.7517,-6.4727c-2.8254,-2.0659 0.4059,-4.1766 0.4059,-4.1766c0,0 1.1219,-0.7576 2.9597,-0.7576z" fill="#000000"/><g><path d="M232.87761,153.0762c-0.0126,-0.0032 -1.5869,-0.1929 -2.2292,-1.5492c-0.5281,-1.1168 -0.5659,-3.3478 2.2563,-7.6354c3.3139,-5.0332 6.4267,-6.0895 8.4548,-6.0895c1.3954,0 2.2733,0.5073 2.2822,0.5124c0.0283,0.0157 0.1002,0.0655 0.1128,0.1966c0.0195,0.2049 -0.0883,0.8156 -1.5006,2.0647c-2.5494,2.2563 -3.249,5.7284 -3.278,5.8746c-2.4264,6.4903 -6.0012,6.6239 -6.0983,6.6258z" fill="#f30d00"/><g fill="#000000"><path d="M241.35951,138.1166c-1.9506,0 -4.955,1.0323 -8.1913,5.9477c-2.7378,4.1596 -2.7277,6.2772 -2.2374,7.3216c0.5237,1.1136 1.7439,1.3405 1.9733,1.3739c0.3025,-0.0221 3.5086,-0.3958 5.7737,-6.4235c0.1027,-0.4834 0.883,-3.7966 3.3668,-5.9962c1.2756,-1.1269 1.3884,-1.655 1.396,-1.7767c-0.1765,-0.0901 -0.9441,-0.4468 -2.0811,-0.4468M241.35951,138.1166v-0.6303v0c1.5107,0 2.4429,0.5565 2.4429,0.5565c0,0 1.1615,0.5584 -1.3399,2.7694c-2.4983,2.2109 -3.1771,5.6987 -3.1771,5.6987c-2.5525,6.8388 -6.3189,6.8798 -6.4097,6.8798c-0.0006,0 -0.0012,0 -0.0012,0c0,0 -6.1947,-0.6164 -0.2326,-9.6731c3.3933,-5.1542 6.6157,-6.2313 8.7176,-6.2313z"/></g></g><g><path d="M233.24821,153.1077c-0.0989,0 -0.1765,-0.0063 -0.2281,-0.0126c-0.3731,-0.3863 -2.4889,-3.0391 2.5084,-9.2363c4.1697,-5.1706 6.5817,-5.7283 7.4256,-5.7283c0.2962,0 0.4418,0.0661 0.4437,0.0668c0.0126,0.0063 0.3359,0.1764 0.3926,0.5615c0.0517,0.3517 -0.1015,0.9763 -1.1244,1.9588c-2.347,2.2563 -3.2792,5.5097 -3.3182,5.6464c-2.3458,6.2559 -5.262,6.7437 -6.0996,6.7437z" fill="#fff4c7"/><g fill="#000000"><path d="M242.95411,138.4456c-0.7979,0 -3.0958,0.547 -7.1811,5.6117c-4.5548,5.6483 -3.0498,8.1882 -2.6029,8.734c0.0239,0.0006 0.0498,0.0013 0.0775,0.0013c0.7853,0 3.5231,-0.4727 5.8046,-6.5408c0.1027,-0.3535 1.0739,-3.53 3.3951,-5.7611c1.0047,-0.9649 1.0563,-1.4955 1.0324,-1.6789c-0.0277,-0.2106 -0.196,-0.3164 -0.2275,-0.3347c0,0 0,0 -0.0007,0c-0.0063,0 -0.1103,-0.0315 -0.2974,-0.0315M242.95411,138.4456v-0.6303v0c0.3926,0 0.5829,0.0996 0.5829,0.0996c0,0 1.662,0.8067 -0.6523,3.0302c-2.3124,2.2223 -3.2331,5.5046 -3.2331,5.5046c-2.39,6.375 -5.3691,6.9731 -6.4034,6.9731c-0.2388,0 -0.3737,-0.0321 -0.3737,-0.0321c0,0 -3.2981,-2.6527 2.4088,-9.7298c4.1483,-5.1435 6.6264,-5.8456 7.6708,-5.8456z"/></g></g><g><path d="M254.13221,159.6383c-2.3175,0 -3.3889,-2.2134 -3.3996,-2.2354c-0.0466,-0.1311 -1.321,-3.8439 4.6355,-7.7521c0.092,-0.0322 3.4783,-1.4704 4.8712,-4.6317c0.784,-1.7849 1.3846,-1.9777 1.6071,-1.9777c0.1633,0 0.2628,0.0964 0.2672,0.1008c0.2225,0.2086 5.0843,4.9077 -1.6626,12.5029c-2.3539,2.6496 -4.4798,3.9932 -6.3188,3.9932z" fill="#f30d00"/><g fill="#000000"><path d="M261.84641,143.3559c-0.1846,0 -0.697,0.3743 -1.3191,1.788c-1.3594,3.0863 -4.5441,4.5844 -5.0313,4.7987c-5.4762,3.6157 -4.5787,6.9958 -4.4647,7.3506c0.128,0.2508 1.1068,2.0288 3.1009,2.0288c1.7199,0 3.8243,-1.3444 6.0831,-3.8874c6.5622,-7.3872 1.8977,-11.8632 1.696,-12.0504l-0.0145,-0.0132c-0.0082,-0.0051 -0.0264,-0.0151 -0.0504,-0.0151v0M261.84641,143.3559v-0.6303v0c0.3114,0 0.4935,0.1973 0.4935,0.1973c0,0 5.3943,4.9985 -1.6531,12.9314c-2.7864,3.1374 -4.95,4.0992 -6.5546,4.0992c-2.5437,0 -3.6845,-2.4164 -3.6845,-2.4164c0,0 -1.5195,-4.0374 4.7477,-8.1498c0,0 3.3977,-1.4136 4.7552,-4.4955c0.7866,-1.7899 1.4647,-2.1662 1.8958,-2.1662z"/></g></g><g><path d="M252.58171,157.8018c-1.0279,0 -1.7117,-0.3718 -1.8983,-0.4866c-0.259,-0.4852 -1.7495,-3.8779 4.6084,-8.064c0.1034,-0.0523 3.1689,-1.6935 4.6374,-4.6386c0.5092,-1.0198 1.0758,-1.5593 1.6399,-1.5593c0.4475,0 0.7733,0.336 0.7758,0.3391c0.024,0.0258 2.0893,2.4025 -2.8752,9.4764c-2.8619,4.0771 -5.3256,4.933 -6.888,4.933z" fill="#fff4c7"/><g fill="#000000"><path d="M261.5691,143.3685c-0.4298,0 -0.912,0.4916 -1.3582,1.3846c-1.4533,2.9162 -4.4218,4.5882 -4.7697,4.7767c-5.8223,3.8439 -4.8139,6.9245 -4.517,7.5617c0.2281,0.1254 0.8155,0.3952 1.6575,0.3952c1.4881,0 3.8458,-0.8326 6.6303,-4.7994c4.7123,-6.7147 2.9338,-9.0478 2.9136,-9.0686c-0.0075,-0.0076 -0.2502,-0.2502 -0.5565,-0.2502v0M261.5691,143.3685v-0.6303v0c0.5981,0 1.0071,0.4393 1.0071,0.4393c0,0 2.3767,2.4271 -2.8487,9.8722c-2.9117,4.1483 -5.4605,5.0672 -7.1458,5.0672c-1.3399,0 -2.1346,-0.5798 -2.1346,-0.5798c0,0 -2.4296,-3.8748 4.6708,-8.5493c0,0 3.0895,-1.628 4.5296,-4.5164c0.6851,-1.3727 1.3802,-1.7332 1.9216,-1.7332z"/></g></g><g><path d="M237.32281,156.5659c-2.3527,0 -3.629,-1.2473 -3.6416,-1.2605c-0.0233,-0.0227 -0.0807,-0.0883 -0.0605,-0.2193c0.0328,-0.203 0.2893,-0.7677 1.9695,-1.6236c3.0328,-1.5479 4.5782,-4.7338 4.6418,-4.8686c3.1185,-4.4546 5.942,-4.9406 7.0103,-4.9406c0.351,0 0.5502,0.0504 0.5521,0.0511v0c-0.0051,0 1.4855,0.576 1.7697,2.0577c0.2326,1.2133 -0.2886,3.3832 -4.0935,6.8288c-2.913,2.6382 -5.6546,3.9756 -8.1466,3.9756c-0.0006,-0.0006 -0.0012,-0.0006 -0.0012,-0.0006z" fill="#f30d00"/><g fill="#000000"><path d="M247.24231,143.9685c-1.0154,0 -3.7021,0.4701 -6.7513,4.8113c-0.2199,0.4424 -1.8031,3.4556 -4.7583,4.9638c-1.5183,0.7733 -1.7591,1.2561 -1.7956,1.3714c0.2054,0.186 1.3525,1.1358 3.385,1.1358c2.4126,0 5.083,-1.3097 7.9368,-3.8937c3.6914,-3.3422 4.2107,-5.3956 3.9964,-6.5294c-0.2282,-1.2095 -1.3525,-1.7345 -1.5674,-1.824c-0.0555,-0.0107 -0.2112,-0.0352 -0.4456,-0.0352M247.24231,143.9685v-0.6303v0c0.4052,0 0.6327,0.0611 0.6327,0.0611c0,0 5.845,2.146 -2.1926,9.4248c-3.5099,3.1777 -6.3214,4.0569 -8.3596,4.0569c-2.5273,0 -3.8653,-1.3531 -3.8653,-1.3531c0,0 -0.9851,-0.8307 1.9897,-2.3458c2.9716,-1.517 4.5006,-4.7237 4.5006,-4.7237c3.1834,-4.5555 6.0623,-5.1202 7.2945,-5.1202z"/></g></g><g><path d="M235.00091,155.7352c-0.7928,0 -1.1105,-0.2527 -1.1136,-0.2552c-0.0107,-0.0095 -0.2817,-0.2553 -0.2401,-0.6423c0.0378,-0.3529 0.3422,-0.9195 1.5781,-1.6153c2.8361,-1.5977 4.5529,-4.5145 4.6248,-4.638c3.1046,-4.4281 5.6218,-5.0924 6.8445,-5.0924c0.4935,0 0.8275,0.1052 0.9649,0.1582c0.2653,0.4683 1.6487,3.5653 -4.7388,8.3155c-4.1881,3.1153 -6.6183,3.7695 -7.9198,3.7695z" fill="#fff4c7"/><g fill="#000000"><path d="M246.69521,143.8071c-1.1596,0 -3.5565,0.6454 -6.5873,4.9607c-0.1872,0.317 -1.9229,3.1494 -4.7275,4.7294c-1.2133,0.6832 -1.3967,1.1836 -1.4194,1.3676c-0.0264,0.2162 0.1185,0.3631 0.1387,0.3826v0c0.0044,0 0.2729,0.1727 0.9012,0.1727c1.0261,0 3.3958,-0.4815 7.7332,-3.7071c5.8222,-4.3305 5.0004,-7.166 4.7042,-7.8063c-0.1469,-0.0441 -0.4002,-0.0996 -0.7431,-0.0996M246.69521,143.8071v-0.6302v0c0.7557,0 1.1798,0.2224 1.1798,0.2224c0,0 2.5299,3.3927 -4.7653,8.8185c-4.2668,3.1733 -6.7682,3.8319 -8.1088,3.8319c-0.9516,0 -1.3191,-0.3315 -1.3191,-0.3315c0,0 -1.4073,-1.1962 1.3897,-2.7706c2.7939,-1.5737 4.5063,-4.5214 4.5063,-4.5214c3.1336,-4.4704 5.705,-5.2493 7.1174,-5.2493z"/></g></g><g fill="#fff4a0"><path d="M216.78791,148.6797c1.1288,-0.2144 2.2106,-0.0946 3.0474,0.2718c0.8369,0.3664 1.4281,0.9797 1.5748,1.7524c0.1468,0.7727 -0.1784,1.56 -0.8226,2.2077c-0.6442,0.6478 -1.6068,1.1559 -2.7355,1.3702c-1.1287,0.2144 -2.2106,0.0947 -3.0474,-0.2717c-0.8368,-0.3665 -1.428,-0.9797 -1.5748,-1.7524c-0.1467,-0.7727 0.1784,-1.56 0.8226,-2.2078c0.6442,-0.6477 1.6068,-1.1558 2.7355,-1.3702z"/><path d="M216.72651,148.5421c1.1287,-0.2145 2.1962,-0.171 3.0099,0.0734c0.8135,0.2437 1.3726,0.6873 1.484,1.2736c0.1114,0.5864 -0.2459,1.2041 -0.9134,1.7293c-0.6673,0.5258 -1.6443,0.9579 -2.773,1.1724c-1.1288,0.2145 -2.1962,0.171 -3.0099,-0.0734c-0.8136,-0.2438 -1.3726,-0.6873 -1.484,-1.2736c-0.1114,-0.5864 0.2459,-1.2041 0.9133,-1.7293c0.6673,-0.5258 1.6444,-0.9579 2.7731,-1.1724z"/></g><path d="M216.93111,150.8993c0.0384,0.0088 0.0617,0.0277 0.0907,0.0548c0.0681,0.07 0.0675,0.1696 0.0252,0.2515c-0.0933,0.1815 -0.2155,0.3265 -0.3535,0.4746c-0.1072,0.1178 -0.2881,-0.0145 -0.2503,-0.1538c0.0555,-0.1979 0.1381,-0.3668 0.2521,-0.5382c0.0549,-0.0832 0.1431,-0.1097 0.2358,-0.0889z" fill="#000000"/><path d="M217.81531,150.8634c0.2389,0.109 0.5187,0.1311 0.6781,0.3573c0.0599,0.0839 -0.0044,0.237 -0.1096,0.2502c-0.2912,0.036 -0.5698,-0.16 -0.7803,-0.3472c-0.1575,-0.1393 0.053,-0.3341 0.2118,-0.2603z" fill="#000000"/><path d="M217.34451,149.9294c0.1815,0.0939 0.1134,0.2464 0.1109,0.4159c-0.0031,0.1091 -0.1752,0.1658 -0.2199,0.053c-0.0612,-0.1513 -0.1633,-0.2786 -0.0523,-0.4311c0.0409,-0.0536 0.1008,-0.0687 0.1613,-0.0378z" fill="#000000"/><g fill="#fff4a0"><path d="M255.39531,152.1597c1.2037,-0.4676 2.4246,-0.5565 3.4244,-0.3222c1.0003,0.2341 1.7793,0.7915 2.0995,1.6157c0.3202,0.8242 0.1217,1.7613 -0.4582,2.6093c-0.5794,0.8478 -1.5402,1.6064 -2.7439,2.074c-1.2037,0.4676 -2.4247,0.5566 -3.4244,0.3222c-1.0003,-0.2341 -1.7794,-0.7914 -2.0996,-1.6156c-0.3201,-0.8242 -0.1217,-1.7614 0.4583,-2.6094c0.5793,-0.8477 1.5402,-1.6064 2.7439,-2.074z"/><path d="M255.31351,151.9942c1.2037,-0.4677 2.3932,-0.6378 3.3423,-0.534c0.9495,0.103 1.6585,0.48 1.9014,1.105c0.2429,0.6251 -0.0256,1.3819 -0.6564,2.099c-0.6299,0.7174 -1.6222,1.3951 -2.8259,1.8629c-1.2037,0.4677 -2.3932,0.6378 -3.3423,0.534c-0.9495,-0.103 -1.6586,-0.48 -1.9014,-1.105c-0.2429,-0.6251 0.0255,-1.3819 0.6563,-2.099c0.63,-0.7174 1.6223,-1.3951 2.826,-1.8629z"/></g><path d="M256.01721,154.5718c0.0448,0.0019 0.0744,0.0182 0.111,0.0416c0.0901,0.063 0.109,0.1739 0.0787,0.2729c-0.0661,0.2199 -0.172,0.4052 -0.2937,0.5974c-0.0939,0.1519 -0.3214,0.0423 -0.3081,-0.1191c0.022,-0.2306 0.0781,-0.4342 0.1695,-0.6466c0.0441,-0.1027 0.1355,-0.15 0.2426,-0.1462z" fill="#000000"/><path d="M256.98721,154.3512c0.2868,0.0718 0.6006,0.0397 0.8225,0.2559c0.0838,0.0806 0.0435,0.2634 -0.07,0.2993c-0.3145,0.099 -0.6618,-0.0598 -0.9334,-0.2243c-0.2023,-0.121 -0.0101,-0.3801 0.1809,-0.3309z" fill="#000000"/><path d="M256.2763,153.4153c0.2199,0.0668 0.1752,0.2489 0.2067,0.4361c0.0189,0.121 -0.1601,0.2193 -0.2326,0.104c-0.0977,-0.1538 -0.2369,-0.2742 -0.1449,-0.4658c0.034,-0.068 0.0977,-0.0964 0.1708,-0.0743z" fill="#000000"/><g fill="#fff4a0"><path d="M250.66801,149.682c1.2639,0.2651 2.3356,0.857 3.0455,1.5989c0.7104,0.7422 1.059,1.6344 0.8775,2.4998c-0.1815,0.8654 -0.8593,1.5424 -1.8081,1.9365c-0.9482,0.3942 -2.1674,0.5055 -3.4313,0.2403c-1.2638,-0.2651 -2.3355,-0.8569 -3.0454,-1.5989c-0.7104,-0.7422 -1.0591,-1.6344 -0.8775,-2.4998c0.1815,-0.8654 0.8593,-1.5424 1.8081,-1.9364c0.9482,-0.3942 2.1674,-0.5056 3.4312,-0.2404z"/><path d="M250.69361,149.5005c1.2639,0.265 2.3535,0.7716 3.0921,1.3766c0.7393,0.6045 1.1277,1.3073 0.9901,1.9636c-0.1376,0.6563 -0.7756,1.144 -1.6955,1.4006c-0.9194,0.2573 -2.1207,0.2836 -3.3846,0.0186c-1.2638,-0.265 -2.3534,-0.7716 -3.092,-1.3766c-0.7394,-0.6044 -1.1278,-1.3073 -0.9902,-1.9636c0.1376,-0.6563 0.7756,-1.1439 1.6955,-1.4005c0.9194,-0.2574 2.1207,-0.2837 3.3846,-0.0187z"/></g><path d="M249.92211,152.0022c0.0366,0.0259 0.0523,0.0555 0.0706,0.0952c0.041,0.1021 -0.0032,0.2055 -0.0826,0.2716c-0.1752,0.1488 -0.3655,0.2465 -0.5722,0.341c-0.162,0.0763 -0.2925,-0.1399 -0.1935,-0.2678c0.1437,-0.1822 0.3019,-0.3215 0.4947,-0.45c0.0927,-0.0618 0.1954,-0.0517 0.283,0.01z" fill="#000000"/><path d="M250.85491,152.347c0.2016,0.2168 0.4821,0.3605 0.5502,0.6643c0.0258,0.1134 -0.1078,0.2439 -0.2225,0.2124c-0.3177,-0.0889 -0.5219,-0.4116 -0.6599,-0.6977c-0.1033,-0.213 0.1986,-0.324 0.3322,-0.179z" fill="#000000"/><path d="M250.77041,151.1747c0.1475,0.1759 0.0107,0.3038 -0.0649,0.4796c-0.0498,0.1116 -0.2534,0.0958 -0.2515,-0.0403c0.0025,-0.1821 -0.0485,-0.3592 0.133,-0.4695c0.0649,-0.0391 0.1343,-0.0284 0.1834,0.0302z" fill="#000000"/><path d="M225.57561,153.6024c0.5565,0 1.06,0.2332 1.425,0.6101c0.3655,0.3769 0.5911,0.8975 0.5911,1.4717c0,0.5741 -0.2256,1.0947 -0.5911,1.4716c-0.365,0.3769 -0.8685,0.6101 -1.425,0.6101c-0.5565,0 -1.0601,-0.2332 -1.425,-0.6101c-0.3656,-0.3769 -0.5912,-0.8975 -0.5912,-1.4716c0,-0.5742 0.2256,-1.0948 0.5912,-1.4717c0.3649,-0.3769 0.8685,-0.6101 1.425,-0.6101z" fill="#3f64ff"/><path d="M217.07851,148.4388c0.5565,0 1.0601,0.2332 1.425,0.6101c0.3656,0.3769 0.5912,0.8975 0.5912,1.4716c0,0.5742 -0.2256,1.0948 -0.5912,1.4717c-0.3649,0.3768 -0.8685,0.61 -1.425,0.61c-0.5565,0 -1.06,-0.2332 -1.425,-0.61c-0.3655,-0.3769 -0.5911,-0.8975 -0.5911,-1.4717c0,-0.5741 0.2256,-1.0947 0.5911,-1.4716c0.365,-0.3769 0.8685,-0.6101 1.425,-0.6101z" fill="#3f64ff"/><path d="M245.63831,153.4978c0.5565,0 1.0601,0.2332 1.425,0.6101c0.3655,0.3769 0.5912,0.8975 0.5912,1.4716c0,0.5742 -0.2257,1.0948 -0.5912,1.4717c-0.3649,0.3769 -0.8685,0.6101 -1.425,0.6101c-0.5565,0 -1.0601,-0.2332 -1.425,-0.6101c-0.3655,-0.3769 -0.5912,-0.8975 -0.5912,-1.4717c0,-0.5741 0.2257,-1.0947 0.5912,-1.4716c0.3649,-0.3769 0.8685,-0.6101 1.425,-0.6101z" fill="#3f64ff"/><path d="M255.40721,148.5605c0.5565,0 1.06,0.2331 1.425,0.61c0.3655,0.3769 0.5911,0.8975 0.5911,1.4717c0,0.5741 -0.2256,1.0947 -0.5911,1.4716c-0.365,0.3769 -0.8685,0.6101 -1.425,0.6101c-0.5566,0 -1.0601,-0.2332 -1.425,-0.6101c-0.3656,-0.3769 -0.5912,-0.8975 -0.5912,-1.4716c0,-0.5742 0.2256,-1.0948 0.5912,-1.4717c0.3649,-0.3769 0.8684,-0.61 1.425,-0.61z" fill="#3f64ff"/><path d="M243.74751,144.5691c0.5566,0 1.0601,0.2332 1.425,0.6101c0.3656,0.3769 0.5912,0.8974 0.5912,1.4716c0,0.5742 -0.2256,1.0947 -0.5912,1.4716c-0.3649,0.3769 -0.8684,0.6101 -1.425,0.6101c-0.5565,0 -1.06,-0.2332 -1.425,-0.6101c-0.3655,-0.3769 -0.5911,-0.8974 -0.5911,-1.4716c0,-0.5742 0.2256,-1.0947 0.5911,-1.4716c0.365,-0.3769 0.8685,-0.6101 1.425,-0.6101z" fill="#3f64ff"/><g fill="#fff4a0"><path d="M236.36731,144.7505c1.4187,-0.307 2.7891,-0.1902 3.8578,0.246c1.0687,0.4355 1.8352,1.1917 2.0455,2.1632c0.2102,0.9714 -0.1752,1.9769 -0.9681,2.8153c-0.7929,0.839 -1.9924,1.5119 -3.4111,1.8189c-1.4186,0.307 -2.7891,0.1902 -3.8578,-0.246c-1.0686,-0.4355 -1.8352,-1.1918 -2.0454,-2.1632c-0.2102,-0.9714 0.1751,-1.977 0.9681,-2.8153c0.7928,-0.839 1.9923,-1.5119 3.411,-1.8189z"/><path d="M236.32181,144.5722c1.4186,-0.307 2.7684,-0.2856 3.8038,-0.0035c1.0353,0.2815 1.7558,0.8247 1.9152,1.5614c0.1594,0.7367 -0.272,1.5291 -1.0983,2.2135c-0.8262,0.685 -2.0464,1.2624 -3.465,1.5694c-1.4187,0.307 -2.7685,0.2857 -3.8039,0.0035c-1.0353,-0.2815 -1.7557,-0.8246 -1.9152,-1.5614c-0.1594,-0.7367 0.2721,-1.5291 1.0984,-2.2135c0.8261,-0.685 2.0463,-1.2624 3.465,-1.5694z"/></g><path d="M236.65471,147.5331c0.0492,0.0101 0.0794,0.0334 0.1172,0.0662c0.0883,0.0857 0.0902,0.2118 0.0391,0.3164c-0.1122,0.2326 -0.2622,0.4198 -0.4311,0.612c-0.1317,0.1519 -0.3643,-0.0101 -0.322,-0.1866c0.0643,-0.2533 0.1626,-0.4683 0.3019,-0.6888c0.0668,-0.1059 0.1764,-0.1425 0.2949,-0.1192z" fill="#000000"/><path d="M237.77091,147.4594c0.3057,0.1305 0.6592,0.1494 0.8678,0.4292c0.0782,0.1046 0.0013,0.3006 -0.1304,0.3202c-0.3668,0.0542 -0.7242,-0.1834 -0.9971,-0.4135c-0.2029,-0.1708 0.0555,-0.4235 0.2597,-0.3359z" fill="#000000"/><path d="M237.14571,146.2953c0.2325,0.1128 0.1512,0.3076 0.1531,0.5213c0,0.1373 -0.2155,0.2149 -0.276,0.0737c-0.0813,-0.1878 -0.2143,-0.3454 -0.0788,-0.542c0.0485,-0.0694 0.1248,-0.0908 0.2017,-0.053z" fill="#000000"/><g><path d="M229.93941,166.8988c-0.8521,0 -1.4489,-0.196 -1.4552,-0.1972c-0.145,-0.0675 -4.1887,-2.0143 -1.5227,-10.5857c0.0693,-0.1261 2.1598,-4.2989 1.0701,-8.1353c-0.5533,-1.9506 -0.2684,-2.7447 -0.0497,-3.0447c0.2168,-0.2969 0.4985,-0.3095 0.5105,-0.3095c0.0214,-0.0006 0.0901,-0.0056 0.2117,-0.0056c0.7154,0 3.2023,0.16 5.1687,2.2229c1.9342,2.0294 2.8084,5.2714 2.5991,9.6371c-0.4348,9.0642 -4.2794,10.418 -6.5325,10.418z" fill="#f37920"/><path d="M228.70471,144.9346c-0.1008,0 -0.1613,0.0038 -0.1707,0.0051l-0.0215,0.0012h-0.0233c-0.0044,0.0019 -0.1437,0.0227 -0.2628,0.1954c-0.1431,0.2086 -0.4198,0.895 0.109,2.758c1.0708,3.772 -0.8306,7.8397 -1.0878,8.3634c-2.4542,7.9449 0.9864,9.9586 1.3683,10.1546c0.1267,0.0365 0.6359,0.1714 1.3235,0.1714c2.141,0 5.7958,-1.3147 6.218,-10.1187c0.2055,-4.2762 -0.6397,-7.4401 -2.5121,-9.4045c-1.8801,-1.9721 -4.2567,-2.1259 -4.9406,-2.1259M228.70471,144.9346v-0.6296v0c1.3582,0 8.6414,0.5408 8.0817,12.1903c-0.45,9.3787 -4.5447,10.7186 -6.8476,10.7186c-0.9214,0 -1.5555,-0.2142 -1.5555,-0.2142c0,0 -4.517,-1.9954 -1.7231,-10.9777c0,0 2.1366,-4.1937 1.0683,-7.9557c-1.0639,-3.7481 0.7456,-3.7556 0.7601,-3.7556v0c0,0 0.0769,-0.0057 0.2161,-0.0057z" fill="#000000"/></g><g><path d="M228.38771,166.6757c-0.254,-0.0699 -1.2485,-0.4172 -1.9827,-1.6664c-0.7929,-1.3481 -1.4061,-4.031 0.179,-9.1569c0.0605,-0.1443 1.6997,-4.2056 0.8464,-7.9361c-0.2786,-1.2182 -0.1916,-2.1214 0.2571,-2.6848c0.4778,-0.5994 1.2139,-0.6063 1.2215,-0.6063c0.0422,0 3.818,0.1191 4.5176,10.4205c0.6737,9.9132 -4.3746,11.4693 -5.0389,11.63z" fill="#faab18"/><path d="M228.91401,144.9409c-0.0895,0.0038 -0.6359,0.046 -0.9882,0.4979c-0.3731,0.479 -0.4381,1.3116 -0.1879,2.4069c0.8477,3.7078 -0.6976,7.7193 -0.8602,8.1246c-1.5467,5.0174 -0.9574,7.6071 -0.1897,8.8979c0.61,1.0247 1.4155,1.3802 1.7079,1.4798c0.8471,-0.2395 5.3502,-1.9588 4.7168,-11.2809c-0.6636,-9.7613 -4.0563,-10.1167 -4.1987,-10.1262M228.91401,144.9409l-0.0006,-0.6309v0c0.1493,0 4.1067,0.1003 4.8277,10.7143c0.7355,10.8189 -5.3571,11.9747 -5.3571,11.9747c0,0 -5.2519,-1.05 -2.1007,-11.2398c0,0 1.6809,-4.0967 0.8402,-7.7729c-0.8408,-3.6763 1.7855,-3.6763 1.7855,-3.6763c0,0 0.0018,0 0.0044,0z" fill="#000000"/></g><path d="M239.33011,180.0546c-0.8496,0 -1.3405,-0.0283 -1.3512,-0.0289c-28.7646,-2.7404 -28.2251,-21.0422 -28.1879,-21.8205c0.1361,-2.8607 1.6493,-5.7738 2.5928,-7.3298c1.2296,2.0243 3.871,3.5892 7.8542,4.6525c3.4033,0.9088 8.5468,2.2821 17.364,2.3596l0.5748,0.0025c0.2571,0 24.598,-0.0888 27.6169,-7.3764c2.2563,2.3893 2.5474,7.5561 2.2991,9.9063c-1.9273,18.2173 -22.5005,19.6347 -28.7627,19.6347c0.0007,0 0.0007,0 0,0z" fill="#65cbeb"/></g></g></g></svg>