<svg version="1.1" xmlns="http://www.w3.org/2000/svg" xmlns:xlink="http://www.w3.org/1999/xlink" width="150.19602" height="92.81913" viewBox="0,0,150.19602,92.81913"><g transform="translate(-157.81904,-86.66846)"><g data-paper-data="{&quot;isPaintingLayer&quot;:true}" fill-rule="evenodd" stroke="#000000" stroke-width="2" stroke-linecap="butt" stroke-linejoin="miter" stroke-miterlimit="10" stroke-dasharray="" stroke-dashoffset="0" style="mix-blend-mode: normal"><path d="M169.75221,178.48759c-17.4412,0 -6.88317,-72.59685 37.59921,-71.51974c45.30991,1.09824 61.76041,71.51974 61.76041,71.51974z" fill="#efab00"/><path d="M301.96734,149.34824c0,0 -90.52765,24.1055 -106.77655,26.49975c-21.75927,3.20639 -28.97077,-3.79006 -31.59733,-15.11995c-4.34495,-18.74104 10.79803,-19.35929 15.43865,-29.59861c4.6387,-10.24124 -6.27453,-26.90103 15.43865,-27.76117c18.16121,-0.72 18.43769,-14.6745 27.36565,-15.69979c13.84699,-1.58976 16.87098,11.55645 27.11605,15.21978c9.67677,3.45983 14.76857,-5.39326 25.59926,-1.04063c9.27932,3.73055 9.69789,23.55832 21.92056,27.68054c19.91994,6.71998 5.49501,19.82009 5.49501,19.82009" fill="#59c059"/><path d="M184.33954,143.60516c-1.97567,-0.59903 -3.10462,-2.70912 -2.50366,-4.68479l1.20384,-3.97054c0.59903,-1.97567 2.70719,-3.10271 4.68479,-2.50366l10.57148,3.20447c1.9776,0.60096 3.10462,2.70912 2.50366,4.68669l-1.20384,3.96862c-0.59903,1.9776 -2.70719,3.10271 -4.68479,2.50366l-10.57148,-3.20447" fill="#e8511c"/><path d="M181.34824,140.80197c2.67462,0.55679 6.49887,2.9376 9.61927,3.57119c-8.0708,17.10714 -9.52541,33.50388 -19.52006,34.07987h-0.04692c-7.67194,-0.5184 -15.95389,-6.39357 -11.16772,-12.44154c2.83885,-3.59038 -1.57193,-8.04477 -0.37538,-12.17275c1.7127,-5.95197 9.15002,-7.23838 11.7308,-7.83358c2.81539,-0.63359 5.79502,-6.02878 9.76002,-5.20319" fill="#c18500"/><path d="M193.70988,134.27323c-1.93919,3.51358 -3.53278,7.12318 -4.87679,10.69435l-1.8048,-0.55679l-1.728,-0.51647c1.40159,-3.57312 3.05279,-7.1635 5.04959,-10.63677z" fill="#c6431a"/><path d="M192.30924,121.63967c-1.86239,0.8928 -4.11839,0.09792 -5.00927,-1.76639l-0.3456,-0.71808c-0.89088,-1.86431 -0.096,-4.11647 1.76639,-5.00927l5.15519,-2.4672c1.86431,-0.8928 4.11839,-0.09792 5.00927,1.76446l0.3456,0.72c0.89088,1.86239 0.096,4.11839 -1.76639,5.00927l-5.15519,2.4672" fill="#e8511c"/><path d="M289.09723,134.7851c-1.03295,-1.78944 -0.41472,-4.09918 1.37664,-5.13214l1.82783,-1.05599c1.78944,-1.03295 4.09918,-0.41279 5.13214,1.37472l3.90335,6.76222c1.03295,1.78944 0.41472,4.09727 -1.37664,5.13214l-1.82783,1.05407c-1.78944,1.03295 -4.09918,0.41472 -5.13214,-1.37472l-3.90335,-6.76029" fill="#e8511c"/><path d="M244.81567,108.8746c-1.9488,0.68735 -4.10495,-0.34177 -4.7923,-2.29054l-0.70271,-1.99104c-0.68927,-1.9488 0.33984,-4.10495 2.28864,-4.79423l7.36125,-2.60158c1.9488,-0.68735 4.10495,0.34367 4.7923,2.29054l0.70464,1.99104c0.68927,1.9488 -0.34177,4.10686 -2.29054,4.79423l-7.36125,2.60158" fill="#e8511c"/><path d="M172.63181,178.48759c17.27994,0 4.26814,-67.61254 67.67975,-72.47973c50.48044,-3.87455 62.97577,38.9528 65.6004,61.44361c0.68544,5.86942 -3.83999,11.03612 -9.74589,11.03612z" fill="#ffbf00"/><path d="M218.68572,104.07557c-0.55679,0 -1.10975,-0.24192 -1.48991,-0.70847c-0.67008,-0.82176 -0.54528,-2.03136 0.27648,-2.69951l10.07995,-8.20989c0.82368,-0.66625 2.03328,-0.54528 2.70143,0.27648c0.67008,0.82176 0.54528,2.03136 -0.27648,2.70143l-10.07995,8.20796c-0.35711,0.28992 -0.78527,0.43199 -1.21152,0.43199" fill="#ffbf00"/><path d="M284.13981,110.08496c-0.11904,0 -0.23809,-0.00961 -0.35904,-0.03456l-12.77371,-2.41727c-1.04256,-0.19585 -1.72607,-1.20192 -1.53023,-2.24255c0.19775,-1.04256 1.20384,-1.73759 2.24255,-1.53023l12.77563,2.4192c1.04256,0.19585 1.72607,1.20192 1.52832,2.24255c-0.1728,0.92161 -0.97919,1.56288 -1.88351,1.56288" fill="#ffbf00"/><path d="M175.02374,149.50011c-0.42623,0 -0.85632,-0.14017 -1.21343,-0.43391l-10.0742,-8.21757c-0.82176,-0.66815 -0.94463,-1.87775 -0.27265,-2.69951c0.67008,-0.81983 1.87775,-0.94656 2.70143,-0.27455l10.0742,8.21949c0.82176,0.66815 0.94463,1.87775 0.27265,2.69951c-0.37823,0.46464 -0.93119,0.70656 -1.488,0.70656" fill="#ffbf00"/><path d="M283.34859,144.01583c-3.13152,0 -3.13727,-4.86718 0,-4.86718c3.13342,0 3.13727,4.86718 0,4.86718" fill="#efab00"/><path d="M258.42248,148.36944c-3.13152,0 -3.13727,-4.86718 0,-4.86718c3.13342,0 3.13727,4.86718 0,4.86718" fill="#efab00"/><path d="M255.40925,168.40935c-3.13152,0 -3.13727,-4.86718 0,-4.86718c3.13342,0 3.13918,4.86718 0,4.86718" fill="#efab00"/><path d="M214.18392,170.84313c-3.13152,0 -3.13727,-4.86718 0,-4.86718c3.13152,0 3.13727,4.86718 0,4.86718" fill="#efab00"/><path d="M219.00732,128.52457c-3.13152,0 -3.13727,-4.86718 0,-4.86718c3.13152,0 3.13727,4.86718 0,4.86718" fill="#efab00"/><path d="M244.80992,117.49594c-3.13152,0 -3.13727,-4.8691 0,-4.8691c3.13152,0 3.13727,4.8691 0,4.8691" fill="#efab00"/><path d="M232.16119,151.31701c-3.13152,0 -3.13727,-4.86718 0,-4.86718c3.13152,0 3.13727,4.86718 0,4.86718" fill="#efab00"/><path d="M205.2185,153.237c-3.13152,0 -3.13727,-4.86718 0,-4.86718c3.13152,0 3.13727,4.86718 0,4.86718" fill="#efab00"/><path d="M288.10172,163.78389c-3.13152,0 -3.13727,-4.86718 0,-4.86718c3.13152,0 3.13727,4.86718 0,4.86718" fill="#efab00"/><path d="M269.11185,126.09079c-3.13342,0 -3.13918,-4.86718 0,-4.86718c3.13152,0 3.13727,4.86718 0,4.86718" fill="#efab00"/><path d="M185.30051,143.89393l1.728,0.5184c-0.57601,0.17087 -1.2096,0.13441 -1.9008,-0.03839c0.05761,-0.1536 0.11519,-0.30721 0.1728,-0.47999" fill="#4ba04b"/></g></g></svg>