<svg version="1.1" xmlns="http://www.w3.org/2000/svg" xmlns:xlink="http://www.w3.org/1999/xlink" width="94.17546" height="55.10498" viewBox="0,0,94.17546,55.10498"><g transform="translate(-184.72956,-117.07225)"><g data-paper-data="{&quot;isPaintingLayer&quot;:true}" fill-rule="nonzero" stroke-linejoin="miter" stroke-miterlimit="10" stroke-dasharray="" stroke-dashoffset="0" style="mix-blend-mode: normal"><path d="M228.72171,119.00333c11.85969,0 20.66269,2.97776 30.38812,8.09824c4.62145,2.43892 9.02795,6.80906 11.59458,13.04124c2.03223,4.98348 3.1303,12.25176 1.29628,17.29001c-2.12088,5.8264 -7.02248,8.44144 -11.20654,9.91729c-9.57239,3.36146 -19.57464,3.86249 -29.39626,3.45797c-11.05768,0.0092 -22.29265,-0.34967 -33.06431,-4.64018c-4.07116,-1.62077 -7.6999,-6.42017 -10.13104,-11.73634c-1.55971,-3.54938 -2.74561,-9.54278 -1.29628,-13.83204c2.41944,-6.14738 6.76574,-10.90245 11.42732,-13.49793c9.67024,-5.35405 18.52843,-8.09824 30.38812,-8.09824z" data-paper-data="{&quot;origPos&quot;:null}" fill="#a85b00" stroke="#000000" stroke-width="2.5" stroke-linecap="round"/><path d="M228.60571,119.09146c11.86555,0 20.61534,0.52922 30.40242,4.46472c4.55279,1.83278 10.97689,6.32342 10.80871,11.80049c0.16818,5.29217 -6.58318,8.43911 -10.80871,9.73798c-10.00492,3.07385 -20.27589,3.80814 -30.64728,3.63962c-10.39741,0.00234 -21.25353,-1.28825 -31.5408,-4.77348c-3.42669,-1.15629 -8.64534,-4.14057 -8.20143,-8.60411c0.24805,-5.73875 5.46109,-10.16341 9.58468,-11.80049c9.80982,-3.89192 18.53687,-4.46472 30.40242,-4.46472z" data-paper-data="{&quot;origPos&quot;:null}" fill="#a85b00" stroke="#703d00" stroke-width="2.4183" stroke-linecap="round"/><path d="M231.25848,119.34019c17.69236,-0.02199 21.66876,3.2856 31.98881,6.11902c4.85226,1.33307 10.3836,4.5261 12.08466,9.07395c2.36843,6.33922 2.202,17.4546 -0.87813,20.28048c-2.18361,2.00798 -5.66349,-9.41516 -9.4921,-9.91027c-2.42278,-0.5712 -0.36631,6.42619 -3.01072,7.77768c-3.59613,1.81814 -10.0725,-3.82025 -12.08466,-0.87813c-2.27978,3.34105 4.45919,8.80382 3.01072,12.96279c-0.71336,2.6996 -6.16109,4.38812 -7.77768,2.17441c-3.08097,-4.22335 0.45161,-11.03509 -2.17441,-15.55534c-1.37908,-2.3793 -5.73039,-2.48802 -7.77768,-0.87813c-3.84785,3.03664 -3.40211,9.73213 -7.3177,12.54464c-2.09496,1.50285 -5.42095,0.45161 -7.35951,-0.87813c-4.90076,-4.14141 -6.12764,-13.53983 -12.08466,-14.67723c-4.49433,-0.86391 -6.87529,10.83355 -9.95207,9.4921c-3.47653,-1.53212 0.42317,-13.17354 -2.59255,-15.9735c-1.86413,-1.7228 -5.42765,8.28112 -7.3177,6.89955c-2.19615,-1.86748 -2.4554,-9.21278 -0.87813,-13.38093c1.64586,-4.21499 5.48284,-8.12557 9.83331,-9.33488c10.87787,-3.01992 9.09235,-4.57326 33.78019,-5.85809z" data-paper-data="{&quot;origPos&quot;:null}" fill="#703d00" stroke="#703d00" stroke-width="1.99513" stroke-linecap="round"/><path d="M229.5162,118.35342c10.72315,0.26411 21.70389,0.88615 31.98881,4.00048c5.32729,1.61741 11.95001,4.92453 14.38451,10.41004c2.61095,5.99901 2.44453,17.41563 -1.29628,20.30374c-2.59255,1.9082 -6.67959,-10.03403 -11.3738,-10.7111c-2.58168,-0.3975 -0.36631,6.61077 -3.01072,8.00105c-3.59613,1.87031 -10.0725,-3.92999 -12.08466,-0.90337c-2.27978,3.43706 4.45919,9.05672 3.01072,13.33512c-0.71336,2.77713 -6.16109,4.51414 -7.77768,2.23688c-3.08097,-4.34471 0.45161,-11.35206 -2.17441,-16.0021c-1.37908,-2.44762 -5.73039,-2.55953 -7.77768,-0.90337c-3.84785,3.12387 -3.40211,10.01162 -7.3177,12.90492c-2.09496,1.546 -5.42095,0.46457 -7.35951,-0.90329c-4.90076,-4.26033 -6.12764,-13.92873 -12.08466,-15.0988c-4.49433,-0.88867 -6.87529,11.14473 -9.95207,9.76473c-3.47653,-1.57611 0.42317,-13.55188 -2.59255,-16.43229c-1.86413,-1.77222 -5.42765,8.51898 -7.3177,7.09776c-2.19615,-1.92109 -2.4554,-9.47738 -0.87813,-13.76522c1.64586,-4.33609 5.48284,-8.359 9.83331,-9.603c10.87787,-3.10663 22.47328,-3.5575 33.78019,-3.7321z" fill="#ddc6d2" stroke="#000000" stroke-width="2.5" stroke-linecap="round"/><path d="M230.66613,127.80086c2.73974,0 5.22276,0.19234 7.02082,0.50262c1.79723,0.31026 2.91036,0.73846 2.91036,1.21182c0,0.47335 -1.11313,0.90154 -2.91036,1.21182c-1.79806,0.31026 -4.28106,0.50262 -7.02082,0.50262c-2.73974,0 -5.22276,-0.19234 -7.02082,-0.50262c-1.79723,-0.31026 -2.91036,-0.73846 -2.91036,-1.21182c0,-0.47335 1.11313,-0.90154 2.91036,-1.21182c1.79806,-0.31026 4.28106,-0.50262 7.02082,-0.50262z" fill="#a85b00" stroke="#703d00" stroke-width="1.99513" stroke-linecap="butt"/><path d="M213.37544,134.15397l-2.59255,5.60327" data-paper-data="{&quot;origPos&quot;:null}" fill="none" stroke="#6148a4" stroke-width="1.99513" stroke-linecap="round"/><path d="M233.69774,121.31948h-5.18511" data-paper-data="{&quot;origPos&quot;:null}" fill="none" stroke="#6148a4" stroke-width="1.99513" stroke-linecap="round"/><path d="M231.10519,145.07066l5.18511,-1.71444" data-paper-data="{&quot;origPos&quot;:null}" fill="none" stroke="#6148a4" stroke-width="1.99513" stroke-linecap="round"/><path d="M250.96752,138.58926l-4.76696,-1.71444" data-paper-data="{&quot;origPos&quot;:null}" fill="none" stroke="#6148a4" stroke-width="1.99513" stroke-linecap="round"/><path d="M204.30148,144.23433l-4.30699,1.71444" data-paper-data="{&quot;origPos&quot;:null}" fill="none" stroke="#6148a4" stroke-width="1.99513" stroke-linecap="round"/><path d="M189.20611,135.86841v-3.47068" data-paper-data="{&quot;origPos&quot;:null}" fill="none" stroke="#6148a4" stroke-width="1.99513" stroke-linecap="round"/><path d="M209.94658,120.90132l3.88883,-0.41815" data-paper-data="{&quot;origPos&quot;:null}" fill="none" stroke="#6148a4" stroke-width="1.99513" stroke-linecap="round"/><path d="M275.59681,143.35622v-4.76696" data-paper-data="{&quot;origPos&quot;:null}" fill="none" stroke="#6148a4" stroke-width="1.99513" stroke-linecap="round"/><path d="M250.54937,130.39343h-3.88883" data-paper-data="{&quot;origPos&quot;:null}" fill="none" stroke="#6148a4" stroke-width="1.99513" stroke-linecap="round"/><path d="M245.78241,120.48317h2.59255z" data-paper-data="{&quot;origPos&quot;:null}" fill="none" stroke="#6148a4" stroke-width="1.99513" stroke-linecap="round"/><path d="M211.661,127.38272l-4.30699,0.83631" data-paper-data="{&quot;origPos&quot;:null}" fill="none" stroke="#9b4976" stroke-width="1.99513" stroke-linecap="round"/><path d="M226.33823,138.58926h-5.18511" data-paper-data="{&quot;origPos&quot;:null}" fill="none" stroke="#9b4976" stroke-width="1.99513" stroke-linecap="round"/><path d="M255.27451,129.97527v3.88883" data-paper-data="{&quot;origPos&quot;:null}" fill="none" stroke="#9b4976" stroke-width="1.99513" stroke-linecap="round"/><path d="M242.77169,124.79016l-4.34881,-2.59255" data-paper-data="{&quot;origPos&quot;:null}" fill="none" stroke="#9b4976" stroke-width="1.99513" stroke-linecap="round"/><path d="M270.41171,136.87482v4.76696" data-paper-data="{&quot;origPos&quot;:null}" fill="none" stroke="#9b4976" stroke-width="1.99513" stroke-linecap="round"/><path d="M262.63403,126.92275h3.47068" data-paper-data="{&quot;origPos&quot;:null}" fill="none" stroke="#9b4976" stroke-width="1.99513" stroke-linecap="round"/><path d="M194.80938,133.40414l3.88883,-3.88883" data-paper-data="{&quot;origPos&quot;:null}" fill="none" stroke="#9b4976" stroke-width="1.99513" stroke-linecap="round"/><path d="M199.57634,138.58926l3.42886,-0.83631" data-paper-data="{&quot;origPos&quot;:null}" fill="none" stroke="#ffffff" stroke-width="1.99513" stroke-linecap="round"/><path d="M222.90936,125.20831l-3.47068,-3.01072" data-paper-data="{&quot;origPos&quot;:null}" fill="none" stroke="#ffffff" stroke-width="1.99513" stroke-linecap="round"/><path d="M221.90295,152.01201l3.42886,-3.05252" data-paper-data="{&quot;origPos&quot;:null}" fill="none" stroke="#ffffff" stroke-width="1.99513" stroke-linecap="round"/><path d="M240.00903,144.23433l3.47068,2.59255" data-paper-data="{&quot;origPos&quot;:null}" fill="none" stroke="#ffffff" stroke-width="1.99513" stroke-linecap="round"/><path d="M251.25737,144.6525l-0.41815,2.59255z" data-paper-data="{&quot;origPos&quot;:null}" fill="none" stroke="#ffffff" stroke-width="1.99513" stroke-linecap="round"/><path d="M251.67554,123.49389h3.88883" data-paper-data="{&quot;origPos&quot;:null}" fill="none" stroke="#ffffff" stroke-width="1.99513" stroke-linecap="round"/><path d="M262.50573,136.45667l3.42886,-0.87813" data-paper-data="{&quot;origPos&quot;:null}" fill="none" stroke="#ffffff" stroke-width="1.99513" stroke-linecap="round"/><path d="M190.04242,127.38272l4.76696,-1.75624" data-paper-data="{&quot;origPos&quot;:null}" fill="none" stroke="#ffffff" stroke-width="1.99513" stroke-linecap="round"/><path d="M203.29508,126.50459l-1.29628,-3.01072z" data-paper-data="{&quot;origPos&quot;:null}" fill="none" stroke="#ffffff" stroke-width="1.99513" stroke-linecap="round"/><path d="M239.17272,135.99669l-0.45997,-2.13259z" data-paper-data="{&quot;origPos&quot;:null}" fill="none" stroke="#ffffff" stroke-width="1.99513" stroke-linecap="round"/></g></g></svg>