<svg version="1.1" xmlns="http://www.w3.org/2000/svg" xmlns:xlink="http://www.w3.org/1999/xlink" width="45.19582" height="14.69145" viewBox="0,0,45.19582,14.69145"><g transform="translate(-217.34939,-167.78495)"><g data-paper-data="{&quot;isPaintingLayer&quot;:true}" fill-rule="nonzero" stroke-linecap="butt" stroke-linejoin="miter" stroke-miterlimit="10" stroke-dasharray="" stroke-dashoffset="0" style="mix-blend-mode: normal"><path d="M239.47851,181.4764c-13.18609,-0.9286 -22.65779,-0.61907 -20.92441,-6.74781c1.73338,-6.12875 19.19103,-5.94303 26.86744,-5.94303c7.67641,0 17.14811,3.46677 16.03379,9.28598c-0.68097,3.09533 -17.58146,3.71439 -21.97682,3.40486z" fill="#e8ae68" stroke="#000000" stroke-width="2"/><path d="M261.39343,177.7382c-0.61907,3.09533 -17.51955,3.71439 -22.03873,3.40486c-11.20508,-0.80479 -19.74819,-0.68097 -20.92441,-4.45727c0.9905,-0.12381 1.67148,-0.30953 2.41436,0.30953c0.86669,0.68097 3.03342,2.16673 5.13824,1.54766c2.10482,-0.61907 2.8477,0.12381 4.14774,0.12381c1.30004,0 1.36194,-0.37144 2.8477,-0.37144c1.42385,0 5.75731,1.54766 7.05735,1.23813c1.30004,-0.30953 2.10482,-0.43335 2.90961,-0.30953c0.80479,0.12381 3.15723,0.43335 4.39536,-0.24763c1.17622,-0.68097 5.81921,0.30953 6.74781,-0.12381c0.9286,-0.43335 1.79529,-0.49525 2.8477,-0.49525c0.86669,0 3.21914,-1.17622 4.58108,-1.54766c0,0.30953 -0.06191,0.61907 -0.12381,0.9286z" fill="#d69a51" stroke="none" stroke-width="1"/><path d="M233.22595,168.82366c-2.22864,2.16673 -3.65249,5.01443 -3.65249,5.01443c-0.55716,-2.16673 -0.18572,-3.65249 0.43335,-4.7049c1.05241,-0.18572 2.10482,-0.24763 3.21914,-0.30953z" fill="#f2c083" stroke="none" stroke-width="1"/><path d="M237.74513,173.77618c-0.68097,-2.53817 0,-4.20964 0.80479,-5.26206c1.11432,-0.06191 2.22864,-0.06191 3.21914,-0.06191c-2.47626,2.16673 -4.02393,5.32396 -4.02393,5.32396z" fill="#f2c083" stroke="none" stroke-width="1"/><path d="M245.42154,174.14762c-0.74288,-2.90961 0.18572,-4.64299 1.11432,-5.6335c0.9286,0 1.9191,0.12381 2.90961,0.24763c-2.41436,2.16673 -4.02393,5.32396 -4.02393,5.38587z" fill="#f2c083" stroke="none" stroke-width="1"/><path d="M222.76375,179.59539c0,0 0.74288,0.12381 2.10482,0.30953c1.30004,0.18572 3.21914,0.37144 5.50968,0.55716c2.29054,0.18572 4.95252,0.30953 7.80022,0.43335c1.42385,0.06191 2.90961,0.12381 4.39536,0.12381c1.48576,0 3.03342,-0.06191 4.51918,-0.12381c3.03342,-0.12381 6.06684,-0.43335 8.91454,-0.9286c1.42385,-0.24763 2.72389,-0.55716 3.96202,-1.05241c0.55716,-0.24763 1.17622,-0.61907 1.36194,-1.11432c0.06191,-0.55716 0.06191,-1.17622 0,-1.73338c-0.12381,-1.11432 -0.68097,-2.04292 -1.30004,-2.72389c-0.61907,-0.68097 -1.23813,-1.17622 -1.79529,-1.54766c-0.55716,-0.37144 -0.9905,-0.61907 -1.30004,-0.80479c-0.30953,-0.18572 -0.49525,-0.24763 -0.49525,-0.24763c0,0 0.18572,0.06191 0.49525,0.24763c0.30953,0.18572 0.80479,0.37144 1.36194,0.74288c0.55716,0.37144 1.23813,0.80479 1.8572,1.48576c0.61907,0.68097 1.23813,1.60957 1.42385,2.78579c0.06191,0.55716 0.12381,1.17622 0,1.8572c-0.12381,0.37144 -0.37144,0.61907 -0.61907,0.80479c-0.24763,0.18572 -0.55716,0.37144 -0.86669,0.49525c-1.23813,0.55716 -2.60007,0.86669 -4.02393,1.17622c-2.8477,0.55716 -5.88112,0.80479 -8.91454,0.9905c-1.54766,0.06191 -3.09533,0.12381 -4.64299,0.12381c-1.48576,0 -2.97151,-0.06191 -4.39536,-0.12381c-2.8477,-0.12381 -5.50968,-0.30953 -7.80022,-0.55716c-2.29054,-0.24763 -4.14774,-0.49525 -5.50968,-0.74288c-1.30004,-0.24763 -2.04292,-0.43335 -2.04292,-0.43335z" fill="#ad7939" stroke="none" stroke-width="1"/><path d="M246.35014,178.6668c-0.80479,0.06191 -1.23813,-0.68097 -0.55716,-0.74288c0.68097,-0.06191 1.54766,0.68097 0.55716,0.74288z" fill="#d69a51" stroke="none" stroke-width="1"/><path d="M239.4166,178.97633c-0.80479,0.06191 0.06191,-0.49525 0.68097,-0.43335c0.61907,0.06191 0.06191,0.37144 -0.68097,0.43335z" fill="#d69a51" stroke="none" stroke-width="1"/><path d="M253.53129,178.54298c-0.68097,0.06191 -0.55716,-1.11432 0.86669,-1.11432c1.42385,0 0.18572,1.05241 -0.86669,1.11432z" fill="#d69a51" stroke="none" stroke-width="1"/><path d="M252.47888,177.92392c-0.74288,0.37144 -0.9286,0.24763 -0.74288,-0.06191c0.18572,-0.30953 1.11432,-0.12381 0.74288,0.06191z" fill="#d69a51" stroke="none" stroke-width="1"/><path d="M224.68285,178.04773c-1.11432,0.06191 -2.16673,-0.80479 -1.17622,-0.86669c0.9905,-0.06191 1.9191,0.80479 1.17622,0.86669z" fill="#d69a51" stroke="none" stroke-width="1"/><path d="M225.85907,178.04773c-0.55716,-0.12381 -0.74288,-0.86669 -0.24763,-0.86669c0.49525,0 0.86669,0.9905 0.24763,0.86669z" fill="#d69a51" stroke="none" stroke-width="1"/><path d="M236.01174,178.60489c-0.55716,0.18572 -0.80479,-0.55716 -0.18572,-0.55716c0.61907,0 0.55716,0.43335 0.18572,0.55716z" fill="#d69a51" stroke="none" stroke-width="1"/><path d="M259.90767,176.74769c-0.74288,0 -0.37144,-0.80479 0.30953,-0.80479c0.68097,0 0.43335,0.80479 -0.30953,0.80479z" fill="#d69a51" stroke="none" stroke-width="1"/></g></g></svg>