<svg version="1.1" xmlns="http://www.w3.org/2000/svg" xmlns:xlink="http://www.w3.org/1999/xlink" width="96.12347" height="95.6981" viewBox="0,0,96.12347,95.6981"><g transform="translate(-191.08632,-86.58459)"><g data-paper-data="{&quot;isPaintingLayer&quot;:true}" fill-rule="nonzero" stroke-linejoin="miter" stroke-miterlimit="10" stroke-dasharray="" stroke-dashoffset="0" style="mix-blend-mode: normal"><path d="M237.39898,126.66043c11.52485,0 20.07931,2.89376 29.53018,7.86958c4.491,2.37003 8.4058,7.0061 11.26722,12.6731c2.25288,4.46865 3.91319,10.2015 3.65716,15.53373c-0.48841,6.00055 0.46407,14.3317 -5.68885,15.40702c-24.60854,4.29873 -49.67614,4.1288 -74.36181,-0.76081c-6.17166,-1.22247 -4.84043,-10.28401 -5.68894,-15.85083c-0.61273,-4.51685 -0.94111,-9.96192 0.65015,-13.8853c2.50393,-6.05253 6.57477,-10.59473 11.10469,-13.11691c9.39729,-5.20283 18.00533,-7.86958 29.53018,-7.86958z" fill="#660000" stroke="#000000" stroke-width="2.12954" stroke-linecap="round"/><path d="M238.08459,125.05231c10.1084,-0.30841 20.25164,-0.1379 30.16115,1.33773c5.721,1.15792 13.33578,1.5308 16.22452,6.47929c3.75335,6.41663 0.91365,14.56129 0.41606,22.36404c-0.21716,2.07758 -0.97595,6.30127 -2.91214,5.68504c-4.39557,-1.99816 -5.92488,-11.09421 -10.35877,-12.54059c-2.29891,-0.74654 -0.36437,6.4242 -2.99529,7.7752c-3.57775,1.81755 -10.02096,-3.81901 -12.02282,-0.87785c-2.26817,3.33996 4.43634,8.80101 2.99529,12.95856c-0.70975,2.6988 -6.1296,4.38673 -7.73788,2.17376c-3.06516,-4.222 0.44927,-11.03155 -2.16326,-15.55029c-1.37199,-2.37861 -5.70108,-2.48726 -7.73787,-0.87785c-3.82823,3.03564 -3.3847,9.72895 -7.28023,12.5405c-2.0843,1.50246 -5.39329,0.4515 -7.32192,-0.87775c-4.8757,-4.14008 -6.09631,-13.53548 -12.02284,-14.67255c-4.47137,-0.86357 -6.84016,10.8301 -9.90114,9.48908c-3.45875,-1.53169 0.4276,-14.9634 -2.57933,-15.96837c-2.82305,-0.91876 -6.15127,13.46194 -8.65315,12.79143c-2.86463,-0.85529 -2.31465,-10.76065 -2.08001,-15.84295c0.19134,-4.17271 -0.9926,-10.80665 2.91203,-12.20623c13.5838,-4.83814 28.66434,-3.73958 43.05758,-4.1802z" fill="#ff99e5" stroke="#000000" stroke-width="1.65257" stroke-linecap="round"/><path d="M238.20909,126.05009c9.87353,-0.30841 19.78108,-0.1379 29.46033,1.33773c5.58806,1.15792 13.02591,1.5308 15.84753,6.47929c3.66614,6.41663 0.89241,14.56129 0.4064,22.36404c-0.21213,2.07758 -0.95328,6.30127 -2.84446,5.68504c-4.29344,-1.99816 -5.78722,-11.09421 -10.11808,-12.54059c-2.2455,-0.74654 -0.3559,6.4242 -2.92569,7.7752c-3.49463,1.81755 -9.78812,-3.81901 -11.74347,-0.87785c-2.21547,3.33996 4.33325,8.80101 2.92569,12.95856c-0.69326,2.6988 -5.98717,4.38673 -7.55808,2.17376c-2.99393,-4.222 0.43883,-11.03155 -2.11299,-15.55029c-1.34013,-2.37861 -5.5686,-2.48726 -7.55808,-0.87785c-3.73927,3.03564 -3.30604,9.72895 -7.11107,12.5405c-2.03586,1.50246 -5.26798,0.4515 -7.15179,-0.87775c-4.7624,-4.14008 -5.95464,-13.53548 -11.74347,-14.67255c-4.36748,-0.86357 -6.68122,10.8301 -9.67108,9.48908c-3.37838,-1.53169 0.41768,-14.9634 -2.51939,-15.96837c-2.75746,-0.91876 -6.00832,13.46194 -8.45208,12.79143c-2.79807,-0.85529 -2.26088,-10.76065 -2.03167,-15.84295c0.18689,-4.17271 -0.96954,-10.80665 2.84437,-12.20623c13.26818,-4.83814 27.9983,-3.73958 42.0571,-4.1802z" fill="#ff99e5" stroke="#ff00bf" stroke-width="1.65257" stroke-linecap="round"/><path d="M220.81999,134.78365l-4.18538,0.81269" fill="none" stroke="#9b4976" stroke-width="1.62504" stroke-linecap="round"/><path d="M235.08284,145.6738h-5.03879" fill="none" stroke="#9b4976" stroke-width="1.62504" stroke-linecap="round"/><path d="M263.20216,137.30294v3.77908" fill="none" stroke="#9b4976" stroke-width="1.62504" stroke-linecap="round"/><path d="M251.05231,132.26425l-4.226,-2.51939" fill="none" stroke="#9b4976" stroke-width="1.62504" stroke-linecap="round"/><path d="M277.91203,148.64011v-4.6324" fill="none" stroke="#9b4976" stroke-width="1.62504" stroke-linecap="round"/><path d="M270.35396,134.33664h3.37269" fill="none" stroke="#9b4976" stroke-width="1.62504" stroke-linecap="round"/><path d="M208.22322,136.85604l-3.77908,3.77899" fill="none" stroke="#9b4976" stroke-width="1.62504" stroke-linecap="round"/><path d="M212.4086,144.86113l-3.33208,0.81269" fill="none" stroke="#ffffff" stroke-width="1.62504" stroke-linecap="round"/><path d="M228.37807,129.74486l3.37269,2.92578" fill="none" stroke="#ffffff" stroke-width="1.62504" stroke-linecap="round"/><path d="M230.49106,158.71758l3.33208,-2.9664" fill="none" stroke="#ffffff" stroke-width="1.62504" stroke-linecap="round"/><path d="M248.08602,151.1595l3.37269,2.51929" fill="none" stroke="#ffffff" stroke-width="1.62504" stroke-linecap="round"/><path d="M258.61038,154.08519l0.4064,-2.51939z" fill="none" stroke="#ffffff" stroke-width="1.62504" stroke-linecap="round"/><path d="M259.42307,131.00455h3.77908" fill="none" stroke="#ffffff" stroke-width="1.62504" stroke-linecap="round"/><path d="M273.27963,142.74802l-3.33208,0.8534" fill="none" stroke="#ffffff" stroke-width="1.62504" stroke-linecap="round"/><path d="M199.81174,134.78365l4.6324,-1.70669" fill="none" stroke="#ffffff" stroke-width="1.62504" stroke-linecap="round"/><path d="M212.4086,133.93024l-1.25969,-2.92569z" fill="none" stroke="#ffffff" stroke-width="1.62504" stroke-linecap="round"/><path d="M246.82631,141.08203l0.447,2.07239z" fill="none" stroke="#ffffff" stroke-width="1.62504" stroke-linecap="round"/><path d="M219.96669,146.52712l2.51929,-5.44508" fill="none" stroke="#6148a4" stroke-width="1.62504" stroke-linecap="round"/><path d="M242.23453,128.89156h-5.03868" fill="none" stroke="#6148a4" stroke-width="1.62504" stroke-linecap="round"/><path d="M244.75392,150.3061l-5.03868,1.66609" fill="none" stroke="#6148a4" stroke-width="1.62504" stroke-linecap="round"/><path d="M254.38439,144.00771l4.6324,1.66609" fill="none" stroke="#6148a4" stroke-width="1.62504" stroke-linecap="round"/><path d="M213.6682,151.1595l-4.18538,1.66599" fill="none" stroke="#6148a4" stroke-width="1.62504" stroke-linecap="round"/><path d="M198.99905,142.74802v-3.37269" fill="none" stroke="#6148a4" stroke-width="1.62504" stroke-linecap="round"/><path d="M222.93298,128.07887l-3.77899,0.4064" fill="none" stroke="#6148a4" stroke-width="1.62504" stroke-linecap="round"/><path d="M282.95071,150.3061v-4.63228" fill="none" stroke="#6148a4" stroke-width="1.62504" stroke-linecap="round"/><path d="M254.83139,137.70934h3.77899" fill="none" stroke="#6148a4" stroke-width="1.62504" stroke-linecap="round"/><path d="M253.97809,128.07887h2.51929z" fill="none" stroke="#6148a4" stroke-width="1.62504" stroke-linecap="round"/><path d="M209.0397,135.31307c-0.06276,-11.46798 -0.1385,-22.31563 -0.23228,-31.26202c0.60157,-1.0346 1.36786,-1.16939 2.00494,-1.14225c0.4064,0.01936 0.82805,0.55946 1.24084,0.95627c0.11354,9.95934 0.20504,20.38054 0.27987,31.10687c-0.43693,-0.23158 -1.06812,-0.48971 -1.72696,-0.48822c-0.58389,0.00129 -1.14575,0.41378 -1.56642,0.82935z" fill="#ffffff" stroke="none" stroke-width="1.24326" stroke-linecap="butt"/><path d="M208.50329,117.32918c0.52394,-0.01337 1.22278,-0.02714 1.94707,-0.02874c0.81718,-0.0018 1.59885,0.00409 2.13963,0.00977c0.20904,1.67128 -0.20444,3.59899 -0.18538,5.15811c-0.6765,0.02374 -1.34161,0.04022 -2.14492,0.04369c-0.58669,0.00259 -1.1685,-0.004 -1.73115,-0.01796c-0.02714,-0.0007 -0.04949,-0.0018 -0.07543,-0.0028c-0.16912,-1.06224 0.07634,-2.15072 0.06726,-3.21594c-0.004,-0.52554 0.02614,-1.27237 -0.01706,-1.94618z" fill="#42b5e8" stroke="none" stroke-width="0.4292" stroke-linecap="butt"/><path d="M208.70285,107.75051c0.52394,-0.01337 1.22278,-0.02714 1.94707,-0.02874c0.81718,-0.0018 1.59885,0.00409 2.13963,0.00977c0.20904,1.67128 -0.20444,3.59899 -0.18538,5.15811c-0.6765,0.02374 -1.34161,0.04022 -2.14492,0.04369c-0.58669,0.00259 -1.1685,-0.004 -1.73115,-0.01796c-0.02714,-0.0007 -0.04949,-0.0018 -0.07543,-0.0028c-0.16912,-1.06224 0.07634,-2.15072 0.06726,-3.21594c-0.004,-0.52554 0.02614,-1.27237 -0.01706,-1.94618z" fill="#42b5e8" stroke="none" stroke-width="0.4292" stroke-linecap="butt"/><path d="M208.35363,127.7061c0.52394,-0.01337 1.22278,-0.02714 1.94707,-0.02874c0.81718,-0.0018 1.59885,0.00409 2.13963,0.00977c0.20904,1.67128 -0.20444,3.59899 -0.18538,5.15811c-0.6765,0.02374 -1.34161,0.04022 -2.14492,0.04369c-0.58669,0.00259 -1.1685,-0.004 -1.73115,-0.01796c-0.02714,-0.0007 -0.04949,-0.0018 -0.07543,-0.0028c-0.16912,-1.06224 0.07634,-2.15072 0.06726,-3.21594c-0.004,-0.52554 0.02614,-1.27237 -0.01706,-1.94618z" fill="#42b5e8" stroke="none" stroke-width="0.4292" stroke-linecap="butt"/><path d="M213.28126,103.37483c0.1812,0.08551 0.20754,0.18789 0.14487,0.27638c-0.51016,9.50534 -0.21731,21.60013 -0.61544,31.06117c-0.0005,0.01058 -0.00688,0.01816 -0.01037,0.02754c0,0.00589 0.001,0.01416 0.001,0.01727c-0.09249,0.48322 -1.74651,0.49979 -2.35377,0.50329c-0.80101,0.00429 -2.37193,-0.07045 -2.68452,-0.60047c-0.00299,-0.00479 -0.00149,-0.01287 -0.00189,-0.01945c-0.01358,-0.01576 -0.03004,-0.03123 -0.03143,-0.0464c-0.21063,-5.51822 -0.43404,-11.00251 -0.40929,-16.49688c0.01926,-4.01306 -0.01686,-10.56649 0.17122,-14.57786c0.01118,-0.2231 0.28466,-0.34513 0.583,-0.36948c0.52832,-0.20724 1.53339,-0.25494 1.99806,-0.2668c1.09985,-0.02764 2.37372,0.09699 3.20856,0.4917zM208.83485,103.60473c-0.07912,1.49638 -0.1346,3.06218 -0.17232,4.674c-0.19757,8.48332 0.10178,18.26276 0.05986,26.17605c0.54499,0.11414 1.0809,0.19108 1.72856,0.20145c0.47344,0.00738 0.9427,-0.03133 1.39599,-0.10755c0.02194,-0.00429 0.03991,-0.01008 0.06087,-0.01536c0.15476,-5.3925 -0.02415,-10.91422 0.0017,-16.32018c0.01188,-2.66716 0.0005,-6.45713 0.0475,-9.87712c0.02305,-1.72346 0.06137,-3.35323 0.12472,-4.69765c-0.60516,-0.15635 -1.37194,-0.1781 -2.00893,-0.17551c-0.4068,0.00269 -0.82656,0.08302 -1.23794,0.14188z" fill="#231f20" stroke="none" stroke-width="0.38875" stroke-linecap="butt"/><path d="M209.8473,90.00261c0.01636,-0.26023 -0.24785,-0.70164 0.11694,0c1.47891,2.82381 3.16486,5.74921 4.09189,8.7595c0.24785,0.79612 -0.17421,1.71977 -0.70143,2.5151c-0.52494,0.69125 -1.1668,1.75709 -2.3383,1.77795c-1.22987,0.02086 -2.17575,-1.04158 -2.63055,-1.86464c-0.74235,-1.02771 -0.99608,-2.26536 -0.7599,-3.38236c0.30632,-1.45097 1.7105,-2.80656 2.10442,-4.11963c0.36249,-1.20292 0.05967,-2.653 0.11694,-3.6859z" fill="#ff9400" stroke="#000000" stroke-width="1" stroke-linecap="round"/><path d="M210.4802,99.12231c0.11943,-0.13261 0.12921,-0.20435 0.20315,-0.12063c0.31859,0.60535 0.65345,1.22508 0.73147,1.76348c0.05198,0.37257 -0.19017,0.73487 -0.28606,1.09717c-0.10896,0.43653 0.06825,1.44389 -0.24217,1.48011c-0.34793,-0.03622 -0.87455,-1.01285 -1.13617,-1.48011c-0.19268,-0.34114 -0.36738,-0.72639 -0.28606,-1.09717c0.12513,-0.53361 0.59079,-1.14126 1.01584,-1.64285z" fill="#ffff99" stroke="none" stroke-width="0.71711" stroke-linecap="round"/><path d="M225.49747,133.61685c-0.42067,-0.41557 -0.98251,-0.82805 -1.56642,-0.82935c-0.65884,-0.00149 -1.29002,0.25664 -1.72696,0.48822c0.07483,-10.72633 0.16633,-21.14754 0.27987,-31.10687c0.41279,-0.39682 0.83444,-0.93692 1.24084,-0.95627c0.63709,-0.02714 1.40337,0.10767 2.00494,1.14225c-0.0938,8.94639 -0.16952,19.79404 -0.23228,31.26202z" fill="#ffffff" stroke="none" stroke-width="1.24326" stroke-linecap="butt"/><path d="M226.08378,115.58307c-0.04321,0.67379 -0.01308,1.42064 -0.01706,1.94618c-0.00908,1.06524 0.23637,2.15371 0.06726,3.21594c-0.02594,0.001 -0.04829,0.00209 -0.07543,0.0028c-0.56265,0.01397 -1.14445,0.02055 -1.73115,0.01796c-0.80331,-0.0035 -1.46843,-0.01995 -2.14492,-0.04369c0.01906,-1.55913 -0.39442,-3.48684 -0.18538,-5.15811c0.5408,-0.00568 1.32245,-0.01157 2.13963,-0.00977c0.72428,0.0016 1.42313,0.01536 1.94707,0.02874z" fill="#42b5e8" stroke="none" stroke-width="0.4292" stroke-linecap="butt"/><path d="M225.83433,106.15406c-0.04321,0.67379 -0.01308,1.42064 -0.01706,1.94618c-0.00908,1.06524 0.23637,2.15371 0.06726,3.21594c-0.02594,0.001 -0.04829,0.00209 -0.07543,0.0028c-0.56265,0.01397 -1.14445,0.02055 -1.73115,0.01796c-0.80331,-0.0035 -1.46843,-0.01995 -2.14492,-0.04369c0.01906,-1.55913 -0.39442,-3.48684 -0.18538,-5.15811c0.5408,-0.00568 1.32245,-0.01157 2.13963,-0.00977c0.72428,0.0016 1.42313,0.01536 1.94707,0.02874z" fill="#42b5e8" stroke="none" stroke-width="0.4292" stroke-linecap="butt"/><path d="M226.08378,125.95998c-0.04321,0.67379 -0.01308,1.42064 -0.01706,1.94618c-0.00908,1.06524 0.23637,2.15371 0.06726,3.21594c-0.02594,0.001 -0.04829,0.00209 -0.07543,0.0028c-0.56265,0.01397 -1.14445,0.02055 -1.73115,0.01796c-0.80331,-0.0035 -1.46843,-0.01995 -2.14492,-0.04369c0.01906,-1.55913 -0.39442,-3.48684 -0.18538,-5.15811c0.5408,-0.00568 1.32245,-0.01157 2.13963,-0.00977c0.72428,0.0016 1.42313,0.01536 1.94707,0.02874z" fill="#42b5e8" stroke="none" stroke-width="0.4292" stroke-linecap="butt"/><path d="M227.00072,101.72852c0.1812,0.08551 0.20754,0.18789 0.14487,0.27638c-0.51016,9.50534 -0.21731,21.60013 -0.61544,31.06117c-0.0005,0.01058 -0.00688,0.01816 -0.01037,0.02754c0,0.00589 0.001,0.01416 0.001,0.01727c-0.09249,0.48322 -1.74651,0.49979 -2.35377,0.50329c-0.80101,0.00429 -2.37193,-0.07045 -2.68452,-0.60047c-0.00299,-0.00479 -0.00149,-0.01287 -0.00189,-0.01945c-0.01358,-0.01576 -0.03004,-0.03123 -0.03143,-0.0464c-0.21063,-5.51822 -0.43404,-11.00251 -0.40929,-16.49688c0.01926,-4.01306 -0.01686,-10.56649 0.17122,-14.57786c0.01118,-0.2231 0.28466,-0.34513 0.583,-0.36948c0.52832,-0.20724 1.53339,-0.25494 1.99806,-0.2668c1.09985,-0.02764 2.37372,0.09699 3.20856,0.4917zM222.55432,101.95839c-0.07912,1.49638 -0.1346,3.06218 -0.17232,4.674c-0.19757,8.48332 0.10178,18.26276 0.05986,26.17605c0.54499,0.11414 1.0809,0.19108 1.72856,0.20145c0.47344,0.00738 0.9427,-0.03133 1.39599,-0.10755c0.02194,-0.00429 0.03991,-0.01008 0.06087,-0.01536c0.15476,-5.3925 -0.02415,-10.91422 0.0017,-16.32018c0.01188,-2.66716 0.0005,-6.45713 0.0475,-9.87712c0.02305,-1.72346 0.06137,-3.35323 0.12472,-4.69765c-0.60516,-0.15635 -1.37194,-0.1781 -2.00893,-0.17551c-0.4068,0.00269 -0.82656,0.08302 -1.23794,0.14188z" fill="#231f20" stroke="none" stroke-width="0.38875" stroke-linecap="butt"/><path d="M224.95698,91.94757c0.40491,1.3493 1.84768,2.7423 2.16248,4.23328c0.24265,1.14785 -0.01806,2.41962 -0.78086,3.47566c-0.46736,0.84572 -1.4393,1.93748 -2.70318,1.91604c-1.20372,-0.02135 -1.86325,-1.11662 -2.40276,-1.82694c-0.5418,-0.81718 -0.97553,-1.76636 -0.72079,-2.58445c0.95268,-3.09341 2.68512,-6.09943 4.20483,-9.00117c0.37487,-0.721 0.10327,-0.2674 0.12013,0c0.05887,1.06143 -0.25233,2.55153 0.12013,3.78756z" fill="#ff9400" stroke="#000000" stroke-width="1" stroke-linecap="round"/><path d="M225.12271,99.11881c0.08132,0.37078 -0.09339,0.75602 -0.28606,1.09717c-0.26162,0.46726 -0.78824,1.44389 -1.13617,1.48011c-0.31041,-0.03622 -0.1332,-1.04358 -0.24217,-1.48011c-0.09589,-0.3623 -0.33805,-0.72459 -0.28606,-1.09717c0.07802,-0.5384 0.41289,-1.15813 0.73147,-1.76348c0.07394,-0.08372 0.08372,-0.01198 0.20315,0.12063c0.42506,0.50159 0.89071,1.10924 1.01584,1.64285z" fill="#ffff99" stroke="none" stroke-width="0.71711" stroke-linecap="round"/><path d="M237.22697,132.96829c-0.06276,-11.46798 -0.1385,-22.31563 -0.23228,-31.26202c0.60157,-1.0346 1.36786,-1.16939 2.00494,-1.14225c0.4064,0.01936 0.82805,0.55946 1.24084,0.95627c0.11354,9.95934 0.20504,20.38054 0.27987,31.10687c-0.43693,-0.23158 -1.06812,-0.48971 -1.72696,-0.48822c-0.58389,0.00129 -1.14575,0.41378 -1.56642,0.82935z" fill="#ffffff" stroke="none" stroke-width="1.24326" stroke-linecap="butt"/><path d="M236.69056,114.98441c0.52394,-0.01337 1.22278,-0.02714 1.94707,-0.02874c0.81718,-0.0018 1.59885,0.00409 2.13963,0.00977c0.20904,1.67128 -0.20444,3.59899 -0.18538,5.15811c-0.6765,0.02374 -1.34161,0.04022 -2.14492,0.04369c-0.58669,0.00259 -1.1685,-0.004 -1.73115,-0.01796c-0.02714,-0.0007 -0.04949,-0.0018 -0.07543,-0.0028c-0.16912,-1.06224 0.07634,-2.15072 0.06726,-3.21594c-0.004,-0.52554 0.02614,-1.27237 -0.01706,-1.94618z" fill="#42b5e8" stroke="none" stroke-width="0.4292" stroke-linecap="butt"/><path d="M236.94001,105.40573c0.52394,-0.01337 1.22278,-0.02714 1.94707,-0.02874c0.81718,-0.0018 1.59885,0.00409 2.13963,0.00977c0.20904,1.67128 -0.20444,3.59899 -0.18538,5.15811c-0.6765,0.02374 -1.34161,0.04022 -2.14492,0.04369c-0.58669,0.00259 -1.1685,-0.004 -1.73115,-0.01796c-0.02714,-0.0007 -0.04949,-0.0018 -0.07543,-0.0028c-0.16912,-1.06224 0.07634,-2.15072 0.06726,-3.21594c-0.004,-0.52554 0.02614,-1.27237 -0.01706,-1.94618z" fill="#42b5e8" stroke="none" stroke-width="0.4292" stroke-linecap="butt"/><path d="M236.64068,125.36131c0.52394,-0.01337 1.22278,-0.02714 1.94707,-0.02874c0.81718,-0.0018 1.59885,0.00409 2.13963,0.00977c0.20904,1.67128 -0.20444,3.59899 -0.18538,5.15811c-0.6765,0.02374 -1.34161,0.04022 -2.14492,0.04369c-0.58669,0.00259 -1.1685,-0.004 -1.73115,-0.01796c-0.02714,-0.0007 -0.04949,-0.0018 -0.07543,-0.0028c-0.16912,-1.06224 0.07634,-2.15072 0.06726,-3.21594c-0.004,-0.52554 0.02614,-1.27237 -0.01706,-1.94618z" fill="#42b5e8" stroke="none" stroke-width="0.4292" stroke-linecap="butt"/><path d="M241.56831,101.03006c0.1812,0.08551 0.20754,0.18789 0.14487,0.27638c-0.51016,9.50534 -0.21731,21.60013 -0.61544,31.06117c-0.0005,0.01058 -0.00688,0.01816 -0.01037,0.02754c0,0.00589 0.001,0.01416 0.001,0.01727c-0.09249,0.48322 -1.74651,0.49979 -2.35377,0.50329c-0.80101,0.00429 -2.37193,-0.07045 -2.68452,-0.60047c-0.00299,-0.00479 -0.00149,-0.01287 -0.00189,-0.01945c-0.01358,-0.01576 -0.03004,-0.03123 -0.03143,-0.0464c-0.21063,-5.51822 -0.43404,-11.00251 -0.40929,-16.49688c0.01926,-4.01306 -0.01686,-10.56649 0.17122,-14.57786c0.01118,-0.2231 0.28466,-0.34513 0.583,-0.36948c0.52832,-0.20724 1.53339,-0.25494 1.99806,-0.2668c1.09985,-0.02764 2.37372,0.09699 3.20856,0.4917zM237.12191,101.25996c-0.07912,1.49638 -0.1346,3.06218 -0.17232,4.674c-0.19757,8.48332 0.10178,18.26276 0.05986,26.17605c0.54499,0.11414 1.0809,0.19108 1.72856,0.20145c0.47344,0.00738 0.9427,-0.03133 1.39599,-0.10755c0.02194,-0.00429 0.03991,-0.01008 0.06087,-0.01536c0.15476,-5.3925 -0.02415,-10.91422 0.0017,-16.32018c0.01188,-2.66716 0.0005,-6.45713 0.0475,-9.87712c0.02305,-1.72346 0.06137,-3.35323 0.12472,-4.69765c-0.60516,-0.15635 -1.37194,-0.1781 -2.00893,-0.17551c-0.4068,0.00269 -0.82656,0.08302 -1.23794,0.14188z" fill="#231f20" stroke="none" stroke-width="0.38875" stroke-linecap="butt"/><path d="M237.98438,87.48371c0.01727,-0.2747 -0.26172,-0.74074 0.12343,0c1.56143,2.98126 3.34126,6.06969 4.31998,9.24782c0.26172,0.84053 -0.18389,1.81566 -0.74055,2.6553c-0.55417,0.72977 -1.23176,1.85508 -2.46861,1.87702c-1.2984,0.02194 -2.29698,-1.09966 -2.77712,-1.96862c-0.78376,-1.08498 -1.05166,-2.39157 -0.80232,-3.57085c0.32338,-1.5319 1.80578,-2.96301 2.22176,-4.34922c0.38265,-1.26997 0.06295,-2.80087 0.12343,-3.89144z" fill="#ff9400" stroke="#000000" stroke-width="1" stroke-linecap="round"/><path d="M238.61757,96.87731c0.11943,-0.13261 0.12921,-0.20435 0.20315,-0.12063c0.31859,0.60535 0.65345,1.22508 0.73147,1.76348c0.05198,0.37257 -0.19017,0.73487 -0.28606,1.09717c-0.10896,0.43653 0.06825,1.44389 -0.24217,1.48011c-0.34793,-0.03622 -0.87455,-1.01285 -1.13617,-1.48011c-0.19268,-0.34114 -0.36738,-0.72639 -0.28606,-1.09717c0.12513,-0.53361 0.59079,-1.14126 1.01584,-1.64285z" fill="#ffff99" stroke="none" stroke-width="0.71711" stroke-linecap="round"/><path d="M252.14378,134.01596c-0.06276,-11.46798 -0.1385,-22.31563 -0.23228,-31.26202c0.60157,-1.0346 1.36786,-1.16939 2.00494,-1.14225c0.4064,0.01936 0.82805,0.55946 1.24084,0.95627c0.11354,9.95934 0.20504,20.38054 0.27987,31.10687c-0.43693,-0.23158 -1.06812,-0.48971 -1.72696,-0.48822c-0.58389,0.00129 -1.14575,0.41378 -1.56642,0.82935z" fill="#ffffff" stroke="none" stroke-width="1.24326" stroke-linecap="butt"/><path d="M251.5076,115.9822c0.52394,-0.01337 1.22278,-0.02714 1.94707,-0.02874c0.81718,-0.0018 1.59885,0.00409 2.13963,0.00977c0.20904,1.67128 -0.20444,3.59899 -0.18538,5.15811c-0.6765,0.02374 -1.34161,0.04022 -2.14492,0.04369c-0.58669,0.00259 -1.1685,-0.004 -1.73115,-0.01796c-0.02714,-0.0007 -0.04949,-0.0018 -0.07543,-0.0028c-0.16912,-1.06224 0.07634,-2.15072 0.06726,-3.21594c-0.004,-0.52554 0.02614,-1.27237 -0.01706,-1.94618z" fill="#42b5e8" stroke="none" stroke-width="0.4292" stroke-linecap="butt"/><path d="M251.75703,106.50328c0.52394,-0.01337 1.22278,-0.02714 1.94707,-0.02874c0.81718,-0.0018 1.59885,0.00409 2.13963,0.00977c0.20904,1.67128 -0.20444,3.59899 -0.18538,5.15811c-0.6765,0.02374 -1.34161,0.04022 -2.14492,0.04369c-0.58669,0.00259 -1.1685,-0.004 -1.73115,-0.01796c-0.02714,-0.0007 -0.04949,-0.0018 -0.07543,-0.0028c-0.16912,-1.06224 0.07634,-2.15072 0.06726,-3.21594c-0.004,-0.52554 0.02614,-1.27237 -0.01706,-1.94618z" fill="#42b5e8" stroke="none" stroke-width="0.4292" stroke-linecap="butt"/><path d="M251.5076,126.3591c0.52394,-0.01337 1.22278,-0.02714 1.94707,-0.02874c0.81718,-0.0018 1.59885,0.00409 2.13963,0.00977c0.20904,1.67128 -0.20444,3.59899 -0.18538,5.15811c-0.6765,0.02374 -1.34161,0.04022 -2.14492,0.04369c-0.58669,0.00259 -1.1685,-0.004 -1.73115,-0.01796c-0.02714,-0.0007 -0.04949,-0.0018 -0.07543,-0.0028c-0.16912,-1.06224 0.07634,-2.15072 0.06726,-3.21594c-0.004,-0.52554 0.02614,-1.27237 -0.01706,-1.94618z" fill="#42b5e8" stroke="none" stroke-width="0.4292" stroke-linecap="butt"/><path d="M256.43523,102.12762c0.1812,0.08551 0.20754,0.18789 0.14487,0.27638c-0.51016,9.50534 -0.21731,21.60013 -0.61544,31.06117c-0.0005,0.01058 -0.00688,0.01816 -0.01037,0.02754c0,0.00589 0.001,0.01416 0.001,0.01727c-0.09249,0.48322 -1.74651,0.49979 -2.35377,0.50329c-0.80101,0.00429 -2.37193,-0.07045 -2.68452,-0.60047c-0.00299,-0.00479 -0.00149,-0.01287 -0.00189,-0.01945c-0.01358,-0.01576 -0.03004,-0.03123 -0.03143,-0.0464c-0.21063,-5.51822 -0.43404,-11.00251 -0.40929,-16.49688c0.01926,-4.01306 -0.01686,-10.56649 0.17122,-14.57786c0.01118,-0.2231 0.28466,-0.34513 0.583,-0.36948c0.52832,-0.20724 1.53339,-0.25494 1.99806,-0.2668c1.09985,-0.02764 2.37372,0.09699 3.20856,0.4917zM251.98882,102.35752c-0.07912,1.49638 -0.1346,3.06218 -0.17232,4.674c-0.19757,8.48332 0.10178,18.26276 0.05986,26.17605c0.54499,0.11414 1.0809,0.19108 1.72856,0.20145c0.47344,0.00738 0.9427,-0.03133 1.39599,-0.10755c0.02194,-0.00429 0.03991,-0.01008 0.06087,-0.01536c0.15476,-5.3925 -0.02415,-10.91422 0.0017,-16.32018c0.01188,-2.66716 0.0005,-6.45713 0.0475,-9.87712c0.02305,-1.72346 0.06137,-3.35323 0.12472,-4.69765c-0.60516,-0.15635 -1.37194,-0.1781 -2.00893,-0.17551c-0.4068,0.00269 -0.82656,0.08302 -1.23794,0.14188z" fill="#231f20" stroke="none" stroke-width="0.38875" stroke-linecap="butt"/><path d="M252.66271,89.30925c0.01626,-0.25963 -0.24725,-0.69995 0.11663,0c1.47532,2.81703 3.15708,5.73524 4.08202,8.73825c0.24725,0.79423 -0.17381,1.71568 -0.69985,2.50902c-0.52363,0.68957 -1.16391,1.7528 -2.3325,1.77355c-1.22697,0.02086 -2.17048,-1.03899 -2.62416,-1.86006c-0.74065,-1.02521 -0.99369,-2.25987 -0.75811,-3.37419c0.30553,-1.44749 1.70631,-2.79976 2.09933,-4.10955c0.3615,-1.20003 0.05947,-2.64661 0.11663,-3.67701z" fill="#ff9400" stroke="#000000" stroke-width="1" stroke-linecap="round"/><path d="M253.43461,97.87507c0.11943,-0.13261 0.12921,-0.20435 0.20315,-0.12063c0.31859,0.60535 0.65345,1.22508 0.73147,1.76348c0.05198,0.37257 -0.19017,0.73487 -0.28606,1.09717c-0.10896,0.43653 0.06825,1.44389 -0.24217,1.48011c-0.34793,-0.03622 -0.87455,-1.01285 -1.13617,-1.48011c-0.19268,-0.34114 -0.36738,-0.72639 -0.28606,-1.09717c0.12513,-0.53361 0.59079,-1.14126 1.01584,-1.64285z" fill="#ffff99" stroke="none" stroke-width="0.71711" stroke-linecap="round"/><path d="M268.65144,135.11352c-0.42067,-0.41557 -0.98251,-0.82805 -1.56642,-0.82935c-0.65884,-0.00149 -1.29002,0.25664 -1.72696,0.48822c0.07483,-10.72633 0.16633,-21.14754 0.27987,-31.10687c0.41279,-0.39682 0.83444,-0.93692 1.24084,-0.95627c0.63709,-0.02714 1.40337,0.10767 2.00494,1.14225c-0.0938,8.94639 -0.16952,19.79404 -0.23228,31.26202z" fill="#ffffff" stroke="none" stroke-width="1.24326" stroke-linecap="butt"/><path d="M269.18784,117.12964c-0.04321,0.67379 -0.01308,1.42064 -0.01706,1.94618c-0.00908,1.06524 0.23637,2.15371 0.06726,3.21594c-0.02594,0.001 -0.04829,0.00209 -0.07543,0.0028c-0.56265,0.01397 -1.14445,0.02055 -1.73115,0.01796c-0.80331,-0.0035 -1.46843,-0.01995 -2.14492,-0.04369c0.01906,-1.55913 -0.39442,-3.48684 -0.18538,-5.15811c0.5408,-0.00568 1.32245,-0.01157 2.13963,-0.00977c0.72428,0.0016 1.42313,0.01536 1.94707,0.02874z" fill="#42b5e8" stroke="none" stroke-width="0.4292" stroke-linecap="butt"/><path d="M268.9384,107.60083c-0.04321,0.67379 -0.01308,1.42064 -0.01706,1.94618c-0.00908,1.06524 0.23637,2.15371 0.06726,3.21594c-0.02594,0.001 -0.04829,0.00209 -0.07543,0.0028c-0.56265,0.01397 -1.14445,0.02055 -1.73115,0.01796c-0.80331,-0.0035 -1.46843,-0.01995 -2.14492,-0.04369c0.01906,-1.55913 -0.39442,-3.48684 -0.18538,-5.15811c0.5408,-0.00568 1.32245,-0.01157 2.13963,-0.00977c0.72428,0.0016 1.42313,0.01536 1.94707,0.02874z" fill="#42b5e8" stroke="none" stroke-width="0.4292" stroke-linecap="butt"/><path d="M269.3375,127.45665c-0.04321,0.67379 -0.01308,1.42064 -0.01706,1.94618c-0.00908,1.06524 0.23637,2.15371 0.06726,3.21594c-0.02594,0.001 -0.04829,0.00209 -0.07543,0.0028c-0.56265,0.01397 -1.14445,0.02055 -1.73115,0.01796c-0.80331,-0.0035 -1.46843,-0.01995 -2.14492,-0.04369c0.01906,-1.55913 -0.39442,-3.48684 -0.18538,-5.15811c0.5408,-0.00568 1.32245,-0.01157 2.13963,-0.00977c0.72428,0.0016 1.42313,0.01536 1.94707,0.02874z" fill="#42b5e8" stroke="none" stroke-width="0.4292" stroke-linecap="butt"/><path d="M270.15469,103.22519c0.1812,0.08551 0.20754,0.18789 0.14487,0.27638c-0.51016,9.50534 -0.21731,21.60013 -0.61544,31.06117c-0.0005,0.01058 -0.00688,0.01816 -0.01037,0.02754c0,0.00589 0.001,0.01416 0.001,0.01727c-0.09249,0.48322 -1.74651,0.49979 -2.35377,0.50329c-0.80101,0.00429 -2.37193,-0.07045 -2.68452,-0.60047c-0.00299,-0.00479 -0.00149,-0.01287 -0.00189,-0.01945c-0.01358,-0.01576 -0.03004,-0.03123 -0.03143,-0.0464c-0.21063,-5.51822 -0.43404,-11.00251 -0.40929,-16.49688c0.01926,-4.01306 -0.01686,-10.56649 0.17122,-14.57786c0.01118,-0.2231 0.28466,-0.34513 0.583,-0.36948c0.52832,-0.20724 1.53339,-0.25494 1.99806,-0.2668c1.09985,-0.02764 2.37372,0.09699 3.20856,0.4917zM265.70829,103.45505c-0.07912,1.49638 -0.1346,3.06218 -0.17232,4.674c-0.19757,8.48332 0.10178,18.26276 0.05986,26.17605c0.54499,0.11414 1.0809,0.19108 1.72856,0.20145c0.47344,0.00738 0.9427,-0.03133 1.39599,-0.10755c0.02194,-0.00429 0.03991,-0.01008 0.06087,-0.01536c0.15476,-5.3925 -0.02415,-10.91422 0.0017,-16.32018c0.01188,-2.66716 0.0005,-6.45713 0.0475,-9.87712c0.02305,-1.72346 0.06137,-3.35323 0.12472,-4.69765c-0.60516,-0.15635 -1.37194,-0.1781 -2.00893,-0.17551c-0.4068,0.00269 -0.82656,0.08302 -1.23794,0.14188z" fill="#231f20" stroke="none" stroke-width="0.38875" stroke-linecap="butt"/><path d="M266.71494,90.48094c0.01626,-0.25952 -0.24725,-0.69985 0.11654,0c1.47511,2.81643 3.15648,5.73405 4.08121,8.73636c0.24715,0.79413 -0.17371,1.71529 -0.69964,2.50851c-0.52353,0.68936 -1.16371,1.75249 -2.33212,1.77326c-1.22666,0.02075 -2.16997,-1.03889 -2.62356,-1.85976c-0.74045,-1.02502 -0.99349,-2.25937 -0.75791,-3.3735c0.30543,-1.44708 1.7059,-2.79907 2.09883,-4.10866c0.3615,-1.19974 0.05947,-2.64601 0.11663,-3.67622z" fill="#ff9400" stroke="#000000" stroke-width="1" stroke-linecap="round"/><path d="M267.40351,98.87286c0.11943,-0.13261 0.12921,-0.20435 0.20315,-0.12063c0.31859,0.60535 0.65345,1.22508 0.73147,1.76348c0.05198,0.37257 -0.19017,0.73487 -0.28606,1.09717c-0.10896,0.43653 0.06825,1.44389 -0.24217,1.48011c-0.34793,-0.03622 -0.87455,-1.01285 -1.13617,-1.48011c-0.19268,-0.34114 -0.36738,-0.72639 -0.28606,-1.09717c0.12513,-0.53361 0.59079,-1.14126 1.01584,-1.64285z" fill="#ffff99" stroke="none" stroke-width="0.71711" stroke-linecap="round"/></g></g></svg>